<?xml version="1.0" encoding="UTF-8"?>
<!-- Generator: visioncortex VTracer 0.6.12 -->
<svg version="1.1" xmlns="http://www.w3.org/2000/svg" width="1024" height="1024">
<path d="M0 0 C337.92 0 675.84 0 1024 0 C1024 337.92 1024 675.84 1024 1024 C686.08 1024 348.16 1024 0 1024 C0 686.08 0 348.16 0 0 Z " fill="#FCFDFD" transform="translate(0,0)"/>
<path d="M0 0 C337.92 0 675.84 0 1024 0 C1024 337.92 1024 675.84 1024 1024 C686.08 1024 348.16 1024 0 1024 C0 686.08 0 348.16 0 0 Z M456 96 C455.185 96.112 454.37 96.224 453.531 96.34 C448.318 97.062 443.163 97.986 438 99 C437.008 99.189 436.016 99.378 434.994 99.573 C374.613 111.21 316.598 137.231 268 175 C266.895 175.848 265.789 176.695 264.684 177.543 C244.471 193.134 224.435 210.449 207.832 229.891 C205.673 232.377 203.429 234.775 201.188 237.188 C195.738 243.178 190.815 249.499 186 256 C185.501 256.669 185.002 257.338 184.488 258.028 C168.185 279.954 153.795 303.349 141.97 327.996 C140.966 330.071 139.934 332.131 138.898 334.191 C120.22 371.862 108.819 413.202 102.562 454.688 C102.487 455.191 102.487 455.191 102.103 457.736 C99.746 474.718 99.814 491.8 99.815 508.909 C99.813 512.729 99.794 516.548 99.775 520.367 C99.742 534.696 100.181 548.781 102 563 C102.046 563.358 102.046 563.358 102.278 565.171 C102.882 569.772 103.578 574.355 104.312 578.938 C104.421 579.617 104.529 580.296 104.641 580.996 C108.219 603.318 113.98 624.51 121 646 C121.307 646.947 121.614 647.894 121.93 648.869 C128.036 667.545 135.899 685.582 144.968 703.006 C146.06 705.115 147.126 707.237 148.191 709.359 C157.658 728.013 168.723 745.804 181.643 762.262 C182.962 763.952 184.256 765.657 185.543 767.371 C191.696 775.543 198.243 783.324 205 791 C205.791 791.905 206.583 792.81 207.398 793.742 C213.377 800.417 219.664 806.791 225.975 813.15 C226.974 814.158 227.972 815.167 228.969 816.177 C234.854 822.137 240.899 827.72 247.454 832.953 C249.762 834.808 251.993 836.718 254.207 838.684 C286.748 867.409 326.829 889.173 367 905 C368.02 905.402 369.041 905.804 370.092 906.218 C394.847 915.833 420.781 922.769 447 927 C448.199 927.196 449.399 927.392 450.635 927.594 C491.227 933.891 534.511 933.97 575 927 C577.282 926.645 579.565 926.291 581.848 925.938 C614.974 920.547 647.5 909.861 678 896 C678.961 895.567 679.922 895.135 680.912 894.689 C703.831 884.297 725.619 871.777 746 857 C746.747 856.467 747.493 855.934 748.262 855.385 C759.356 847.46 769.868 839.119 780 830 C780.45 829.6 780.45 829.6 782.727 827.574 C785.164 825.396 787.584 823.201 790 821 C790.999 820.095 791.997 819.19 792.996 818.285 C800.767 811.225 808.322 804.084 815.168 796.109 C817.153 793.824 819.2 791.603 821.25 789.375 C826.833 783.171 831.95 776.638 837 770 C837.543 769.287 838.086 768.573 838.646 767.838 C869.359 727.3 892.684 682.376 907.214 633.616 C907.91 631.3 908.637 628.999 909.383 626.699 C916.668 603.854 920.306 579.767 923 556 C923.087 555.243 923.173 554.487 923.262 553.707 C924.808 539.9 925.442 526.203 925.438 512.312 C925.438 511.285 925.439 510.257 925.44 509.198 C925.363 467.91 918.925 426.257 906 387 C905.809 386.418 905.809 386.418 904.845 383.47 C895.543 355.384 883.743 328.674 869 303 C868.186 301.55 867.372 300.099 866.559 298.648 C848.094 266.095 824.078 237.082 797.75 210.625 C797.101 209.971 796.451 209.317 795.782 208.643 C791.351 204.227 786.744 200.076 782 196 C780.929 195.062 779.859 194.123 778.789 193.184 C763.987 180.289 748.527 168.591 732 158 C731.219 157.491 730.438 156.983 729.633 156.459 C680.885 124.788 625.576 103.966 568 96 C567.604 95.945 567.604 95.945 565.598 95.666 C547.371 93.193 529.182 92.763 510.812 92.75 C509.709 92.749 508.606 92.747 507.47 92.746 C490.111 92.751 473.193 93.454 456 96 Z " fill="#FEFEFE" transform="translate(0,0)"/>
<path d="M0 0 C3.163 0.011 6.325 0 9.488 -0.013 C28.27 -0.026 46.998 1.074 65.546 4.136 C66.622 4.308 67.698 4.48 68.807 4.657 C78.693 6.269 88.511 8.12 98.296 10.261 C99.038 10.416 99.78 10.57 100.544 10.73 C143.626 19.826 186.893 39.774 223.369 63.982 C225.09 65.124 226.825 66.245 228.562 67.362 C259.606 87.533 291.277 113.544 314.257 142.722 C316.341 145.317 318.538 147.754 320.796 150.198 C325.704 155.599 330.015 161.357 334.296 167.261 C334.689 167.797 335.082 168.333 335.487 168.885 C346.724 184.217 356.694 200.199 365.931 216.809 C366.773 218.321 367.619 219.829 368.474 221.333 C386.29 252.704 399.426 288.101 407.296 323.261 C407.58 324.516 407.863 325.771 408.155 327.064 C421.142 385.277 422.317 444.699 410.296 503.261 C410.126 504.123 409.955 504.986 409.779 505.875 C393.331 588.021 347.884 673.685 283.484 728.636 C280.441 731.258 277.453 733.93 274.484 736.636 C251.745 757.098 226.099 774.582 199.296 789.261 C198.476 789.713 197.656 790.164 196.812 790.63 C158.479 811.62 116.213 826.371 73.046 833.386 C72.145 833.532 71.243 833.679 70.314 833.83 C66.979 834.344 63.64 834.804 60.296 835.261 C59.458 835.382 58.62 835.503 57.757 835.628 C40.625 838.076 23.778 838.787 6.484 838.698 C5.84 838.697 5.84 838.697 2.583 838.688 C-86.904 838.35 -176.186 808.489 -245.704 751.261 C-247.37 749.947 -249.036 748.635 -250.704 747.323 C-254.975 743.909 -259.053 740.323 -263.086 736.632 C-264.494 735.357 -265.906 734.088 -267.351 732.856 C-273.341 727.735 -278.926 722.225 -284.494 716.656 C-286.129 715.022 -287.773 713.397 -289.417 711.772 C-295.181 706.038 -300.572 700.196 -305.639 693.822 C-307.622 691.362 -309.683 689.015 -311.805 686.675 C-315.834 682.188 -319.485 677.475 -323.079 672.636 C-323.405 672.197 -323.405 672.197 -325.059 669.974 C-355.614 628.651 -376.658 583.235 -391.704 534.261 C-391.919 533.574 -392.134 532.887 -392.355 532.179 C-397.7 515.051 -400.832 497.414 -403.454 479.698 C-403.56 478.984 -403.667 478.27 -403.777 477.535 C-404.088 475.443 -404.39 473.35 -404.688 471.257 C-404.86 470.052 -405.033 468.847 -405.21 467.606 C-406.502 457.133 -406.861 446.627 -406.872 436.085 C-406.875 434.877 -406.878 433.668 -406.882 432.424 C-406.887 429.882 -406.889 427.34 -406.889 424.798 C-406.891 420.995 -406.909 417.194 -406.928 413.392 C-406.976 392.914 -406.269 372.448 -402.579 352.261 C-402.365 351.073 -402.152 349.884 -401.933 348.66 C-394.375 307.948 -382.091 268.065 -362.775 231.314 C-361.571 229.007 -360.397 226.685 -359.223 224.362 C-347.032 200.424 -332.298 178.35 -315.704 157.261 C-315.372 156.831 -315.372 156.831 -313.692 154.659 C-308.808 148.418 -303.524 142.592 -298.127 136.797 C-296.721 135.28 -295.33 133.751 -293.942 132.218 C-285.945 123.388 -277.785 114.726 -268.708 106.987 C-266.451 105.043 -264.27 103.028 -262.079 101.011 C-256.429 95.915 -250.475 91.258 -244.453 86.616 C-242.809 85.343 -241.179 84.055 -239.551 82.761 C-217.693 65.56 -193.506 51.722 -168.704 39.261 C-167.961 38.885 -167.218 38.509 -166.453 38.121 C-115.331 12.427 -57.057 -0.229 0 0 Z M-153.704 75.261 C-155.439 76.083 -157.175 76.904 -158.911 77.726 C-188.154 91.759 -214.446 110.871 -238.704 132.261 C-239.076 132.589 -239.076 132.589 -240.961 134.249 C-247.437 140.009 -253.636 146.01 -259.766 152.136 C-260.695 153.052 -261.624 153.969 -262.581 154.913 C-268.731 161.05 -274.291 167.471 -279.704 174.261 C-280.579 175.3 -281.459 176.335 -282.348 177.362 C-311.409 211.188 -332.691 252.541 -347.704 294.261 C-348.037 295.183 -348.371 296.106 -348.715 297.057 C-361.365 332.41 -368.15 369.674 -368.079 407.198 C-368.078 408.234 -368.078 409.269 -368.078 410.336 C-368.045 426.349 -367.148 441.576 -363.704 457.261 C-363.36 459.005 -363.017 460.75 -362.676 462.495 C-348.498 531.093 -303.872 600.064 -248.704 643.261 C-246.566 644.996 -244.446 646.752 -242.329 648.511 C-241.372 649.3 -240.416 650.089 -239.43 650.901 C-234.994 654.74 -231.261 658.645 -227.891 663.448 C-224.006 668.877 -219.945 674.106 -215.704 679.261 C-214.893 680.247 -214.082 681.233 -213.247 682.249 C-198.358 700.184 -182.072 716.866 -163.704 731.261 C-162.344 732.35 -160.985 733.44 -159.625 734.53 C-123.763 763.095 -80.969 785.618 -35.704 794.261 C-34.723 794.454 -33.742 794.647 -32.731 794.846 C-10.303 799.149 12.719 800.153 35.296 796.261 C36.042 796.137 36.787 796.014 37.555 795.886 C75.817 789.384 111.744 774.17 144.296 753.261 C145.347 752.597 146.398 751.933 147.48 751.249 C161.611 742.103 174.726 731.429 187.296 720.261 C187.551 720.035 187.551 720.035 188.837 718.896 C199.927 709.02 210.749 698.649 220.296 687.261 C221.078 686.369 221.859 685.477 222.664 684.558 C226.846 679.749 230.88 674.931 234.519 669.69 C242.058 658.861 249.891 650.828 260.334 642.8 C269.206 635.839 277.089 627.573 285.082 619.649 C286.501 618.244 287.922 616.842 289.344 615.44 C295.433 609.358 300.944 602.994 306.296 596.261 C307.297 595.052 308.3 593.846 309.308 592.644 C355.927 536.246 385.202 460.101 378.613 386.519 C370.97 306.106 338.212 227.722 284.296 167.261 C283.483 166.336 282.67 165.412 281.832 164.46 C277.165 159.203 272.312 154.184 267.296 149.261 C264.702 146.679 262.125 144.085 259.57 141.464 C253.152 134.902 246.502 128.962 239.296 123.261 C238.269 122.4 237.245 121.537 236.222 120.671 C217.963 105.381 197.265 92.469 176.296 81.261 C175.444 80.802 174.591 80.342 173.712 79.869 C79.226 29.455 -41.071 24.447 -153.704 75.261 Z " fill="#144E5E" transform="translate(506.70361328125,92.7392578125)"/>
<path d="M0 0 C2.997 -0.002 5.993 -0.02 8.99 -0.039 C60.635 -0.194 112.895 11.95 159.465 34.185 C160.378 34.617 161.292 35.048 162.233 35.492 C196.067 51.573 226.474 72.882 254.125 98.068 C255.68 99.475 257.251 100.866 258.836 102.24 C263.136 105.968 266.989 109.784 270.66 114.131 C272.624 116.367 274.706 118.423 276.84 120.498 C281.803 125.411 286.118 130.727 290.465 136.185 C291.377 137.297 292.291 138.408 293.207 139.517 C347.989 206.286 385.462 300.565 378.113 387.947 C377.767 391.353 377.297 394.732 376.772 398.115 C376.443 400.334 376.174 402.555 375.91 404.783 C368.99 460.282 340.626 514.437 305.465 557.185 C305.03 557.723 304.596 558.26 304.148 558.814 C296.457 568.279 287.934 576.924 279.34 585.56 C278.787 586.118 278.234 586.677 277.664 587.252 C269.65 595.325 261.418 602.801 252.258 609.584 C244.127 615.752 238.777 623.185 232.902 631.435 C218.959 650.95 201.052 670.079 182.25 684.959 C179.775 686.938 177.375 688.982 174.986 691.063 C124.857 734.485 56.265 762.99 -10.535 759.185 C-28.529 757.574 -46.446 754.035 -63.535 748.185 C-64.451 747.876 -65.367 747.568 -66.31 747.249 C-130.072 725.41 -184.529 682.477 -225.348 629.373 C-225.9 628.655 -226.451 627.937 -227.02 627.198 C-229.326 624.175 -231.524 621.203 -233.539 617.974 C-235.837 614.764 -238.49 612.641 -241.66 610.373 C-246.69 606.644 -251.421 602.742 -256.024 598.486 C-258.078 596.605 -260.16 594.78 -262.27 592.963 C-266.85 588.964 -271.177 584.736 -275.473 580.435 C-276.266 579.641 -277.06 578.847 -277.877 578.029 C-283.509 572.338 -288.61 566.497 -293.535 560.185 C-295.116 558.328 -296.699 556.474 -298.285 554.623 C-322.007 526.099 -339.317 493.716 -352.535 459.185 C-352.885 458.287 -353.234 457.389 -353.594 456.464 C-357.414 446.564 -360.349 436.576 -362.785 426.248 C-363.02 425.261 -363.254 424.274 -363.496 423.257 C-367.525 405.274 -369.087 387.584 -368.973 369.185 C-368.971 368.165 -368.968 367.145 -368.966 366.095 C-368.904 349.143 -367.759 332.859 -364.535 316.185 C-364.37 315.296 -364.204 314.408 -364.034 313.492 C-363.147 308.788 -362.152 304.119 -361.061 299.459 C-360.511 297.081 -359.999 294.697 -359.489 292.31 C-354.406 269.112 -346.212 246.836 -336.535 225.185 C-336.089 224.183 -335.642 223.181 -335.181 222.149 C-319.546 187.487 -298.68 155.669 -273.535 127.185 C-272.878 126.439 -272.221 125.692 -271.543 124.923 C-265.784 118.449 -259.784 112.251 -253.66 106.123 C-252.744 105.194 -251.827 104.265 -250.883 103.308 C-244.746 97.159 -238.329 91.594 -231.535 86.185 C-230.473 85.298 -229.415 84.406 -228.364 83.506 C-165.554 30.022 -82.257 -0.007 0 0 Z M-212.996 137.865 C-215.08 139.769 -217.194 141.611 -219.348 143.435 C-228.436 151.364 -236.944 160.036 -244.41 169.506 C-246.628 172.302 -248.952 174.985 -251.285 177.685 C-261.705 190.179 -270.487 204.071 -278.535 218.185 C-278.987 218.966 -279.439 219.748 -279.905 220.552 C-306.825 267.292 -321.807 321.902 -321.723 375.935 C-321.722 376.657 -321.722 377.379 -321.721 378.122 C-321.692 391.224 -321.086 404.166 -319.535 417.185 C-319.474 417.712 -319.474 417.712 -319.161 420.376 C-314.99 454.56 -305.531 488.139 -290.535 519.185 C-290.17 519.961 -289.805 520.736 -289.428 521.535 C-269.633 563.485 -239.274 603.56 -202.535 632.185 C-201.408 633.111 -200.283 634.039 -199.16 634.97 C-189.729 642.747 -179.846 649.626 -169.535 656.185 C-169.224 656.384 -169.224 656.384 -167.647 657.391 C-130.508 680.897 -88.87 696.195 -45.535 703.185 C-44.648 703.336 -43.761 703.487 -42.847 703.643 C-27.11 706.23 -11.445 706.475 4.465 706.498 C5.468 706.501 6.471 706.505 7.504 706.509 C20.297 706.533 32.792 705.948 45.465 704.185 C46.704 704.019 47.944 703.853 49.221 703.682 C67.796 701.065 85.582 696.88 103.465 691.185 C103.919 691.042 103.919 691.042 106.219 690.319 C144.015 678.267 180.062 658.689 210.465 633.185 C211.06 632.69 211.654 632.196 212.267 631.686 C218.706 626.315 224.97 620.878 230.804 614.845 C232.465 613.185 232.465 613.185 235.527 610.685 C238.521 608.138 240.952 605.457 243.492 602.47 C245.693 599.92 247.983 597.465 250.277 594.998 C255.725 589.007 260.671 582.701 265.465 576.185 C265.931 575.554 266.398 574.922 266.879 574.272 C318.772 503.63 339.996 415.544 327.059 328.994 C319.138 278.231 298.767 228.088 267.465 187.185 C267.022 186.602 266.579 186.02 266.122 185.419 C260.842 178.492 255.392 171.803 249.488 165.392 C247.72 163.464 246.026 161.497 244.34 159.498 C236.159 150.11 227.092 141.084 217.465 133.185 C216.918 132.73 216.371 132.274 215.807 131.805 C168.233 92.216 112.703 66.432 51.465 56.435 C50.76 56.32 50.056 56.204 49.33 56.084 C-40.081 42.514 -136.439 71.077 -212.996 137.865 Z " fill="#FCFDFD" transform="translate(507.535400390625,131.814697265625)"/>
<path d="M0 0 C0.614 0.421 1.228 0.843 1.861 1.277 C14.038 9.687 25.724 18.678 36.57 28.754 C38.592 30.623 40.647 32.414 42.75 34.188 C52.208 42.436 61.146 51.488 68.906 61.348 C71.137 64.173 73.469 66.892 75.812 69.625 C87.51 83.705 97.015 99.085 106 115 C106.451 115.796 106.902 116.593 107.367 117.413 C127.365 153.06 139.384 192.48 144 233 C144.081 233.664 144.162 234.329 144.246 235.013 C145.732 247.206 146.364 259.22 146.312 271.5 C146.311 272.362 146.31 273.225 146.309 274.113 C146.272 288.294 145.456 302.164 143.406 316.213 C143.032 318.779 142.7 321.346 142.379 323.918 C135.261 377.823 110.526 430.538 77 473 C76.287 473.905 75.574 474.81 74.84 475.742 C69.981 481.792 64.845 487.531 59.566 493.211 C57.425 495.538 55.357 497.901 53.312 500.312 C50.538 503.505 47.56 506.249 44.332 508.977 C42.048 510.958 39.858 513.021 37.668 515.106 C-6.975 557.333 -67.293 584.168 -127.438 594.438 C-128.172 594.563 -128.906 594.689 -129.663 594.819 C-146.357 597.641 -162.785 598.239 -179.688 598.25 C-180.733 598.251 -181.778 598.252 -182.855 598.253 C-198.779 598.243 -214.269 597.665 -230 595 C-230.88 594.861 -231.76 594.722 -232.667 594.578 C-286.967 585.893 -339.215 562.476 -382 528 C-382.458 527.638 -382.458 527.638 -384.773 525.809 C-400.682 513.068 -416.381 498.657 -428.957 482.59 C-430.324 480.857 -431.74 479.16 -433.199 477.504 C-457.713 449.587 -476.143 414 -488 379 C-488.35 377.966 -488.701 376.933 -489.062 375.868 C-500.633 341.204 -506.218 305.689 -506.25 269.188 C-506.251 268.481 -506.251 267.775 -506.252 267.047 C-506.218 243.963 -502.886 221.533 -498 199 C-497.812 198.123 -497.624 197.247 -497.431 196.343 C-485.973 143.986 -459.286 95.958 -424 56 C-423.621 55.565 -423.621 55.565 -421.703 53.363 C-413.115 43.631 -403.935 34.358 -394 26 C-393.095 25.206 -392.19 24.412 -391.258 23.594 C-355.849 -7.3 -312.288 -30.564 -267 -43 C-266.161 -43.233 -265.322 -43.466 -264.458 -43.706 C-175.534 -67.893 -76.192 -52.368 0 0 Z M-236 -31 C-237.082 -30.791 -238.164 -30.582 -239.279 -30.367 C-287.206 -20.896 -331.999 0.379 -370 31 C-370.915 31.723 -371.83 32.446 -372.773 33.191 C-388.936 46.135 -404.204 60.716 -417 77 C-417.893 78.071 -418.789 79.14 -419.688 80.207 C-472.028 142.906 -491.885 224.101 -485.508 304.373 C-483.486 326.572 -478.916 349.127 -471 370 C-470.638 370.976 -470.276 371.952 -469.903 372.958 C-454.051 415.523 -431.556 453.24 -400 486 C-399.469 486.553 -398.937 487.106 -398.39 487.676 C-392.144 494.145 -385.79 500.245 -378.727 505.832 C-375.859 508.112 -373.092 510.489 -370.312 512.875 C-331.399 545.278 -283.148 564.786 -234 575 C-233.574 575.089 -233.574 575.089 -231.419 575.541 C-216.188 578.525 -201.053 579.329 -185.57 579.261 C-182.7 579.25 -179.832 579.261 -176.963 579.273 C-112.401 579.323 -46.595 557.403 4.237 517.377 C5.957 516.034 7.695 514.722 9.445 513.418 C18.977 506.288 27.605 498.433 36 490 C37.077 488.944 38.155 487.89 39.234 486.836 C46.31 479.892 52.931 472.858 59 465 C60.017 463.712 61.034 462.424 62.051 461.137 C94.936 419.19 115.142 370.414 124 318 C124.165 317.034 124.33 316.067 124.5 315.071 C129.02 287.246 129.533 256.256 124.453 228.497 C123.978 225.877 123.564 223.252 123.156 220.621 C114.657 167.824 90.961 118.111 57 77 C56.636 76.544 56.636 76.544 54.797 74.234 C48.765 66.837 42.229 60.018 35.5 53.25 C34.634 52.375 33.768 51.5 32.876 50.598 C26.893 44.643 20.618 39.236 14 34 C13.237 33.388 12.474 32.776 11.688 32.146 C-57.019 -22.767 -148.894 -48.424 -236 -31 Z " fill="#164E5D" transform="translate(692,240)"/>
<path d="M0 0 C1.236 3.708 0.604 4.974 -0.59 8.652 C-0.774 9.23 -0.774 9.23 -1.706 12.153 C-1.909 12.778 -1.909 12.778 -2.938 15.938 C-3.78 18.575 -4.615 21.215 -5.449 23.855 C-5.663 24.53 -5.877 25.205 -6.097 25.901 C-8.277 32.814 -10.279 39.775 -12.25 46.75 C-12.582 47.922 -12.913 49.095 -13.255 50.303 C-13.887 52.537 -14.518 54.772 -15.149 57.006 C-16.282 60.991 -17.447 64.966 -18.625 68.938 C-20.394 74.906 -22.112 80.887 -23.812 86.875 C-26.447 96.145 -29.173 105.387 -31.933 114.621 C-33.891 121.191 -35.794 127.776 -37.668 134.371 C-40.221 143.348 -42.843 152.304 -45.488 161.254 C-45.586 161.585 -45.586 161.585 -46.081 163.261 C-47.49 168.029 -48.901 172.796 -50.312 177.562 C-51.742 182.393 -53.172 187.224 -54.599 192.055 C-55.164 193.965 -55.73 195.875 -56.296 197.785 C-56.637 198.938 -56.978 200.091 -57.329 201.28 C-57.479 201.785 -57.479 201.785 -58.237 204.344 C-58.871 206.55 -59.443 208.773 -60 211 C-26.01 211 7.98 211 43 211 C41.589 214.527 40.57 216.889 38.523 219.896 C38.026 220.632 37.528 221.368 37.016 222.126 C36.474 222.917 35.933 223.708 35.375 224.523 C34.804 225.365 34.234 226.207 33.646 227.075 C32.412 228.894 31.177 230.712 29.939 232.528 C26.641 237.369 23.359 242.221 20.074 247.07 C19.738 247.566 19.738 247.566 18.038 250.074 C11.245 260.099 4.521 270.169 -2.188 280.25 C-3.24 281.831 -4.293 283.412 -5.346 284.994 C-7.308 287.942 -9.27 290.89 -11.231 293.839 C-14.339 298.511 -17.452 303.179 -20.565 307.847 C-22.866 311.297 -25.163 314.749 -27.457 318.203 C-33.756 327.681 -40.085 337.137 -46.461 346.562 C-59.528 365.884 -72.506 385.257 -85.309 404.755 C-94.857 419.291 -104.53 433.737 -114.285 448.135 C-121.325 458.527 -128.31 468.952 -135.199 479.445 C-135.872 480.469 -136.544 481.493 -137.237 482.548 C-140.495 487.512 -143.746 492.481 -146.988 497.455 C-148.152 499.233 -149.316 501.011 -150.48 502.789 C-151.012 503.61 -151.544 504.43 -152.092 505.276 C-152.58 506.02 -153.068 506.763 -153.571 507.53 C-153.994 508.18 -154.418 508.829 -154.854 509.499 C-156 511 -156 511 -158 512 C-155.845 502.9 -153.432 493.906 -150.785 484.938 C-148.327 476.56 -145.894 468.177 -143.5 459.781 C-143.212 458.77 -142.923 457.759 -142.626 456.718 C-141.75 453.645 -140.875 450.573 -140 447.5 C-136.203 434.165 -132.38 420.839 -128.489 407.532 C-126.16 399.565 -123.869 391.588 -121.599 383.604 C-117.459 369.052 -113.256 354.519 -109 340 C-103.929 322.686 -98.956 305.347 -94 288 C-128.32 288 -162.64 288 -198 288 C-192.096 276.192 -183.497 265.496 -175.961 254.688 C-169.925 246.027 -163.951 237.325 -158 228.605 C-151.364 218.885 -144.673 209.204 -137.943 199.549 C-133.766 193.552 -129.617 187.537 -125.5 181.5 C-120.031 173.48 -114.492 165.51 -108.941 157.547 C-104.765 151.551 -100.617 145.537 -96.5 139.5 C-90.983 131.411 -85.399 123.369 -79.801 115.336 C-76.016 109.903 -72.244 104.462 -68.5 99 C-64.073 92.541 -59.602 86.112 -55.125 79.688 C-50.176 72.584 -45.252 65.465 -40.375 58.312 C-34.882 50.26 -29.305 42.269 -23.707 34.289 C-19.583 28.41 -15.477 22.519 -11.375 16.625 C-11.037 16.14 -11.037 16.14 -9.329 13.688 C-6.174 9.154 -3.039 4.613 0 0 Z " fill="#144E5F" transform="translate(589,263)"/>
<path d="M0 0 C-1.607 4.21 -3.571 7.624 -6.188 11.312 C-6.924 12.381 -7.66 13.45 -8.418 14.551 C-11 17 -11 17 -14.43 17.438 C-17.695 17.037 -20.75 16.488 -23.938 15.688 C-54.747 8.941 -87.937 8.592 -119 14 C-119.921 14.156 -120.842 14.311 -121.791 14.472 C-154.812 20.268 -188.113 33.263 -216 52 C-216.658 52.44 -217.316 52.88 -217.994 53.333 C-277.032 93.165 -320.361 153.342 -334.184 223.855 C-335.244 229.553 -336.142 235.269 -337 241 C-337.119 241.735 -337.237 242.47 -337.359 243.228 C-341.21 267.422 -339.75 292.914 -336 317 C-335.781 318.526 -335.562 320.052 -335.344 321.578 C-330.331 354.601 -316.851 387.906 -299 416 C-298.587 416.65 -298.175 417.301 -297.75 417.971 C-283.572 440.141 -266.438 461.292 -246 478 C-245.022 478.806 -244.043 479.611 -243.035 480.441 C-222.958 496.727 -200.485 510.759 -176.385 520.198 C-175.56 520.527 -174.734 520.856 -173.883 521.195 C-173.155 521.474 -172.426 521.753 -171.676 522.04 C-170 523 -170 523 -169 526 C-169.345 527.901 -169.345 527.901 -169.996 530.012 C-170.225 530.769 -170.454 531.526 -170.689 532.307 C-170.936 533.092 -171.183 533.878 -171.438 534.688 C-171.68 535.485 -171.923 536.282 -172.174 537.104 C-172.775 539.071 -173.386 541.036 -174 543 C-196.196 539.495 -220.091 522.905 -238 510 C-238.71 509.49 -239.42 508.981 -240.152 508.456 C-247.619 503.063 -254.856 497.528 -261.594 491.23 C-263.625 489.348 -265.69 487.532 -267.785 485.723 C-278.454 476.414 -288.377 466.231 -297 455 C-297.398 454.499 -297.398 454.499 -299.41 451.965 C-346.345 392.562 -367.009 316.112 -358.402 241.107 C-351.793 190.072 -332.135 141.326 -300 101 C-299.233 100.022 -298.466 99.043 -297.676 98.035 C-285.082 82.275 -270.845 67.484 -255 55 C-253.892 54.082 -252.787 53.161 -251.684 52.238 C-221.022 26.786 -185.031 10.129 -147 -1 C-146.199 -1.234 -145.399 -1.469 -144.574 -1.71 C-139.758 -3.076 -134.921 -4.093 -130 -5 C-129.102 -5.179 -128.203 -5.358 -127.277 -5.542 C-85.324 -13.645 -41.144 -10.403 0 0 Z " fill="#164E5D" transform="translate(587,236)"/>
<path d="M0 0 C5.648 0.54 10.116 2.071 15.25 4.438 C15.639 4.615 15.639 4.615 17.607 5.511 C57.278 23.821 95.445 51.981 122 87 C122.791 87.998 123.583 88.995 124.398 90.023 C160.021 135.061 184.88 194.165 185.203 252.152 C185.21 253.002 185.217 253.851 185.224 254.726 C185.242 257.463 185.248 260.2 185.25 262.938 C185.251 263.876 185.251 264.814 185.252 265.781 C185.235 281.058 184.532 295.905 182 311 C181.839 312.001 181.678 313.002 181.512 314.033 C177.263 339.747 169.292 364.528 158 388 C157.553 388.935 157.106 389.869 156.646 390.833 C146.117 412.577 132.898 432.798 117 451 C116.774 451.259 116.774 451.259 115.633 452.572 C104.459 465.316 92.45 477.667 79 488 C77.761 488.99 76.523 489.981 75.285 490.973 C49.894 511.115 20.765 526.852 -10 537 C-10.531 537.176 -10.531 537.176 -13.217 538.069 C-42.253 547.567 -70.656 551.244 -101.062 551.312 C-102.178 551.315 -103.293 551.318 -104.442 551.32 C-126.601 551.326 -147.737 549.696 -169 543 C-165.887 537.168 -162.804 531.413 -159 526 C-153.646 526.31 -148.329 526.712 -143.054 527.708 C-129.384 530.27 -115.941 530.514 -102.062 530.438 C-101.478 530.436 -101.478 530.436 -98.517 530.428 C-81.032 530.361 -64.128 529.798 -47 526 C-46.027 525.791 -45.054 525.582 -44.052 525.367 C-1.145 515.875 40.196 495.329 73 466 C73.844 465.265 74.689 464.53 75.559 463.773 C86.304 454.317 96.155 444.26 105 433 C105.629 432.25 106.258 431.5 106.906 430.727 C117.518 417.984 126.319 403.666 134 389 C134.208 388.611 134.208 388.611 135.26 386.644 C147.366 363.764 157.214 337.309 160.659 311.541 C161.027 308.796 161.459 306.064 161.887 303.328 C171.772 235.446 154.458 165.023 113.444 109.927 C112.967 109.291 112.491 108.655 112 108 C111.548 107.391 111.096 106.782 110.63 106.155 C103.409 96.482 95.377 87.679 87 79 C86.1 78.059 85.2 77.118 84.273 76.148 C78.542 70.272 72.456 65.061 66 60 C65.404 59.522 64.807 59.044 64.193 58.551 C46.327 44.236 27.161 33.18 6.572 23.246 C3.031 21.531 -0.485 19.768 -4 18 C-3.312 11.808 -1.72 5.98 0 0 Z " fill="#164E5D" transform="translate(612,246)"/>
<path d="M0 0 C-1.622 4.73 -4.182 8.623 -6.938 12.75 C-7.38 13.434 -7.823 14.119 -8.279 14.824 C-8.496 15.15 -8.496 15.15 -9.59 16.797 C-9.785 17.093 -9.785 17.093 -10.773 18.589 C-12 20 -12 20 -15 21 C-17.135 20.754 -19.262 20.438 -21.383 20.086 C-31.191 18.626 -40.976 18.603 -50.875 18.625 C-51.824 18.626 -52.772 18.627 -53.75 18.628 C-68.85 18.674 -83.258 19.462 -98 23 C-99.026 23.241 -100.053 23.483 -101.11 23.731 C-116.082 27.353 -130.076 32.452 -144 39 C-144.36 39.166 -144.36 39.166 -146.181 40.003 C-197.309 63.63 -239.236 109.495 -258.969 162.145 C-272.822 200.47 -277.75 241.487 -270.25 281.812 C-270.074 282.762 -269.897 283.711 -269.716 284.689 C-268.25 292.267 -266.317 299.555 -263.757 306.839 C-262.912 309.252 -262.102 311.677 -261.289 314.102 C-247.725 353.714 -222.548 391.465 -189 417 C-188.346 417.498 -187.692 417.996 -187.019 418.509 C-170.36 431.084 -152.904 440.246 -134 449 C-135.046 454.426 -136.124 459.803 -137.625 465.125 C-137.885 466.056 -138.146 466.986 -138.414 467.945 C-138.607 468.623 -138.801 469.301 -139 470 C-141.566 470.961 -142.772 471.074 -145.416 470.218 C-146.309 469.793 -147.201 469.368 -148.121 468.93 C-149.128 468.452 -150.136 467.975 -151.174 467.483 C-152.251 466.952 -153.328 466.422 -154.438 465.875 C-155.552 465.331 -156.666 464.787 -157.814 464.226 C-178.576 453.9 -197.736 441.068 -214.66 425.188 C-216.723 423.259 -218.835 421.437 -221 419.625 C-237.524 405.179 -250.646 386.61 -262 368 C-262.228 367.628 -262.228 367.628 -263.379 365.743 C-285.729 328.633 -296.209 285.784 -296.25 242.75 C-296.251 242.334 -296.251 242.334 -296.254 240.229 C-296.249 225.973 -295.332 212.083 -293 198 C-292.947 197.65 -292.947 197.65 -292.676 195.881 C-287.091 159.738 -270.041 123.893 -248 95 C-247.647 94.531 -247.647 94.531 -245.859 92.16 C-241.411 86.437 -236.535 81.127 -231.602 75.824 C-229.447 73.486 -227.367 71.113 -225.312 68.688 C-222.548 65.515 -219.611 62.742 -216.398 60.027 C-214.567 58.479 -212.767 56.911 -210.977 55.316 C-152.567 3.659 -75.746 -13.722 0 0 Z " fill="#164E5D" transform="translate(563,270)"/>
<path d="M0 0 C27.161 9.674 51.456 25.154 72.539 44.723 C74.74 46.759 76.977 48.733 79.25 50.688 C99.652 68.472 115.296 91.293 128 115 C128.337 115.619 128.675 116.238 129.022 116.875 C147.193 150.407 156.346 189.242 156.125 227.312 C156.123 227.765 156.123 227.765 156.11 230.056 C155.904 253.407 152.933 276.653 146 299 C145.732 299.871 145.465 300.742 145.189 301.64 C134.665 335.258 117.307 365.661 94 392 C93.241 392.87 92.481 393.74 91.699 394.637 C82.866 404.631 73.539 413.813 63 422 C62.533 422.364 62.533 422.364 60.168 424.207 C57.144 426.519 54.085 428.77 51 431 C49.939 431.77 48.878 432.539 47.785 433.332 C24.885 449.483 -1.851 461.186 -29 468 C-29.834 468.211 -30.667 468.422 -31.526 468.64 C-65.198 476.981 -102.137 480.174 -136 471 C-134.429 467.941 -132.723 464.975 -131 462 C-130.477 460.983 -129.953 459.966 -129.414 458.918 C-127.507 455.675 -125.868 453.443 -123 451 C-119.832 450.738 -119.832 450.738 -116.215 451.188 C-114.871 451.328 -113.526 451.465 -112.182 451.597 C-111.491 451.67 -110.8 451.742 -110.088 451.817 C-104.734 452.286 -99.337 452.147 -93.966 452.13 C-91.935 452.125 -89.904 452.13 -87.873 452.137 C-75.98 452.145 -64.163 451.789 -52.5 449.312 C-52.082 449.225 -52.082 449.225 -49.968 448.784 C2.017 437.622 52.907 410.535 85 367 C85.843 365.908 86.686 364.817 87.531 363.727 C108.179 336.739 122.68 304.38 129 271 C129.125 270.36 129.25 269.719 129.379 269.059 C131.918 255.777 132.524 242.814 132.438 229.312 C132.434 228.302 132.431 227.292 132.428 226.251 C132.361 211.135 131.685 196.724 128 182 C127.786 181.091 127.571 180.181 127.351 179.245 C117.842 139.293 98.375 103.602 70 74 C69.497 73.47 68.995 72.94 68.477 72.395 C61.081 64.632 53.339 57.691 44.735 51.291 C43.605 50.45 42.479 49.603 41.358 48.748 C26.781 37.633 10.513 28.882 -6 21 C-2.688 2.688 -2.688 2.688 0 0 Z " fill="#164E5D" transform="translate(602,283)"/>
<path d="M0 0 C0.33 0.66 0.66 1.32 1 2 C0.158 4.281 -0.748 6.436 -1.762 8.641 C-2.063 9.311 -2.365 9.981 -2.676 10.671 C-3.67 12.869 -4.677 15.06 -5.688 17.25 C-5.859 17.624 -5.859 17.624 -6.725 19.514 C-20.859 50.319 -38.235 78.95 -60 105 C-60.408 105.492 -60.817 105.984 -61.237 106.49 C-73.667 121.413 -86.877 136.326 -101.645 148.98 C-103.427 150.509 -105.192 152.056 -106.949 153.613 C-128.944 172.989 -153.573 188.758 -179.25 202.75 C-180.244 203.293 -181.238 203.836 -182.261 204.396 C-196.304 211.979 -196.304 211.979 -202 214 C-202.66 213.67 -203.32 213.34 -204 213 C-203.654 212.775 -203.654 212.775 -201.902 211.637 C-185.367 200.766 -169.183 188.994 -154.695 175.484 C-152.583 173.538 -150.445 171.654 -148.27 169.781 C-143.509 165.629 -139.026 161.218 -134.562 156.75 C-134.142 156.329 -134.142 156.329 -132.014 154.199 C-127.055 149.191 -122.364 144.16 -118.031 138.598 C-115.612 135.504 -113.06 132.54 -110.5 129.562 C-106.963 125.438 -103.672 121.231 -100.5 116.812 C-93.844 107.812 -85.217 101.139 -76.562 94.156 C-73.476 91.559 -70.676 88.766 -67.871 85.871 C-66.11 84.11 -64.29 82.528 -62.375 80.938 C-52.163 72.136 -43.365 61.519 -35 51 C-34.118 49.942 -33.234 48.886 -32.348 47.832 C-25.958 40.152 -20.232 32.123 -14.688 23.812 C-14.03 22.827 -13.372 21.842 -12.695 20.827 C-8.211 14.025 -4.038 7.076 0 0 Z " fill="#F7FBFB" transform="translate(860,650)"/>
<path d="M0 0 C3.001 2.609 4.562 5.648 6.438 9.125 C25.397 43.268 55.11 77.364 86 101 C92.929 106.372 98.843 111.582 103.816 118.883 C110.699 128.708 118.668 137.845 126.816 146.633 C128.701 148.676 130.514 150.756 132.312 152.875 C139.96 161.638 148.29 169.685 157.406 176.902 C159.936 178.948 162.308 181.095 164.688 183.312 C174.395 192.129 185.212 199.689 196.216 206.791 C199.082 208.651 201.725 210.43 204 213 C200.253 212.395 197.252 211.319 193.859 209.629 C192.88 209.142 191.901 208.656 190.892 208.155 C189.855 207.629 188.818 207.104 187.75 206.562 C186.674 206.019 185.598 205.475 184.489 204.916 C152.84 188.778 124.103 168.031 98 144 C97.382 143.432 96.763 142.864 96.126 142.279 C94.016 140.337 91.914 138.388 89.812 136.438 C89.147 135.824 88.481 135.211 87.796 134.579 C83.806 130.855 80.13 126.981 76.579 122.837 C74.533 120.456 72.391 118.171 70.25 115.875 C64.469 109.52 59.198 102.835 54 96 C53.458 95.293 52.917 94.587 52.358 93.859 C43.078 81.714 34.793 69.144 27 56 C26.595 55.325 26.19 54.649 25.772 53.954 C17.913 40.799 11.493 26.863 5 13 C4.504 11.944 4.009 10.888 3.498 9.799 C3.04 8.81 2.582 7.82 2.109 6.801 C1.702 5.922 1.294 5.043 0.874 4.138 C0 2 0 2 0 0 Z " fill="#F6FBFB" transform="translate(163,650)"/>
<path d="M0 0 C0.33 0.66 0.66 1.32 1 2 C0.089 4.39 -0.886 6.662 -1.965 8.977 C-2.277 9.662 -2.589 10.347 -2.911 11.053 C-3.912 13.247 -4.925 15.436 -5.938 17.625 C-6.617 19.109 -7.296 20.593 -7.975 22.078 C-9.642 25.723 -11.318 29.362 -13 33 C-13.66 33 -14.32 33 -15 33 C-15 32.01 -15 31.02 -15 30 C-15.66 30 -16.32 30 -17 30 C-17.247 30.742 -17.495 31.485 -17.75 32.25 C-19.091 35.201 -20.609 36.848 -23 39 C-23.66 38.67 -24.32 38.34 -25 38 C-24.49 37.354 -23.979 36.708 -23.453 36.043 C-14.683 24.676 -7.032 12.511 0 0 Z " fill="#E5F3F4" transform="translate(860,650)"/>
<path d="M0 0 C0.66 0.33 1.32 0.66 2 1 C-7.9 10.9 -17.8 20.8 -28 31 C-28.66 30.67 -29.32 30.34 -30 30 C-9.621 7.983 -9.621 7.983 0 0 Z " fill="#DFEEF0" transform="translate(370,339)"/>
<path d="M0 0 C0.66 0.33 1.32 0.66 2 1 C-7.667 10.667 -17.333 20.333 -27 30 C-27.66 29.67 -28.32 29.34 -29 29 C-19.696 18.902 -10.266 9.124 0 0 Z " fill="#DBEBED" transform="translate(341,309)"/>
<path d="M0 0 C0.66 0.33 1.32 0.66 2 1 C-7.385 10.558 -7.385 10.558 -11.812 14.312 C-17.888 19.499 -23.395 25.318 -29 31 C-29 28 -29 28 -27.199 25.843 C-26.37 25.023 -25.541 24.204 -24.688 23.359 C-24.232 22.906 -24.232 22.906 -21.926 20.613 C-21.444 20.142 -20.963 19.671 -20.467 19.186 C-19.027 17.776 -17.597 16.355 -16.168 14.934 C-10.937 9.761 -5.617 4.752 0 0 Z " fill="#DFEFF1" transform="translate(314,277)"/>
<path d="M0 0 C1.327 3.982 -0.001 6.448 -1.438 10.188 C-1.68 10.842 -1.923 11.496 -2.174 12.17 C-2.774 13.783 -3.386 15.392 -4 17 C-4.33 16.01 -4.66 15.02 -5 14 C-5.33 13.67 -5.66 13.34 -6 13 C-7.32 14.98 -8.64 16.96 -10 19 C-11 16 -11 16 -10.104 14.191 C-9.638 13.536 -9.172 12.881 -8.691 12.207 C-8.192 11.495 -7.692 10.783 -7.178 10.049 C-6.645 9.311 -6.112 8.573 -5.562 7.812 C-5.033 7.063 -4.504 6.313 -3.959 5.541 C-2.648 3.687 -1.329 1.841 0 0 Z " fill="#254851" transform="translate(589,263)"/>
<path d="M0 0 C0 3 0 3 -1.355 4.613 C-1.96 5.174 -2.565 5.735 -3.188 6.312 C-5.461 8.481 -7.447 10.55 -9.438 13 C-12.637 16.745 -16.233 19.841 -20 23 C-20.66 22.67 -21.32 22.34 -22 22 C-14.74 14.74 -7.48 7.48 0 0 Z " fill="#1D4752" transform="translate(720,787)"/>
<path d="M0 0 C0.33 0.99 0.66 1.98 1 3 C-0.619 4.673 -2.245 6.338 -3.875 8 C-4.327 8.464 -4.327 8.464 -6.617 10.812 C-9 13 -9 13 -11 13 C-11.66 14.32 -12.32 15.64 -13 17 C-13.99 16.67 -14.98 16.34 -16 16 C-10.72 10.72 -5.44 5.44 0 0 Z " fill="#29535E" transform="translate(290,273)"/>
<path d="M0 0 C0.33 0.66 0.66 1.32 1 2 C1.99 2.33 2.98 2.66 4 3 C3.366 6.498 1.948 8.841 -0.062 11.75 C-0.61 12.549 -1.158 13.348 -1.723 14.172 C-2.144 14.775 -2.566 15.378 -3 16 C-4.572 12.857 -3.04 10.071 -2.062 6.875 C-1.867 6.216 -1.672 5.558 -1.471 4.879 C-0.987 3.251 -0.494 1.625 0 0 Z " fill="#3E5C63" transform="translate(435,759)"/>
<path d="M0 0 C0.33 0 0.66 0 1 0 C0.859 2.104 0.712 4.209 0.562 6.312 C0.481 7.484 0.4 8.656 0.316 9.863 C-0.21 15.08 -2.344 20.033 -4 25 C-5.12 21.637 -4.857 19.43 -4.004 16.016 C-3.775 15.081 -3.546 14.146 -3.311 13.184 C-3.064 12.216 -2.817 11.247 -2.562 10.25 C-2.441 9.758 -2.441 9.758 -1.826 7.27 C-1.226 4.844 -0.617 2.421 0 0 Z " fill="#D8EAEC" transform="translate(257,439)"/>
<path d="M0 0 C0 4.166 -2.255 6.263 -4.75 9.375 C-5.193 9.94 -5.637 10.504 -6.094 11.086 C-7.388 12.73 -8.692 14.366 -10 16 C-10.768 16.962 -11.537 17.923 -12.328 18.914 C-12.88 19.602 -13.432 20.291 -14 21 C-14.66 20.67 -15.32 20.34 -16 20 C-14.272 17.791 -12.543 15.583 -10.812 13.375 C-10.33 12.758 -9.847 12.14 -9.35 11.504 C-6.298 7.612 -3.185 3.784 0 0 Z " fill="#E0F0F2" transform="translate(280,311)"/>
<path d="M0 0 C0.33 0.66 0.66 1.32 1 2 C0.05 4.766 -0.971 7.384 -2.125 10.062 C-2.421 10.808 -2.718 11.554 -3.023 12.322 C-3.896 14.357 -4.73 16.186 -6 18 C-8.742 18.996 -8.742 18.996 -11 19 C-9.73 16.77 -8.459 14.541 -7.188 12.312 C-6.831 11.687 -6.475 11.061 -6.107 10.416 C-4.112 6.919 -2.087 3.444 0 0 Z " fill="#C6E3E8" transform="translate(860,650)"/>
<path d="M0 0 C2.854 -0.054 5.708 -0.094 8.562 -0.125 C9.362 -0.142 10.162 -0.159 10.986 -0.176 C16.065 -0.217 20.188 0.359 25 2 C25 2.33 25 2.66 25 3 C16.538 3.302 8.363 2.149 0 1 C0 0.67 0 0.34 0 0 Z " fill="#DCECEF" transform="translate(543,93)"/>
<path d="M0 0 C3.623 1.326 6.635 2.943 9.812 5.125 C10.603 5.664 11.393 6.203 12.207 6.758 C12.799 7.168 13.39 7.578 14 8 C11 9 11 9 8.082 7.785 C7.543 7.501 7.543 7.501 4.812 6.062 C3.726 5.497 2.639 4.931 1.52 4.348 C0.688 3.903 -0.143 3.458 -1 3 C-0.67 2.01 -0.34 1.02 0 0 Z " fill="#C7E4E8" transform="translate(353,854)"/>
<path d="M0 0 C0.99 0.33 1.98 0.66 3 1 C-1.62 5.62 -6.24 10.24 -11 15 C-11 10.684 -8.867 9.072 -6 6 C-5.34 6 -4.68 6 -4 6 C-3.67 5.01 -3.34 4.02 -3 3 C-2.34 3 -1.68 3 -1 3 C-0.67 2.01 -0.34 1.02 0 0 Z " fill="#EBFAFB" transform="translate(799,701)"/>
<path d="M0 0 C0.33 0.66 0.66 1.32 1 2 C0 5 0 5 -2.434 6.422 C-3.425 6.86 -4.416 7.298 -5.438 7.75 C-5.932 7.974 -5.932 7.974 -8.434 9.109 C-9.281 9.403 -10.127 9.697 -11 10 C-11.66 9.67 -12.32 9.34 -13 9 C-12.573 8.717 -12.573 8.717 -10.41 7.285 C-9.294 6.544 -8.178 5.803 -7.062 5.062 C-6.499 4.689 -5.935 4.316 -5.354 3.932 C-1.113 1.113 -1.113 1.113 0 0 Z " fill="#CAE7EA" transform="translate(669,854)"/>
<path d="M0 0 C0 3 0 3 -2.082 5.445 C-2.983 6.33 -3.884 7.214 -4.812 8.125 C-5.706 9.014 -6.599 9.904 -7.52 10.82 C-10 13 -10 13 -13 14 C-11.434 9.963 -8.558 7.529 -5.375 4.75 C-4.859 4.291 -4.344 3.832 -3.812 3.359 C-2.547 2.234 -1.274 1.116 0 0 Z " fill="#DDEEF0" transform="translate(791,737)"/>
<path d="M0 0 C0.99 0 1.98 0 3 0 C3 0.66 3 1.32 3 2 C3.66 2 4.32 2 5 2 C5 2.66 5 3.32 5 4 C5.598 4.268 6.196 4.536 6.812 4.812 C8.998 5.999 10.413 7.096 12 9 C12 9.66 12 10.32 12 11 C8.575 9.527 6.35 7.591 3.75 4.938 C3.044 4.225 2.337 3.512 1.609 2.777 C0 1 0 1 0 0 Z " fill="#DEEFF0" transform="translate(323,697)"/>
<path d="M0 0 C0.99 0.33 1.98 0.66 3 1 C1.881 2.173 0.755 3.338 -0.375 4.5 C-1.001 5.15 -1.628 5.799 -2.273 6.469 C-4 8 -4 8 -6 8 C-6.33 8.66 -6.66 9.32 -7 10 C-6.424 6.647 -5.407 5.062 -2.938 2.75 C-2.39 2.229 -1.842 1.708 -1.277 1.172 C-1.067 0.979 -1.067 0.979 0 0 Z " fill="#1D4A55" transform="translate(315,306)"/>
<path d="M0 0 C0 3 0 3 -1.531 4.824 C-2.181 5.439 -2.831 6.054 -3.5 6.688 C-4.15 7.31 -4.799 7.933 -5.469 8.574 C-5.974 9.045 -6.479 9.515 -7 10 C-7.99 9.34 -8.98 8.68 -10 8 C-6.7 5.36 -3.4 2.72 0 0 Z " fill="#E4F2F3" transform="translate(701,830)"/>
<path d="M0 0 C0.66 0.66 1.32 1.32 2 2 C0.573 3.676 -0.867 5.34 -2.312 7 C-2.713 7.464 -2.713 7.464 -4.738 9.812 C-7 12 -7 12 -10 12 C-9.362 11.301 -8.724 10.603 -8.066 9.883 C-7.24 8.973 -6.414 8.063 -5.562 7.125 C-4.739 6.22 -3.915 5.315 -3.066 4.383 C-1 2 -1 2 0 0 Z " fill="#DCEDEE" transform="translate(767,714)"/>
<path d="M0 0 C0.309 0.639 0.619 1.279 0.938 1.938 C2 4 2 4 3 5 C3.235 7.35 3.414 9.706 3.562 12.062 C3.646 13.353 3.73 14.643 3.816 15.973 C3.877 16.972 3.938 17.971 4 19 C3.67 19 3.34 19 3 19 C2.303 16.023 1.619 13.043 0.938 10.062 C0.738 9.212 0.539 8.362 0.334 7.486 C0.15 6.677 -0.033 5.869 -0.223 5.035 C-0.395 4.286 -0.568 3.537 -0.746 2.766 C-0.788 2.475 -0.788 2.475 -1 1 C-0.67 0.67 -0.34 0.34 0 0 Z " fill="#CADFE2" transform="translate(786,429)"/>
<path d="M0 0 C1.188 1.562 1.188 1.562 2 4 C0.688 7.5 0.688 7.5 -1 11 C-1.373 12.323 -1.73 13.652 -2 15 C-2.66 15 -3.32 15 -4 15 C-3.524 12.874 -3.044 10.749 -2.562 8.625 C-2.296 7.442 -2.029 6.258 -1.754 5.039 C-1 2 -1 2 0 0 Z " fill="#D4E7EA" transform="translate(417,762)"/>
<path d="M0 0 C0.66 0.33 1.32 0.66 2 1 C-1.63 4.63 -5.26 8.26 -9 12 C-9.33 11.01 -9.66 10.02 -10 9 C-6.7 6.03 -3.4 3.06 0 0 Z " fill="#EAF5F6" transform="translate(802,727)"/>
<path d="M0 0 C-1.382 3.21 -2.924 5.049 -5.625 7.25 C-5.941 7.51 -5.941 7.51 -7.539 8.828 C-8.021 9.215 -8.503 9.602 -9 10 C-9.66 9.67 -10.32 9.34 -11 9 C-9.548 7.494 -8.088 5.995 -6.625 4.5 C-6.219 4.082 -6.219 4.082 -4.164 1.969 C-2 0 -2 0 0 0 Z " fill="#325963" transform="translate(799,706)"/>
<path d="M0 0 C3.353 0.576 4.938 1.593 7.25 4.062 C7.51 4.336 7.51 4.336 8.828 5.723 C9.215 6.144 9.602 6.566 10 7 C9.67 7.99 9.34 8.98 9 10 C7.497 8.524 5.998 7.044 4.5 5.562 C3.665 4.739 2.829 3.915 1.969 3.066 C0 1 0 1 0 0 Z " fill="#D8E9EB" transform="translate(347,662)"/>
<path d="M0 0 C0.99 0.33 1.98 0.66 3 1 C-0.3 3.64 -3.6 6.28 -7 9 C-7.33 8.01 -7.66 7.02 -8 6 C-6.739 4.967 -5.466 3.949 -4.188 2.938 C-3.48 2.369 -2.772 1.801 -2.043 1.215 C-1.369 0.814 -0.695 0.413 0 0 Z " fill="#E1F2F3" transform="translate(737,813)"/>
<path d="M0 0 C2.97 0.99 5.94 1.98 9 3 C9 3.66 9 4.32 9 5 C10.65 5.33 12.3 5.66 14 6 C14 6.66 14 7.32 14 8 C8.765 6.56 4.37 4.183 0 1 C0 0.67 0 0.34 0 0 Z " fill="#D6E9EB" transform="translate(382,742)"/>
<path d="M0 0 C2.86 2.516 4.415 5.339 6.188 8.688 C6.717 9.681 7.247 10.675 7.793 11.699 C8.191 12.458 8.59 13.218 9 14 C8.01 14.33 7.02 14.66 6 15 C4.995 12.877 3.996 10.752 3 8.625 C2.443 7.442 1.886 6.258 1.312 5.039 C0 2 0 2 0 0 Z " fill="#B1D6DD" transform="translate(163,650)"/>
<path d="M0 0 C0.66 0 1.32 0 2 0 C0.443 4.671 -2.084 8.087 -5 12 C-5.33 10.68 -5.66 9.36 -6 8 C-5.34 8 -4.68 8 -4 8 C-3.928 7.691 -3.928 7.691 -3.562 6.125 C-3 4 -3 4 -2 2 C-1.34 2 -0.68 2 0 2 C0 1.34 0 0.68 0 0 Z " fill="#E0F1F3" transform="translate(523,355)"/>
<path d="M0 0 C4.973 0.497 8.638 1.553 13 4 C13 4.66 13 5.32 13 6 C8.528 4.582 4.289 2.887 0 1 C0 0.67 0 0.34 0 0 Z " fill="#DAEDF0" transform="translate(381,789)"/>
<path d="M0 0 C0.66 0 1.32 0 2 0 C0.636 2.992 -0.949 5.29 -3.125 7.75 C-3.394 8.057 -3.394 8.057 -4.758 9.609 C-5.168 10.068 -5.578 10.527 -6 11 C-6.66 10.34 -7.32 9.68 -8 9 C-7.049 7.827 -6.089 6.662 -5.125 5.5 C-4.858 5.175 -4.858 5.175 -3.508 3.531 C-3.259 3.279 -3.259 3.279 -2 2 C-1.34 2 -0.68 2 0 2 C0 1.34 0 0.68 0 0 Z " fill="#E0F1F3" transform="translate(795,757)"/>
<path d="M0 0 C5.94 0.33 11.88 0.66 18 1 C18 1.33 18 1.66 18 2 C15.939 2.223 13.876 2.428 11.812 2.625 C10.664 2.741 9.515 2.857 8.332 2.977 C4.967 3 2.988 2.474 0 1 C0 0.67 0 0.34 0 0 Z " fill="#C8DBDF" transform="translate(523,246)"/>
<path d="M0 0 C0.66 0.33 1.32 0.66 2 1 C-0.31 3.64 -2.62 6.28 -5 9 C-5.99 8.67 -6.98 8.34 -8 8 C-5.36 5.36 -2.72 2.72 0 0 Z " fill="#2E5661" transform="translate(737,720)"/>
<path d="M0 0 C0.66 0.33 1.32 0.66 2 1 C0.9 2.295 -0.205 3.586 -1.312 4.875 C-1.927 5.594 -2.542 6.314 -3.176 7.055 C-5 9 -5 9 -8 11 C-6.636 8.008 -5.051 5.71 -2.875 3.25 C-2.336 2.636 -1.797 2.023 -1.242 1.391 C-1.037 1.161 -1.037 1.161 0 0 Z " fill="#1F4B54" transform="translate(684,654)"/>
<path d="M0 0 C0.66 0.33 1.32 0.66 2 1 C-4.143 7.714 -4.143 7.714 -9 8 C-6.147 5.068 -3.349 2.357 0 0 Z " fill="#234F58" transform="translate(743,811)"/>
<path d="M0 0 C-0.875 6.75 -0.875 6.75 -2 9 C-2.66 9 -3.32 9 -4 9 C-4.368 3.48 -4.368 3.48 -2.562 1.125 C-1 0 -1 0 0 0 Z " fill="#EBF5F6" transform="translate(849,674)"/>
<path d="M0 0 C1.073 3.272 0.893 5.429 0.062 8.75 C-0.035 9.15 -0.035 9.15 -0.527 11.172 C-0.683 11.775 -0.839 12.378 -1 13 C-1.99 13 -2.98 13 -4 13 C-3.521 11.396 -3.042 9.792 -2.562 8.188 C-2.296 7.294 -2.029 6.401 -1.754 5.48 C-1.196 3.645 -0.607 1.82 0 0 Z " fill="#29535D" transform="translate(208,393)"/>
<path d="M0 0 C0.66 0 1.32 0 2 0 C0.434 4.308 -1.683 8.062 -4 12 C-4.944 9.461 -5.169 8.391 -4.074 5.859 C-3.617 5.163 -3.159 4.467 -2.688 3.75 C-2.238 3.044 -1.788 2.337 -1.324 1.609 C-0.887 1.078 -0.45 0.547 0 0 Z " fill="#DCEDEF" transform="translate(267,363)"/>
<path d="M0 0 C0 3.589 -0.664 4.109 -3 6.688 C-3.557 7.31 -4.114 7.933 -4.688 8.574 C-5.121 9.045 -5.554 9.515 -6 10 C-6.33 9.01 -6.66 8.02 -7 7 C-4.69 4.69 -2.38 2.38 0 0 Z " fill="#1B4753" transform="translate(709,689)"/>
<path d="M0 0 C0.33 0 0.66 0 1 0 C1.109 1.415 1.186 2.832 1.25 4.25 C1.296 5.039 1.343 5.828 1.391 6.641 C1 9 1 9 -3 13 C-2.01 8.71 -1.02 4.42 0 0 Z " fill="#CEE0E4" transform="translate(566,343)"/>
<path d="M0 0 C0.99 0.33 1.98 0.66 3 1 C1.02 2.98 -0.96 4.96 -3 7 C-3.99 6.67 -4.98 6.34 -6 6 C-4.02 4.02 -2.04 2.04 0 0 Z " fill="#2E5863" transform="translate(787,769)"/>
<path d="M0 0 C0.33 1.32 0.66 2.64 1 4 C-0.215 5.922 -0.215 5.922 -1.938 7.75 C-2.503 8.364 -3.069 8.977 -3.652 9.609 C-3.875 9.839 -3.875 9.839 -5 11 C-5.66 10.67 -6.32 10.34 -7 10 C-5.845 8.35 -5.845 8.35 0 0 Z " fill="#E0F0F2" transform="translate(846,756)"/>
<path d="M0 0 C0.66 0.33 1.32 0.66 2 1 C1.025 2.503 0.045 4.002 -0.938 5.5 C-1.483 6.335 -2.028 7.171 -2.59 8.031 C-3.055 8.681 -3.521 9.331 -4 10 C-4.33 10 -4.66 10 -5 10 C-5 8.35 -5 6.7 -5 5 C-4.01 5 -3.02 5 -2 5 C-1.928 4.68 -1.928 4.68 -1.562 3.062 C-1 1 -1 1 0 0 Z " fill="#E0F2F4" transform="translate(821,723)"/>
<path d="M0 0 C0.66 0.33 1.32 0.66 2 1 C0.02 3.97 -1.96 6.94 -4 10 C-5 6 -5 6 -4.004 4.297 C-2.669 2.865 -1.335 1.432 0 0 Z " fill="#DFF0F2" transform="translate(730,659)"/>
<path d="M0 0 C0.33 0.99 0.66 1.98 1 3 C-0.434 5.043 -0.434 5.043 -2.438 7.188 C-3.096 7.903 -3.755 8.618 -4.434 9.355 C-4.951 9.898 -5.467 10.441 -6 11 C-6 7.394 -5.183 6.587 -3 3.812 C-2.443 3.097 -1.886 2.382 -1.312 1.645 C-0.879 1.102 -0.446 0.559 0 0 Z " fill="#DDEDEF" transform="translate(712,654)"/>
<path d="M0 0 C1.32 0.33 2.64 0.66 4 1 C4 1.66 4 2.32 4 3 C5.32 3.66 6.64 4.32 8 5 C7.67 5.99 7.34 6.98 7 8 C5.83 6.857 4.664 5.711 3.5 4.562 C2.85 3.924 2.201 3.286 1.531 2.629 C0 1 0 1 0 0 Z " fill="#CCDEE0" transform="translate(246,779)"/>
<path d="M0 0 C0.66 0.99 1.32 1.98 2 3 C0.35 4.65 -1.3 6.3 -3 8 C-3.99 7.67 -4.98 7.34 -6 7 C-4.02 4.69 -2.04 2.38 0 0 Z " fill="#2A5560" transform="translate(810,691)"/>
<path d="M0 0 C0.66 0.33 1.32 0.66 2 1 C-0.31 3.97 -2.62 6.94 -5 10 C-5.33 9.01 -5.66 8.02 -6 7 C-4.785 5.176 -4.785 5.176 -3.062 3.312 C-2.497 2.69 -1.931 2.067 -1.348 1.426 C-0.903 0.955 -0.458 0.485 0 0 Z " fill="#E4F4F5" transform="translate(759,691)"/>
<path d="M0 0 C-1.455 0.838 -2.914 1.671 -4.375 2.5 C-4.781 2.732 -4.781 2.732 -6.836 3.906 C-9 5 -9 5 -11 5 C-11 4.34 -11 3.68 -11 3 C-4.036 -1.42 -4.036 -1.42 0 0 Z " fill="#DCEEF0" transform="translate(357,226)"/>
<path d="M0 0 C-1.293 2.884 -2.659 4.872 -5 7 C-5.99 6.67 -6.98 6.34 -8 6 C-7.048 4.994 -6.088 3.995 -5.125 3 C-4.591 2.443 -4.058 1.886 -3.508 1.312 C-2 0 -2 0 0 0 Z " fill="#315962" transform="translate(234,205)"/>
<path d="M0 0 C1.149 0.954 2.294 1.914 3.438 2.875 C4.076 3.409 4.714 3.942 5.371 4.492 C7 6 7 6 8 8 C6.68 7.67 5.36 7.34 4 7 C4 6.34 4 5.68 4 5 C3.34 5 2.68 5 2 5 C2 4.34 2 3.68 2 3 C1.34 3 0.68 3 0 3 C0 2.01 0 1.02 0 0 Z " fill="#E7F9FB" transform="translate(301,810)"/>
<path d="M0 0 C0.66 0.33 1.32 0.66 2 1 C1.01 2.32 1.01 2.32 -4 9 C-4.66 8.34 -5.32 7.68 -6 7 C-5.67 6.34 -5.34 5.68 -5 5 C-4.34 5 -3.68 5 -3 5 C-3 4.34 -3 3.68 -3 3 C-2.34 3 -1.68 3 -1 3 C-0.67 2.01 -0.34 1.02 0 0 Z " fill="#E0F2F3" transform="translate(822,674)"/>
<path d="M0 0 C0.33 0 0.66 0 1 0 C1.143 8.571 1.143 8.571 0 12 C-0.66 12 -1.32 12 -2 12 C-2.263 7.668 -1.292 4.12 0 0 Z " fill="#16444F" transform="translate(833,557)"/>
<path d="M0 0 C3.719 0.507 6.735 1.116 10 3 C10 3.66 10 4.32 10 5 C6.088 3.844 3.125 2.645 0 0 Z " fill="#DDEEF1" transform="translate(648,215)"/>
<path d="M0 0 C0.99 0.33 1.98 0.66 3 1 C1.35 2.65 -0.3 4.3 -2 6 C-2.99 5.67 -3.98 5.34 -5 5 C-3.35 3.35 -1.7 1.7 0 0 Z " fill="#DEEEF0" transform="translate(718,736)"/>
<path d="M0 0 C0.66 0.33 1.32 0.66 2 1 C0.88 2.006 -0.246 3.005 -1.375 4 C-2.001 4.557 -2.628 5.114 -3.273 5.688 C-5 7 -5 7 -7 7 C-7 6.34 -7 5.68 -7 5 C-5.469 3.711 -5.469 3.711 -3.5 2.375 C-2.85 1.929 -2.201 1.483 -1.531 1.023 C-1.026 0.686 -0.521 0.348 0 0 Z " fill="#E0F0F2" transform="translate(654,712)"/>
<path d="M0 0 C0 3 0 3 -2.5 5.688 C-3.325 6.451 -4.15 7.214 -5 8 C-5.66 7.67 -6.32 7.34 -7 7 C-4.69 4.69 -2.38 2.38 0 0 Z " fill="#2C535E" transform="translate(701,697)"/>
<path d="M0 0 C1.138 4.55 0.428 6.631 -1 11 C-1.66 11 -2.32 11 -3 11 C-2.01 7.37 -1.02 3.74 0 0 Z " fill="#C6DDDF" transform="translate(747,582)"/>
<path d="M0 0 C0.33 0 0.66 0 1 0 C1.369 7.508 1.369 7.508 -0.5 10 C-0.995 10.33 -1.49 10.66 -2 11 C-1.125 3.375 -1.125 3.375 0 0 Z " fill="#C6D9DD" transform="translate(546,412)"/>
<path d="M0 0 C0.99 0.33 1.98 0.66 3 1 C1.02 2.98 -0.96 4.96 -3 7 C-3.66 6.67 -4.32 6.34 -5 6 C-3.35 4.02 -1.7 2.04 0 0 Z " fill="#29535D" transform="translate(339,337)"/>
<path d="M0 0 C0 0.99 0 1.98 0 3 C-2.5 5.188 -2.5 5.188 -5 7 C-5.66 6.67 -6.32 6.34 -7 6 C-4.69 4.02 -2.38 2.04 0 0 Z " fill="#28515B" transform="translate(323,299)"/>
<path d="M0 0 C0.33 0.66 0.66 1.32 1 2 C1.99 2.33 2.98 2.66 4 3 C3.67 4.32 3.34 5.64 3 7 C2.01 6.67 1.02 6.34 0 6 C0 4.02 0 2.04 0 0 Z " fill="#2B5862" transform="translate(435,759)"/>
<path d="M0 0 C2.041 1.616 4.041 3.286 6 5 C6 5.66 6 6.32 6 7 C3.532 5.848 1.952 4.952 0 3 C0 2.01 0 1.02 0 0 Z " fill="#DDEEF0" transform="translate(295,755)"/>
<path d="M0 0 C0.99 0.33 1.98 0.66 3 1 C2.01 1.825 2.01 1.825 -3 6 C-3 3 -3 3 -1.5 1.312 C-1.253 1.096 -1.253 1.096 0 0 Z " fill="#1D4A56" transform="translate(742,715)"/>
<path d="M0 0 C0 0.99 0 1.98 0 3 C-1.75 4.062 -1.75 4.062 -4 5 C-5.32 4.67 -6.64 4.34 -8 4 C-5.36 2.68 -2.72 1.36 0 0 Z " fill="#2A545F" transform="translate(624,705)"/>
<path d="M0 0 C0.66 0 1.32 0 2 0 C0.707 2.884 -0.659 4.872 -3 7 C-3.66 6.67 -4.32 6.34 -5 6 C-3.384 3.959 -1.714 1.959 0 0 Z " fill="#DBEBEE" transform="translate(840,682)"/>
<path d="M0 0 C3.735 0.498 5.812 0.875 9 3 C9 3.66 9 4.32 9 5 C5.541 3.751 2.853 2.325 0 0 Z " fill="#DDEEF1" transform="translate(641,257)"/>
<path d="M0 0 C0 0.99 0 1.98 0 3 C-1.75 4.062 -1.75 4.062 -4 5 C-5.32 4.67 -6.64 4.34 -8 4 C-5.36 2.68 -2.72 1.36 0 0 Z " fill="#315863" transform="translate(387,255)"/>
</svg>
