<?xml version="1.0" encoding="UTF-8"?>
<!-- Generator: visioncortex VTracer 0.6.12 -->
<svg version="1.1" xmlns="http://www.w3.org/2000/svg" width="1024" height="1024">
<path d="M0 0 C337.92 0 675.84 0 1024 0 C1024 337.92 1024 675.84 1024 1024 C686.08 1024 348.16 1024 0 1024 C0 686.08 0 348.16 0 0 Z " fill="#FEFEFE" transform="translate(0,0)"/>
<path d="M0 0 C20.711 15.692 35.066 37.51 39.57 63.292 C40.345 69.229 40.366 75.161 40.358 81.14 C40.357 81.802 40.357 82.463 40.357 83.145 C40.324 93.573 39.512 102.629 35.983 112.453 C35.62 113.558 35.258 114.662 34.885 115.801 C30.273 128.919 23.225 140.127 13.983 150.453 C13.444 151.074 12.905 151.696 12.35 152.336 C2.689 162.774 -10.194 169.709 -23.017 175.453 C-23.949 175.874 -24.881 176.296 -25.842 176.73 C-50.01 186.538 -80.865 185.09 -104.892 175.703 C-129.74 164.919 -150.068 146.835 -160.892 121.578 C-171.07 93.307 -171.2 63.678 -158.49 36.144 C-146.413 12.473 -125.9 -5.9 -100.608 -14.352 C-67.119 -24.724 -28.777 -21.063 0 0 Z " fill="#12BE93" transform="translate(694.017333984375,430.547119140625)"/>
<path d="M0 0 C13.53 0 27.06 0 41 0 C53.405 15.788 53.405 15.788 59 23 C65.428 31.274 71.893 39.519 78.378 47.749 C83.63 54.413 88.857 61.094 94.022 67.827 C102.636 79.048 111.343 90.198 120.109 101.301 C124.439 106.842 128.713 112.426 133 118 C133.33 79.06 133.66 40.12 134 0 C148.85 0 163.7 0 179 0 C179 64.68 179 129.36 179 196 C139 196 139 196 130.812 189.062 C129.559 186.846 128.305 184.625 127.208 182.327 C125.083 178.232 122.121 174.779 119.25 171.188 C118.156 169.753 117.064 168.315 115.977 166.875 C113.594 163.753 111.142 160.704 108.625 157.688 C104.483 152.695 100.619 147.517 96.75 142.312 C91.56 135.334 86.235 128.512 80.706 121.8 C76.464 116.629 72.443 111.316 68.459 105.944 C64.074 100.048 59.506 94.312 54.887 88.598 C51.546 84.434 48.277 80.214 45 76 C44.67 115.6 44.34 155.2 44 196 C29.48 196 14.96 196 0 196 C0 131.32 0 66.64 0 0 Z " fill="#14BE93" transform="translate(759,414)"/>
<path d="M0 0 C49.17 0 98.34 0 149 0 C149 12.87 149 25.74 149 39 C114.68 39 80.36 39 45 39 C45 51.87 45 64.74 45 78 C75.36 78 105.72 78 137 78 C137 90.54 137 103.08 137 116 C106.64 116 76.28 116 45 116 C45 129.53 45 143.06 45 157 C80.31 157 115.62 157 152 157 C152 169.87 152 182.74 152 196 C101.84 196 51.68 196 0 196 C0 131.32 0 66.64 0 0 Z " fill="#11BE93" transform="translate(86,414)"/>
<path d="M0 0 C15.51 0 31.02 0 47 0 C49.951 6.492 52.8 12.793 55.242 19.453 C55.527 20.219 55.812 20.984 56.105 21.773 C56.715 23.412 57.323 25.052 57.929 26.692 C59.576 31.147 61.238 35.597 62.898 40.047 C63.069 40.504 63.069 40.504 63.931 42.817 C67.09 51.27 70.323 59.693 73.576 68.11 C78.893 81.867 84.167 95.64 89.365 109.443 C90.033 111.216 90.702 112.989 91.373 114.761 C92.302 117.217 93.226 119.675 94.148 122.133 C94.424 122.858 94.699 123.583 94.983 124.33 C96.301 127.862 97.403 131.274 98 135 C98.66 135 99.32 135 100 135 C100.108 134.168 100.217 133.337 100.328 132.48 C101.081 128.581 102.333 125.011 103.746 121.316 C103.887 120.941 103.887 120.941 104.602 119.041 C105.541 116.546 106.489 114.054 107.438 111.562 C108.109 109.785 108.78 108.008 109.451 106.23 C115.335 90.665 121.301 75.131 127.267 59.597 C133.089 44.43 138.819 29.23 144.494 14.008 C144.793 13.208 145.091 12.409 145.398 11.585 C145.953 10.099 146.507 8.612 147.059 7.125 C148.888 2.223 148.888 2.223 150 0 C165.51 0 181.02 0 197 0 C196.268 3.66 195.548 6.443 194.197 9.83 C194.011 10.3 194.011 10.3 193.068 12.677 C192.661 13.69 192.255 14.703 191.836 15.746 C191.412 16.813 190.988 17.879 190.551 18.978 C189.163 22.466 187.769 25.952 186.375 29.438 C185.413 31.852 184.452 34.267 183.49 36.682 C181.563 41.526 179.633 46.368 177.703 51.211 C174.397 59.508 171.12 67.816 167.848 76.126 C162.791 88.967 157.694 101.791 152.556 114.599 C148.502 124.719 144.497 134.858 140.5 145 C135.733 157.093 130.95 169.18 126.125 181.25 C125.868 181.894 125.611 182.539 125.345 183.203 C124.63 184.995 123.913 186.787 123.195 188.578 C122.793 189.583 122.391 190.587 121.977 191.622 C121 194 121 194 120 196 C105.81 196 91.62 196 77 196 C75.247 191.793 73.494 187.585 71.688 183.25 C71.161 181.991 70.635 180.732 70.093 179.435 C66.115 169.852 62.313 160.204 58.529 150.543 C54.842 141.131 51.125 131.73 47.391 122.336 C47.105 121.618 46.82 120.901 46.526 120.161 C44.743 115.673 42.958 111.186 41.174 106.698 C38.633 100.31 36.095 93.921 33.556 87.532 C32.912 85.913 32.269 84.294 31.625 82.675 C24.033 63.573 16.456 44.465 8.882 25.357 C8.428 24.212 7.974 23.068 7.507 21.888 C6.669 19.774 5.831 17.66 4.993 15.546 C4.809 15.082 4.809 15.082 3.878 12.733 C3.561 11.934 3.245 11.135 2.919 10.312 C2.263 8.662 1.582 7.023 0.883 5.392 C0 3 0 3 0 0 Z " fill="#13BE93" transform="translate(245,414)"/>
<path d="M0 0 C3.616 2.759 6.834 5.74 10 9 C10.561 9.54 11.121 10.08 11.699 10.637 C22.413 21.8 26.479 37.752 26.284 52.783 C25.726 71.453 18.774 87.268 5.184 100.223 C-8.28 111.181 -25.177 114.021 -42 113 C-57.377 111.03 -70.587 102.11 -80.25 90.25 C-90.928 75.142 -93.701 57.648 -91.609 39.637 C-88.427 23.256 -79.883 9.575 -66.201 0.16 C-46.027 -12.972 -20.263 -12.374 0 0 Z " fill="#FBFEFD" transform="translate(663,460)"/>
<path d="M0 0 C14.52 0 29.04 0 44 0 C44 64.68 44 129.36 44 196 C29.48 196 14.96 196 0 196 C0 131.32 0 66.64 0 0 Z " fill="#12BD93" transform="translate(457,414)"/>
<path d="M0 0 C1.498 3.964 0.567 7.589 -0.215 11.609 C-0.349 12.336 -0.484 13.063 -0.623 13.812 C-1.053 16.126 -1.495 18.438 -1.938 20.75 C-2.232 22.321 -2.526 23.893 -2.818 25.465 C-3.535 29.312 -4.268 33.156 -5 37 C3.58 37 12.16 37 21 37 C16.949 43.605 12.669 49.86 7.9 55.959 C3.062 62.162 -1.468 68.572 -6 75 C-7.099 76.555 -8.198 78.109 -9.297 79.664 C-12.201 83.774 -15.101 87.886 -18 92 C-19.358 88.189 -18.712 85.085 -18.039 81.152 C-17.929 80.499 -17.819 79.846 -17.706 79.173 C-17.472 77.797 -17.235 76.421 -16.994 75.046 C-16.626 72.943 -16.269 70.838 -15.914 68.732 C-14.17 58.509 -14.17 58.509 -13 55 C-21.58 55 -30.16 55 -39 55 C-34.499 47.123 -34.499 47.123 -32.258 44.047 C-31.756 43.355 -31.254 42.663 -30.737 41.949 C-30.205 41.224 -29.673 40.498 -29.125 39.75 C-28.563 38.977 -28 38.204 -27.421 37.408 C-22.042 30.026 -16.618 22.676 -11.191 15.328 C-7.434 10.238 -3.709 5.125 0 0 Z " fill="#15BC91" transform="translate(639,466)"/>
<path d="M0 0 C49.17 0 98.34 0 149 0 C149 12.87 149 25.74 149 39 C114.68 39 80.36 39 45 39 C45 38.67 45 38.34 45 38 C78.99 38 112.98 38 148 38 C148 25.79 148 13.58 148 1 C99.82 1 51.64 1 2 1 C2.33 64.69 2.66 128.38 3 194 C27.42 194.165 27.42 194.165 151 195 C151 182.79 151 170.58 151 158 C115.69 158 80.38 158 44 158 C44 144.14 44 130.28 44 116 C44.33 116 44.66 116 45 116 C45 129.53 45 143.06 45 157 C80.31 157 115.62 157 152 157 C152 169.87 152 182.74 152 196 C101.84 196 51.68 196 0 196 C0 131.32 0 66.64 0 0 Z " fill="#5BC6AB" transform="translate(86,414)"/>
<path d="M0 0 C13.53 0 27.06 0 41 0 C41 0.66 41 1.32 41 2 C28.13 2 15.26 2 2 2 C2 65.36 2 128.72 2 194 C15.2 194 28.4 194 42 194 C41.995 190.436 41.99 186.872 41.984 183.2 C41.968 171.449 41.956 159.698 41.948 147.948 C41.943 140.82 41.936 133.693 41.925 126.566 C41.914 119.693 41.908 112.82 41.905 105.947 C41.903 103.32 41.9 100.692 41.894 98.065 C41.887 94.396 41.886 90.728 41.886 87.059 C41.883 85.963 41.879 84.867 41.876 83.737 C41.877 82.742 41.878 81.746 41.88 80.72 C41.879 79.852 41.878 78.984 41.877 78.089 C42 76 42 76 43 74 C43.33 74.165 43.33 74.165 45 75 C44.67 114.93 44.34 154.86 44 196 C29.48 196 14.96 196 0 196 C0 131.32 0 66.64 0 0 Z " fill="#28B391" transform="translate(759,414)"/>
<path d="M0 0 C1.32 0.99 2.64 1.98 4 3 C4 3.66 4 4.32 4 5 C3.34 5 2.68 5 2 5 C2 43.28 2 81.56 2 121 C1.34 121 0.68 121 0 121 C0 81.07 0 41.14 0 0 Z " fill="#D3FEF6" transform="translate(803,489)"/>
<path d="M0 0 C0.33 0 0.66 0 1 0 C1 39.27 1 78.54 1 119 C-2.287 115.713 -5.048 112.82 -7.812 109.188 C-8.115 108.792 -8.115 108.792 -9.645 106.793 C-10.092 106.201 -10.539 105.61 -11 105 C-10.67 104.835 -10.67 104.835 -9 104 C-9 104.66 -9 105.32 -9 106 C-7.68 106.66 -6.36 107.32 -5 108 C-5 108.99 -5 109.98 -5 111 C-4.34 111 -3.68 111 -3 111 C-3 111.66 -3 112.32 -3 113 C-2.34 113 -1.68 113 -1 113 C-1.002 112.396 -1.004 111.791 -1.007 111.168 C-1.136 74.094 -0.829 37.066 0 0 Z " fill="#E9FEFD" transform="translate(892,414)"/>
<path d="M0 0 C15.51 0 31.02 0 47 0 C46 5 46 5 44 7 C44 5.35 44 3.7 44 2 C29.48 2.33 14.96 2.66 0 3 C0 2.01 0 1.02 0 0 Z " fill="#37BA99" transform="translate(395,414)"/>
<path d="M0 0 C15.51 0 31.02 0 47 0 C47.66 1.98 48.32 3.96 49 6 C48.599 5.514 48.198 5.028 47.785 4.527 C45.528 2.597 44.377 2.608 41.437 2.568 C40.516 2.548 39.595 2.528 38.647 2.508 C37.656 2.501 36.665 2.495 35.645 2.488 C35.136 2.479 35.136 2.479 32.563 2.434 C29.313 2.38 26.063 2.346 22.812 2.312 C20.61 2.279 18.408 2.245 16.205 2.209 C10.804 2.124 5.402 2.056 0 2 C0 1.34 0 0.68 0 0 Z " fill="#36BA99" transform="translate(245,414)"/>
<path d="M0 0 C-5.17 2.162 -9.623 3.386 -15.215 3.789 C-17 4 -17 4 -18 5 C-22.14 5.253 -26.291 5.185 -30.438 5.188 C-31.609 5.2 -32.78 5.212 -33.986 5.225 C-35.103 5.227 -36.22 5.228 -37.371 5.23 C-38.402 5.235 -39.432 5.239 -40.494 5.243 C-43 5 -43 5 -45 3 C-44.337 2.985 -43.674 2.971 -42.991 2.956 C-30.955 2.662 -19.144 2.274 -7.309 -0.072 C-2.169 -1.085 -2.169 -1.085 0 0 Z " fill="#DBFCF8" transform="translate(662,610)"/>
<path d="M0 0 C5.399 8.099 4.336 19.52 4.312 28.875 C4.329 30.147 4.345 31.42 4.361 32.73 C4.366 41.208 3.279 48.836 1 57 C0.67 57 0.34 57 0 57 C0.141 54.375 0.287 51.75 0.438 49.125 C0.477 48.379 0.516 47.632 0.557 46.863 C0.887 41.227 0.887 41.227 2 39 C2.096 37.356 2.131 35.709 2.133 34.062 C2.134 33.085 2.135 32.108 2.137 31.102 C2.133 30.078 2.129 29.055 2.125 28 C2.129 26.976 2.133 25.953 2.137 24.898 C2.135 23.921 2.134 22.944 2.133 21.938 C2.132 21.039 2.131 20.141 2.129 19.215 C2 17 2 17 1 15 C0.768 12.454 0.581 9.926 0.438 7.375 C0.394 6.669 0.351 5.962 0.307 5.234 C0.201 3.49 0.1 1.745 0 0 Z " fill="#36B797" transform="translate(730,483)"/>
<path d="M0 0 C0.51 0.001 0.51 0.001 3.092 0.006 C4.151 0.018 5.21 0.03 6.301 0.043 C6.836 0.043 6.836 0.043 9.545 0.045 C17.473 0.09 17.473 0.09 18.613 1.23 C21.585 1.477 24.556 1.615 27.535 1.754 C30.877 2.271 32.855 3.32 35.613 5.23 C32.572 6.751 29.814 5.537 26.613 4.855 C14.743 2.508 2.675 2.482 -9.387 2.23 C-6.146 0.31 -3.745 -0.016 0 0 Z " fill="#D6FAF5" transform="translate(624.38671875,408.76953125)"/>
<path d="M0 0 C1.458 3.929 0.595 7.141 -0.215 11.172 C-0.349 11.854 -0.484 12.537 -0.623 13.24 C-1.053 15.412 -1.495 17.581 -1.938 19.75 C-2.232 21.225 -2.526 22.7 -2.818 24.176 C-3.537 27.786 -4.265 31.393 -5 35 C-5.33 35 -5.66 35 -6 35 C-6.027 33.188 -6.046 31.375 -6.062 29.562 C-6.074 28.553 -6.086 27.544 -6.098 26.504 C-6 24 -6 24 -5 23 C-4.601 21.239 -4.255 19.465 -3.938 17.688 C-3.761 16.722 -3.584 15.756 -3.402 14.762 C-3 12 -3 12 -3 8 C-3.33 8.99 -3.66 9.98 -4 11 C-6.062 11.688 -6.062 11.688 -8 12 C-6.856 10.187 -5.71 8.374 -4.562 6.562 C-4.243 6.058 -4.243 6.058 -2.629 3.504 C-1 1 -1 1 0 0 Z " fill="#2EB392" transform="translate(639,466)"/>
<path d="M0 0 C4.455 0.165 4.455 0.165 27 1 C26.34 6.28 25.68 11.56 25 17 C24.67 17 24.34 17 24 17 C23.914 12.001 24.163 8.024 25 3 C17.08 3 9.16 3 1 3 C0.67 2.01 0.34 1.02 0 0 Z " fill="#BEF3E9" transform="translate(599,520)"/>
<path d="M0 0 C-3.621 4.156 -7.696 4.428 -13 5 C-15.897 5.163 -18.787 5.226 -21.688 5.25 C-22.4 5.259 -23.112 5.269 -23.846 5.278 C-28.58 5.25 -32.503 4.485 -37 3 C-37 2.67 -37 2.34 -37 2 C-36.366 2.016 -35.732 2.031 -35.079 2.048 C-13.034 2.522 -13.034 2.522 -4.012 -0.441 C-2 -1 -2 -1 0 0 Z " fill="#27B18F" transform="translate(652,570)"/>
<path d="M0 0 C0 0.33 0 0.66 0 1 C-0.299 0.992 -0.299 0.992 -1.813 0.952 C-24.736 0.431 -24.736 0.431 -35 4 C-35.33 4.33 -35.66 4.66 -36 5 C-37.666 5.041 -39.334 5.043 -41 5 C-31.639 -4.361 -11.915 -1.954 0 0 Z " fill="#CCF7F0" transform="translate(645,452)"/>
<path d="M0 0 C0.66 0 1.32 0 2 0 C-0.364 8.577 -3.499 16.831 -6.688 25.125 C-7.204 26.476 -7.72 27.828 -8.236 29.18 C-9.487 32.455 -10.742 35.728 -12 39 C-12.878 35.903 -12.994 34.094 -12 31 C-11.34 31 -10.68 31 -10 31 C-10.082 30.175 -10.165 29.35 -10.25 28.5 C-10.015 25.204 -9.693 24.1 -8.188 21.344 C-5.942 17.021 -4.314 12.606 -2.75 8 C-2.482 7.225 -2.214 6.451 -1.938 5.652 C-1.287 3.77 -0.643 1.885 0 0 Z " fill="#DCFDF8" transform="translate(363,493)"/>
<path d="M0 0 C1.356 2.712 0.598 4.032 0 7 C-0.119 9.555 -0.191 12.07 -0.188 14.625 C-0.187 15.331 -0.186 16.038 -0.185 16.766 C-0.117 22.673 0.625 28.249 2 34 C2.191 34.808 2.382 35.616 2.578 36.449 C3.031 38.305 3.512 40.153 4 42 C0.257 39.504 0.297 38.432 -0.625 34.125 C-1.83 27.936 -2.481 21.791 -2.875 15.5 C-2.936 14.652 -2.998 13.804 -3.061 12.93 C-3.309 7.781 -2.823 4.506 0 0 Z " fill="#38B396" transform="translate(572,496)"/>
<path d="M0 0 C0.33 0 0.66 0 1 0 C1.332 9.797 0.995 22.268 -4 31 C-6.102 32.238 -6.102 32.238 -8 33 C-7.59 31.958 -7.18 30.917 -6.758 29.844 C-2.974 19.897 -0.828 10.603 0 0 Z " fill="#37B798" transform="translate(689,511)"/>
<path d="M0 0 C1.32 0 2.64 0 4 0 C4.027 1.812 4.046 3.625 4.062 5.438 C4.074 6.447 4.086 7.456 4.098 8.496 C4 11 4 11 3 12 C2.757 14.516 2.616 17.031 2.477 19.555 C1.935 22.334 1.168 23.25 -1 25 C-0.204 17.302 0.878 9.656 2 2 C0.68 3.32 -0.64 4.64 -2 6 C-2 5.01 -2 4.02 -2 3 C-1.34 3 -0.68 3 0 3 C0 2.01 0 1.02 0 0 Z " fill="#D8FAF5" transform="translate(637,465)"/>
<path d="M0 0 C0.99 0.33 1.98 0.66 3 1 C5.802 1.154 8.583 1.257 11.387 1.316 C11.795 1.327 11.795 1.327 13.863 1.379 C16.471 1.445 19.079 1.504 21.688 1.562 C23.456 1.606 25.225 1.649 26.994 1.693 C31.329 1.8 35.665 1.902 40 2 C40 2.33 40 2.66 40 3 C27.13 3 14.26 3 1 3 C0.67 2.01 0.34 1.02 0 0 Z " fill="#19B48D" transform="translate(896,606)"/>
<path d="M0 0 C3.686 3.213 5.357 6.458 7.25 10.938 C7.771 12.143 8.292 13.348 8.828 14.59 C9.895 17.696 10.27 19.766 10 23 C9.34 23 8.68 23 8 23 C8 20.69 8 18.38 8 16 C7.34 16 6.68 16 6 16 C5.567 14.804 5.134 13.608 4.688 12.375 C3.683 9.678 2.605 7.211 1.312 4.625 C0 2 0 2 0 0 Z " fill="#D1F9F3" transform="translate(677,475)"/>
<path d="M0 0 C0.66 0 1.32 0 2 0 C6.076 8.473 9.235 16.752 11 26 C8.682 23.145 7.245 20.489 5.957 17.051 C5.606 16.121 5.254 15.191 4.893 14.232 C4.536 13.269 4.18 12.305 3.812 11.312 C3.444 10.337 3.076 9.362 2.697 8.357 C0 1.166 0 1.166 0 0 Z " fill="#31B393" transform="translate(290,529)"/>
<path d="M0 0 C0.33 0 0.66 0 1 0 C0.939 0.623 0.879 1.245 0.816 1.887 C-0.122 12.24 -0.546 22.616 -1 33 C-1.33 33 -1.66 33 -2 33 C-2.058 28.438 -2.094 23.875 -2.125 19.312 C-2.142 18.019 -2.159 16.725 -2.176 15.393 C-2.182 14.145 -2.189 12.898 -2.195 11.613 C-2.206 10.466 -2.216 9.32 -2.227 8.138 C-2.001 5.008 -1.335 2.819 0 0 Z " fill="#CFFAF2" transform="translate(527,487)"/>
<path d="M0 0 C0.33 0 0.66 0 1 0 C1.282 5.54 1.22 8.349 -2 13 C-2.542 14.241 -3.062 15.492 -3.562 16.75 C-5 20 -5 20 -7 21 C-4.962 13.882 -2.597 6.933 0 0 Z " fill="#3BB999" transform="translate(356,516)"/>
<path d="M0 0 C0.33 0 0.66 0 1 0 C0.73 7.354 -0.269 12.622 -4 19 C-4.66 19 -5.32 19 -6 19 C-4.123 12.623 -2.143 6.293 0 0 Z " fill="#D0F8F1" transform="translate(731,537)"/>
<path d="M0 0 C1.456 4.521 0.27 7.516 -1 12 C-1.66 10.68 -2.32 9.36 -3 8 C-3.33 8.99 -3.66 9.98 -4 11 C-6.062 11.688 -6.062 11.688 -8 12 C-6.856 10.187 -5.71 8.374 -4.562 6.562 C-4.243 6.058 -4.243 6.058 -2.629 3.504 C-1 1 -1 1 0 0 Z " fill="#29B08E" transform="translate(639,466)"/>
<path d="M0 0 C2.36 3.541 3.698 7.098 5.188 11.062 C5.473 11.795 5.759 12.528 6.053 13.283 C6.764 15.167 7.388 17.082 8 19 C7.67 19.66 7.34 20.32 7 21 C2.895 14.488 0 7.794 0 0 Z " fill="#3FB89B" transform="translate(304,446)"/>
<path d="M0 0 C0.66 0 1.32 0 2 0 C1.368 5.053 -0.135 9.296 -2 14 C-2.66 14 -3.32 14 -4 14 C-6.125 9.375 -6.125 9.375 -5 6 C-4.67 7.32 -4.34 8.64 -4 10 C-3.34 10 -2.68 10 -2 10 C-1.34 6.7 -0.68 3.4 0 0 Z " fill="#D3FCF6" transform="translate(347,535)"/>
<path d="M0 0 C0.33 0 0.66 0 1 0 C0.919 3.272 0.806 6.542 0.688 9.812 C0.665 10.741 0.642 11.67 0.619 12.627 C0.584 13.52 0.548 14.412 0.512 15.332 C0.486 16.154 0.459 16.976 0.432 17.823 C-0.085 20.426 -0.982 21.339 -3 23 C-2.688 20.479 -2.376 17.958 -2.062 15.438 C-1.975 14.733 -1.888 14.029 -1.799 13.303 C-1.246 8.861 -0.646 4.429 0 0 Z " fill="#3FB99A" transform="translate(625,524)"/>
<path d="M0 0 C0.66 0.33 1.32 0.66 2 1 C0.761 2.488 -0.492 3.966 -1.75 5.438 C-2.098 5.849 -2.098 5.849 -3.859 7.934 C-6.013 10.013 -7.083 10.639 -10 11 C-7.175 6.328 -4.322 3.34 0 0 Z " fill="#DAF9F4" transform="translate(594,462)"/>
<path d="M0 0 C4.209 6.314 4.28 14.589 4 22 C3.67 22 3.34 22 3 22 C1.384 16.948 0.658 12.399 0.375 7.062 C0.336 6.379 0.298 5.695 0.258 4.99 C0.165 3.327 0.081 1.664 0 0 Z " fill="#43BC9E" transform="translate(730,483)"/>
<path d="M0 0 C0.66 0 1.32 0 2 0 C0.452 3.347 -1.491 6.247 -3.625 9.25 C-4.257 10.142 -4.888 11.034 -5.539 11.953 C-6.021 12.629 -6.503 13.304 -7 14 C-7.33 12.68 -7.66 11.36 -8 10 C-7.34 10 -6.68 10 -6 10 C-6 9.01 -6 8.02 -6 7 C-5.34 7 -4.68 7 -4 7 C-4 6.34 -4 5.68 -4 5 C-3.34 5 -2.68 5 -2 5 C-2 4.01 -2 3.02 -2 2 C-1.34 2 -0.68 2 0 2 C0 1.34 0 0.68 0 0 Z " fill="#D7FBF5" transform="translate(625,482)"/>
<path d="M0 0 C0.33 0.99 0.66 1.98 1 3 C-0.363 5.375 -0.363 5.375 -2.312 8 C-2.948 8.866 -3.584 9.733 -4.238 10.625 C-4.529 11.017 -4.529 11.017 -6 13 C-6.33 13.495 -6.33 13.495 -8 16 C-8.66 16 -9.32 16 -10 16 C-8.31 12.336 -6.127 9.092 -3.875 5.75 C-3.151 4.672 -2.426 3.595 -1.68 2.484 C-1.403 2.074 -1.403 2.074 0 0 Z " fill="#30B493" transform="translate(613,501)"/>
<path d="M0 0 C-1.41 3.362 -3.015 5.095 -5.938 7.25 C-6.282 7.51 -6.282 7.51 -8.027 8.828 C-10 10 -10 10 -13 10 C-11.214 8.327 -9.421 6.662 -7.625 5 C-7.371 4.762 -7.371 4.762 -6.086 3.555 C-2.227 0 -2.227 0 0 0 Z " fill="#2EB493" transform="translate(566,432)"/>
<path d="M0 0 C0.33 0 0.66 0 1 0 C1.532 2.415 2.051 4.831 2.562 7.25 C2.714 7.932 2.865 8.614 3.021 9.316 C3.752 12.818 4.322 15.603 3 19 C0.52 15.279 0.556 12.135 0.375 7.812 C0.336 7.063 0.298 6.313 0.258 5.541 C0.164 3.694 0.081 1.847 0 0 Z " fill="#C2F5EB" transform="translate(526,524)"/>
<path d="M0 0 C4.065 1.372 6.674 3.221 9.812 6.125 C10.208 6.487 10.208 6.487 12.207 8.32 C12.799 8.875 13.39 9.429 14 10 C9.839 10 8.466 8.204 5.312 5.562 C4.319 4.739 3.325 3.915 2.301 3.066 C1.542 2.384 0.782 1.703 0 1 C0 0.67 0 0.34 0 0 Z " fill="#3AB597" transform="translate(556,584)"/>
<path d="M0 0 C2.376 2.376 3.041 4.353 4.188 7.5 C4.552 8.48 4.917 9.459 5.293 10.469 C6 13 6 13 5 15 C2.828 12.828 2.321 11.5 1.375 8.625 C1.115 7.854 0.854 7.083 0.586 6.289 C0 4 0 4 0 0 Z " fill="#3EBA9B" transform="translate(298,431)"/>
<path d="M0 0 C0.33 0 0.66 0 1 0 C1.081 2.27 1.139 4.541 1.188 6.812 C1.222 8.077 1.257 9.342 1.293 10.645 C1 14 1 14 -2 17 C-1.34 11.39 -0.68 5.78 0 0 Z " fill="#DCFDF9" transform="translate(734,519)"/>
<path d="M0 0 C0.66 0.99 1.32 1.98 2 3 C0.35 5.97 -1.3 8.94 -3 12 C-3.66 12 -4.32 12 -5 12 C-3.689 7.766 -2.056 3.926 0 0 Z " fill="#31B795" transform="translate(539,460)"/>
<path d="M0 0 C-1.145 1.488 -1.145 1.488 -3 3 C-5.699 3.293 -5.699 3.293 -8.688 3.188 C-9.681 3.16 -10.675 3.133 -11.699 3.105 C-12.458 3.071 -13.218 3.036 -14 3 C-14 2.67 -14 2.34 -14 2 C-12.044 1.471 -10.085 0.952 -8.125 0.438 C-7.034 0.147 -5.944 -0.143 -4.82 -0.441 C-2 -1 -2 -1 0 0 Z " fill="#44BD9F" transform="translate(652,570)"/>
<path d="M0 0 C1.238 3.576 0.749 6.337 0 10 C-0.66 10 -1.32 10 -2 10 C-2 10.66 -2 11.32 -2 12 C-2.66 12 -3.32 12 -4 12 C-2.667 8 -1.333 4 0 0 Z " fill="#D2F9F2" transform="translate(369,598)"/>
<path d="M0 0 C0.33 0 0.66 0 1 0 C1.457 5.717 0.523 8.486 -3 13 C-4 11 -4 11 -3.223 8.398 C-2.84 7.401 -2.457 6.403 -2.062 5.375 C-1.682 4.372 -1.302 3.369 -0.91 2.336 C-0.61 1.565 -0.309 0.794 0 0 Z " fill="#3FBA9B" transform="translate(372,474)"/>
<path d="M0 0 C3.356 1.389 5.073 2.917 7 6 C7 6.66 7 7.32 7 8 C7.66 8 8.32 8 9 8 C8.67 8.99 8.34 9.98 8 11 C6.664 9.357 5.331 7.71 4 6.062 C3.258 5.146 2.515 4.229 1.75 3.285 C0 1 0 1 0 0 Z " fill="#D5FBF5" transform="translate(824,445)"/>
<path d="M0 0 C0.66 0 1.32 0 2 0 C2 0.66 2 1.32 2 2 C3.32 2.66 4.64 3.32 6 4 C6 4.99 6 5.98 6 7 C6.66 7 7.32 7 8 7 C7.67 7.99 7.34 8.98 7 10 C5.83 8.523 4.664 7.043 3.5 5.562 C2.85 4.739 2.201 3.915 1.531 3.066 C0 1 0 1 0 0 Z " fill="#D5FAF4" transform="translate(881,518)"/>
<path d="M0 0 C1.155 3.934 0.836 6.973 0 11 C-0.33 11.165 -0.33 11.165 -2 12 C-3.124 8.696 -2.896 6.949 -1.562 3.75 C-1.275 3.044 -0.988 2.337 -0.691 1.609 C-0.463 1.078 -0.235 0.547 0 0 Z " fill="#3BBB9C" transform="translate(533,472)"/>
<path d="M0 0 C0 0.66 0 1.32 0 2 C-6.45 6.093 -6.45 6.093 -9.234 5.621 C-9.817 5.416 -10.4 5.211 -11 5 C-9.545 4.162 -8.086 3.329 -6.625 2.5 C-5.813 2.036 -5.001 1.572 -4.164 1.094 C-2 0 -2 0 0 0 Z " fill="#38B898" transform="translate(666,562)"/>
<path d="M0 0 C0.33 0.66 0.66 1.32 1 2 C1.99 2.33 2.98 2.66 4 3 C3.34 3.99 3.34 3.99 0 9 C-1.108 5.675 -0.845 3.378 0 0 Z " fill="#47B299" transform="translate(621,549)"/>
<path d="M0 0 C1.472 3.827 0.57 6.31 -1 10 C-1.967 11.032 -2.962 12.039 -4 13 C-3.521 11.396 -3.042 9.792 -2.562 8.188 C-2.296 7.294 -2.029 6.401 -1.754 5.48 C-1.196 3.645 -0.607 1.82 0 0 Z " fill="#3FB799" transform="translate(377,461)"/>
<path d="M0 0 C1.472 3.827 0.57 6.31 -1 10 C-1.967 11.032 -2.962 12.039 -4 13 C-3.521 11.396 -3.042 9.792 -2.562 8.188 C-2.296 7.294 -2.029 6.401 -1.754 5.48 C-1.196 3.645 -0.607 1.82 0 0 Z " fill="#45BA9E" transform="translate(389,429)"/>
<path d="M0 0 C0.66 0.33 0.66 0.33 4 2 C4 2.66 4 3.32 4 4 C4.66 4 5.32 4 6 4 C5.67 5.32 5.34 6.64 5 8 C0 2.25 0 2.25 0 0 Z " fill="#31B695" transform="translate(877,582)"/>
<path d="M0 0 C0.33 0 0.66 0 1 0 C1.25 3.312 1.25 3.312 1 7 C-0.32 7.99 -1.64 8.98 -3 10 C-2.01 6.7 -1.02 3.4 0 0 Z " fill="#CFF7F0" transform="translate(386,555)"/>
<path d="M0 0 C0.66 0 1.32 0 2 0 C0.909 3.775 0.092 6.47 -3 9 C-3 7.68 -3 6.36 -3 5 C-2.34 5 -1.68 5 -1 5 C-0.67 3.35 -0.34 1.7 0 0 Z " fill="#D2F9F3" transform="translate(682,537)"/>
<path d="M0 0 C0.66 0 1.32 0 2 0 C1.01 3.3 0.02 6.6 -1 10 C-1.33 10 -1.66 10 -2 10 C-2.179 6.053 -2.094 3.402 0 0 Z " fill="#DFFDF9" transform="translate(371,472)"/>
<path d="M0 0 C0.33 0 0.66 0 1 0 C1.25 3.312 1.25 3.312 1 7 C-0.32 7.99 -1.64 8.98 -3 10 C-2.01 6.7 -1.02 3.4 0 0 Z " fill="#CFF7EF" transform="translate(424,459)"/>
<path d="M0 0 C4.435 1.394 6.874 3.606 10 7 C6.433 7 5.895 6.363 3.312 4.062 C2.69 3.517 2.067 2.972 1.426 2.41 C0.955 1.945 0.485 1.479 0 1 C0 0.67 0 0.34 0 0 Z " fill="#37B697" transform="translate(663,460)"/>
<path d="M0 0 C0.33 0 0.66 0 1 0 C1.25 3.312 1.25 3.312 1 7 C-0.32 7.99 -1.64 8.98 -3 10 C-2.01 6.7 -1.02 3.4 0 0 Z " fill="#D3F8F1" transform="translate(434,434)"/>
<path d="M0 0 C0.66 0.33 1.32 0.66 2 1 C1.175 2.155 1.175 2.155 -3 8 C-3.33 6.68 -3.66 5.36 -4 4 C-3.34 4 -2.68 4 -2 4 C-1.34 2.68 -0.68 1.36 0 0 Z " fill="#D2FAF4" transform="translate(605,510)"/>
<path d="M0 0 C1 2 1 2 0.441 4.164 C0.151 4.976 -0.139 5.788 -0.438 6.625 C-0.725 7.442 -1.012 8.26 -1.309 9.102 C-1.537 9.728 -1.765 10.355 -2 11 C-2.33 11 -2.66 11 -3 11 C-2.532 6.944 -2.12 3.534 0 0 Z " fill="#31B997" transform="translate(572,496)"/>
<path d="M0 0 C1.108 3.325 0.845 5.622 0 9 C-0.66 8.01 -1.32 7.02 -2 6 C-2.66 5.67 -3.32 5.34 -4 5 C-2.68 3.35 -1.36 1.7 0 0 Z " fill="#50B39A" transform="translate(639,466)"/>
</svg>
