<?xml version="1.0" encoding="UTF-8"?>
<!-- Generator: visioncortex VTracer 0.6.12 -->
<svg version="1.1" xmlns="http://www.w3.org/2000/svg" width="1584" height="672">
<path d="M0 0 C522.72 0 1045.44 0 1584 0 C1584 221.76 1584 443.52 1584 672 C1061.28 672 538.56 672 0 672 C0 450.24 0 228.48 0 0 Z " fill="#FEFEFE" transform="translate(0,0)"/>
<path d="M0 0 C92.73 0 185.46 0 281 0 C281 22.11 281 44.22 281 67 C210.71 67 140.42 67 68 67 C68 82.84 68 98.68 68 115 C105.62 115 143.24 115 182 115 C182 124.24 182 133.48 182 143 C207.74 143 233.48 143 260 143 C260 159.17 260 175.34 260 192 C234.26 192 208.52 192 182 192 C182 201.24 182 210.48 182 220 C144.38 220 106.76 220 68 220 C68 236.17 68 252.34 68 269 C139.61 269 211.22 269 285 269 C285 290.78 285 312.56 285 335 C191.28 335 97.56 335 1 335 C1 306.29 1 277.58 1 248 C0.34 248 -0.32 248 -1 248 C-1.227 248.577 -1.454 249.155 -1.688 249.75 C-3.348 252.596 -5.392 253.998 -8 256 C-9.686 257.65 -11.348 259.316 -13 261 C-14.259 262.275 -15.518 263.55 -16.777 264.825 C-17.128 265.18 -17.128 265.18 -18.901 266.978 C-22.072 270.189 -25.25 273.391 -28.428 276.593 C-30.102 278.282 -31.773 279.973 -33.441 281.667 C-35.859 284.121 -38.286 286.565 -40.715 289.008 C-41.456 289.764 -42.196 290.52 -42.96 291.3 C-47.816 296.158 -51.716 299.841 -58.875 300.188 C-59.906 300.126 -60.938 300.064 -62 300 C-61.942 301.016 -61.884 302.032 -61.824 303.078 C-61.342 315.097 -63.228 323.934 -71.25 333.375 C-79.42 341.802 -87.964 346.946 -99.83 347.352 C-113.243 347.501 -122.715 343.842 -132.688 334.875 C-142.122 325.045 -143.48 313.58 -143.273 300.719 C-142.891 291.075 -138.542 283.915 -132 277 C-126.787 272.206 -121.714 268.335 -115 266 C-115.302 265.727 -115.302 265.727 -116.828 264.348 C-124.547 257.065 -128.105 251.666 -128.562 240.938 C-128.717 232.987 -124.849 227.766 -119.53 222.174 C-118.219 220.857 -116.9 219.548 -115.574 218.246 C-115.221 217.894 -115.221 217.894 -113.434 216.111 C-111.947 214.631 -110.457 213.155 -108.963 211.682 C-106.697 209.447 -104.443 207.202 -102.189 204.955 C-100.735 203.51 -99.28 202.065 -97.824 200.621 C-97.159 199.96 -96.495 199.3 -95.809 198.619 C-92.614 195.471 -89.375 192.421 -85.98 189.489 C-81.969 186.019 -78.224 182.335 -74.5 178.562 C-73.82 177.879 -73.14 177.195 -72.439 176.49 C-70.29 174.329 -68.145 172.165 -66 170 C-63.17 167.143 -60.336 164.289 -57.5 161.438 C-57.183 161.117 -57.183 161.117 -55.58 159.492 C-51.795 155.687 -47.88 152.106 -43.817 148.599 C-41.494 146.555 -39.337 144.384 -37.195 142.152 C-36.78 141.726 -36.78 141.726 -34.676 139.568 C-32.977 137.816 -31.284 136.059 -29.598 134.295 C-21.968 126.506 -13.774 120.512 -3 118 C-2.01 118 -1.02 118 0 118 C0 79.06 0 40.12 0 0 Z " fill="#18C296" transform="translate(243,169)"/>
<path d="M0 0 C0.768 0.214 1.537 0.429 2.329 0.649 C17.945 5.143 32.299 11.769 45 22 C45.517 22.406 46.033 22.812 46.565 23.23 C71.615 42.979 85.03 70.085 91 101 C91.18 101.926 91.359 102.852 91.544 103.806 C92.06 107.419 92.179 110.969 92.203 114.609 C92.21 115.329 92.217 116.049 92.225 116.791 C92.456 147.377 92.456 147.377 89 160 C88.901 160.364 88.901 160.364 88.398 162.208 C79.5 193.554 60.304 221.026 31.812 237.375 C11.028 248.884 -10.039 254.632 -33.688 254.438 C-34.081 254.436 -34.081 254.436 -36.075 254.428 C-48.392 254.358 -60.157 253.662 -72 250 C-72.699 249.786 -73.398 249.571 -74.118 249.351 C-105.01 239.505 -130.931 217.655 -146 189 C-162.715 155.966 -166.345 116.538 -154.979 81.169 C-148.18 61.537 -137.6 44.727 -123 30 C-122.198 29.185 -121.396 28.371 -120.57 27.531 C-89.624 -2.061 -40.448 -11.393 0 0 Z " fill="#17C296" transform="translate(1093,255)"/>
<path d="M0 0 C0.714 0.193 1.428 0.387 2.164 0.586 C23.196 6.449 39.443 17.951 50.395 37.055 C50.924 38.027 51.454 38.999 52 40 C52.396 40.683 52.791 41.366 53.199 42.07 C66.232 65.868 64.432 94.336 64.304 120.549 C64.285 125.115 64.284 129.68 64.28 134.246 C64.271 142.855 64.246 151.464 64.216 160.073 C64.182 169.889 64.166 179.706 64.151 189.522 C64.12 209.681 64.065 229.841 64 250 C42.88 250 21.76 250 0 250 C-0.007 247.75 -0.007 247.75 -0.044 236.361 C-0.095 221.461 -0.161 206.561 -0.236 191.662 C-0.281 182.631 -0.32 173.601 -0.346 164.57 C-0.37 156.694 -0.403 148.818 -0.449 140.941 C-0.473 136.776 -0.491 132.61 -0.498 128.445 C-0.504 124.513 -0.524 120.582 -0.554 116.65 C-0.563 115.218 -0.567 113.785 -0.565 112.353 C-0.552 96.652 -2.778 81.021 -13.035 68.52 C-22.636 59.233 -34.591 56.665 -47.435 56.615 C-59.195 56.821 -69.533 60.617 -78 69 C-93.637 85.747 -94.101 108.87 -94.205 130.571 C-94.215 131.87 -94.225 133.169 -94.235 134.508 C-94.262 138.029 -94.283 141.551 -94.303 145.073 C-94.325 148.769 -94.353 152.464 -94.379 156.16 C-94.429 163.14 -94.474 170.12 -94.517 177.1 C-94.576 186.545 -94.642 195.99 -94.708 205.435 C-94.811 220.29 -94.905 235.145 -95 250 C-116.12 250 -137.24 250 -159 250 C-159 168.49 -159 86.98 -159 3 C-139.2 3 -119.4 3 -99 3 C-99 12.57 -99 22.14 -99 32 C-98.34 32 -97.68 32 -97 32 C-96.75 31.437 -96.5 30.873 -96.242 30.293 C-88.5 16.002 -72.044 6.154 -56.901 1.332 C-38.295 -4.052 -18.77 -5.124 0 0 Z " fill="#18C296" transform="translate(1381,254)"/>
<path d="M0 0 C21.78 0 43.56 0 66 0 C74.026 20.637 74.026 20.637 77.094 29.656 C77.443 30.672 77.792 31.688 78.152 32.734 C78.891 34.884 79.629 37.035 80.365 39.186 C82.321 44.898 84.289 50.605 86.258 56.312 C86.456 56.887 86.456 56.887 87.459 59.794 C91.948 72.782 96.574 85.721 101.229 98.65 C105.975 111.847 105.975 111.847 107.996 118 C110.978 127.067 114.322 136.01 117.59 144.977 C118.461 147.369 119.33 149.763 120.199 152.156 C120.466 152.885 120.733 153.615 121.007 154.366 C122.164 157.555 123.216 160.701 124 164 C127.645 155.604 130.804 147.084 133.787 138.434 C139.52 121.832 145.483 105.314 151.5 88.812 C151.916 87.673 152.331 86.533 152.759 85.358 C153.611 83.023 154.462 80.688 155.314 78.353 C155.528 77.765 155.528 77.765 156.613 74.789 C157.046 73.602 157.479 72.416 157.925 71.193 C161.27 62.016 164.597 52.834 167.918 43.648 C168.408 42.294 168.898 40.939 169.387 39.585 C171.521 33.685 173.653 27.784 175.783 21.883 C176.858 18.905 177.935 15.927 179.012 12.949 C179.402 11.866 179.793 10.782 180.196 9.665 C180.552 8.68 180.909 7.694 181.276 6.678 C181.587 5.818 181.897 4.958 182.217 4.072 C183 2 183 2 184 0 C205.12 0 226.24 0 248 0 C247.249 4.505 246.492 7.737 244.885 11.882 C244.667 12.449 244.667 12.449 243.564 15.321 C243.09 16.539 242.617 17.757 242.129 19.012 C241.117 21.64 240.11 24.27 239.102 26.9 C238.973 27.236 238.973 27.236 238.319 28.939 C235.668 35.842 233.092 42.772 230.527 49.707 C230.075 50.928 229.623 52.149 229.157 53.407 C228.228 55.917 227.299 58.427 226.371 60.937 C223.868 67.705 221.36 74.472 218.852 81.238 C218.6 81.916 218.349 82.593 218.091 83.291 C213.364 96.039 208.597 108.773 203.812 121.5 C197.39 138.587 191.022 155.693 184.688 172.812 C184.265 173.955 183.842 175.097 183.407 176.273 C181.755 180.738 180.103 185.203 178.452 189.667 C175.099 198.735 171.742 207.801 168.378 216.865 C167.847 218.295 167.317 219.724 166.787 221.154 C166.069 223.094 165.349 225.033 164.629 226.973 C164.433 227.5 164.433 227.5 163.444 230.168 C161.326 235.79 159.157 241.393 157 247 C135.22 247 113.44 247 91 247 C89.02 241.617 87.04 236.234 85 230.688 C77.416 210.091 69.765 189.519 62.1 168.952 C60.174 163.785 58.249 158.617 56.324 153.449 C55.524 151.3 54.723 149.151 53.922 147.001 C53.723 146.466 53.723 146.466 52.713 143.755 C51.097 139.417 49.481 135.08 47.865 130.742 C46.673 127.544 45.482 124.345 44.29 121.147 C42.818 117.196 41.346 113.245 39.874 109.294 C31.515 86.859 23.186 64.413 14.9 41.951 C11.931 33.906 8.96 25.862 5.93 17.84 C5.498 16.696 5.066 15.552 4.621 14.374 C3.862 12.37 3.1 10.368 2.334 8.366 C2.016 7.529 1.699 6.691 1.371 5.828 C1.102 5.126 0.833 4.424 0.556 3.7 C0 2 0 2 0 0 Z " fill="#18C296" transform="translate(556,257)"/>
<path d="M0 0 C20.79 0 41.58 0 63 0 C63 81.51 63 163.02 63 247 C42.21 247 21.42 247 0 247 C0 165.49 0 83.98 0 0 Z " fill="#18C296" transform="translate(832,257)"/>
<path d="M0 0 C13.992 11.75 22.432 27.943 25 46 C26.336 62.456 25.704 77.792 19 93 C18.766 93.536 18.766 93.536 17.582 96.25 C14.168 103.136 9.398 108.583 4 114 C3.374 114.65 2.747 115.299 2.102 115.969 C-10.495 128.087 -26.381 129.589 -42.938 129.301 C-56.747 128.791 -68.748 122 -78.875 112.75 C-86.625 104.256 -91.39 93.787 -95 83 C-95.117 82.655 -95.117 82.655 -95.711 80.91 C-101.551 62.248 -98.752 39.732 -90.188 22.438 C-82.391 7.551 -71.71 -2.736 -56 -9 C-36.97 -14.759 -16.066 -11.571 0 0 Z " fill="#FDFEFE" transform="translate(1095,321)"/>
<path d="M0 0 C9.274 6.851 15.257 14.931 17.473 26.422 C18.468 39.048 17.106 49.153 8.785 59.297 C0.215 68.156 -10.34 72.42 -22.59 72.797 C-34.363 72.432 -44.642 67.787 -52.84 59.297 C-61.179 49.08 -62.869 38.468 -61.827 25.64 C-60.682 17.169 -56.519 9.896 -50.117 4.324 C-35.18 -6.741 -16.613 -10.374 0 0 Z " fill="#19C196" transform="translate(885.52734375,156.578125)"/>
<path d="M0 0 C0.33 0 0.66 0 1 0 C1.025 7.102 1.043 14.205 1.055 21.307 C1.06 23.726 1.067 26.144 1.075 28.562 C1.088 32.03 1.093 35.497 1.098 38.965 C1.103 40.053 1.108 41.142 1.113 42.263 C1.113 42.764 1.113 42.764 1.114 45.297 C1.116 46.183 1.118 47.069 1.12 47.982 C1 50 1 50 0 51 C-2.373 51.095 -4.717 51.126 -7.09 51.114 C-7.832 51.114 -8.573 51.114 -9.337 51.114 C-11.799 51.113 -14.261 51.105 -16.723 51.098 C-18.425 51.096 -20.128 51.094 -21.83 51.093 C-26.32 51.09 -30.81 51.08 -35.299 51.069 C-39.877 51.058 -44.455 51.054 -49.033 51.049 C-58.022 51.038 -67.011 51.021 -76 51 C-75.995 51.782 -75.99 52.565 -75.984 53.371 C-75.963 56.893 -75.95 60.415 -75.938 63.938 C-75.929 65.169 -75.921 66.401 -75.912 67.67 C-75.909 68.84 -75.906 70.01 -75.902 71.215 C-75.897 72.299 -75.892 73.383 -75.886 74.5 C-76 77 -76 77 -77 78 C-78.467 78.108 -79.939 78.147 -81.41 78.158 C-82.362 78.168 -83.315 78.178 -84.296 78.188 C-85.349 78.194 -86.402 78.199 -87.487 78.205 C-88.589 78.215 -89.691 78.225 -90.827 78.235 C-94.49 78.267 -98.153 78.292 -101.816 78.316 C-104.348 78.337 -106.881 78.358 -109.413 78.379 C-115.408 78.429 -121.404 78.474 -127.4 78.517 C-134.225 78.567 -141.049 78.622 -147.874 78.677 C-161.916 78.791 -175.958 78.897 -190 79 C-190.33 93.85 -190.66 108.7 -191 124 C-184.401 123.995 -177.803 123.99 -171.004 123.984 C-149.263 123.968 -127.522 123.956 -105.781 123.948 C-92.592 123.943 -79.404 123.936 -66.215 123.925 C-54.724 123.915 -43.234 123.908 -31.743 123.906 C-25.655 123.905 -19.567 123.902 -13.478 123.894 C-7.755 123.888 -2.032 123.885 3.691 123.887 C5.799 123.887 7.906 123.885 10.013 123.881 C12.877 123.876 15.74 123.877 18.604 123.88 C19.449 123.877 20.294 123.874 21.165 123.871 C26.886 123.886 26.886 123.886 28 125 C28.099 127.111 28.128 129.226 28.129 131.34 C28.13 131.671 28.13 131.671 28.135 133.345 C28.139 135.543 28.136 137.74 28.133 139.938 C28.133 141.458 28.134 142.979 28.136 144.5 C28.137 147.691 28.135 150.882 28.13 154.073 C28.125 158.173 28.128 162.272 28.134 166.371 C28.138 169.513 28.136 172.654 28.134 175.796 C28.133 177.308 28.134 178.82 28.136 180.332 C28.139 182.441 28.135 184.551 28.129 186.66 C28.129 187.262 28.129 187.262 28.127 190.305 C28 193 28 193 27 194 C25.467 194.097 23.93 194.124 22.395 194.123 C21.894 194.124 21.894 194.124 19.359 194.129 C18.245 194.126 17.132 194.123 15.984 194.12 C14.811 194.121 13.638 194.122 12.43 194.123 C9.16 194.124 5.89 194.121 2.62 194.116 C-0.901 194.112 -4.422 194.113 -7.942 194.114 C-14.047 194.114 -20.152 194.111 -26.257 194.106 C-35.084 194.098 -43.91 194.095 -52.737 194.094 C-67.056 194.092 -81.376 194.085 -95.695 194.075 C-109.608 194.066 -123.522 194.059 -137.435 194.055 C-138.292 194.055 -139.149 194.054 -140.032 194.054 C-144.331 194.053 -148.631 194.052 -152.93 194.05 C-188.62 194.04 -224.31 194.022 -260 194 C-260.33 164.63 -260.66 135.26 -261 105 C-260.34 105 -259.68 105 -259 105 C-259 133.71 -259 162.42 -259 192 C-165.28 192 -71.56 192 25 192 C25 170.22 25 148.44 25 126 C-46.61 126 -118.22 126 -192 126 C-192 109.83 -192 93.66 -192 77 C-154.38 77 -116.76 77 -78 77 C-78 67.76 -78 58.52 -78 49 C-52.26 49 -26.52 49 0 49 C0 32.83 0 16.66 0 0 Z " fill="#BEF0E8" transform="translate(503,312)"/>
<path d="M0 0 C0.639 -0.002 0.639 -0.002 3.873 -0.01 C5.278 -0.008 6.684 -0.006 8.09 -0.003 C9.521 -0.004 10.952 -0.005 12.383 -0.006 C15.386 -0.008 18.389 -0.006 21.392 -0.001 C25.249 0.005 29.106 0.001 32.963 -0.005 C35.919 -0.008 38.876 -0.007 41.832 -0.004 C43.254 -0.004 44.677 -0.005 46.1 -0.007 C48.085 -0.009 50.07 -0.005 52.055 0 C52.621 0 52.621 0 55.484 0.002 C58.027 0.129 58.027 0.129 59.027 1.129 C59.124 2.464 59.151 3.803 59.15 5.141 C59.152 6.011 59.154 6.88 59.156 7.776 C59.154 8.742 59.151 9.707 59.148 10.703 C59.148 11.72 59.149 12.738 59.15 13.786 C59.152 17.224 59.146 20.662 59.141 24.1 C59.141 26.554 59.141 29.007 59.141 31.46 C59.142 36.757 59.139 42.053 59.133 47.349 C59.125 55.006 59.122 62.664 59.121 70.321 C59.119 82.744 59.112 95.167 59.103 107.589 C59.094 119.659 59.087 131.73 59.082 143.8 C59.082 144.544 59.082 145.287 59.081 146.053 C59.08 149.783 59.079 153.513 59.078 157.242 C59.067 188.205 59.05 219.167 59.027 250.129 C50.57 250.153 42.112 250.17 33.654 250.181 C29.727 250.186 25.801 250.194 21.874 250.205 C18.087 250.216 14.301 250.222 10.514 250.224 C9.066 250.226 7.619 250.23 6.171 250.235 C4.15 250.242 2.129 250.243 0.108 250.243 C-0.469 250.244 -0.469 250.244 -3.385 250.25 C-5.973 250.129 -5.973 250.129 -6.973 249.129 C-7.073 245.946 -7.107 242.785 -7.1 239.601 C-7.101 238.588 -7.103 237.575 -7.104 236.532 C-7.108 233.11 -7.105 229.688 -7.102 226.266 C-7.103 223.824 -7.105 221.382 -7.107 218.941 C-7.111 212.98 -7.111 207.019 -7.108 201.059 C-7.106 196.217 -7.105 191.374 -7.106 186.532 C-7.107 185.844 -7.107 185.157 -7.107 184.448 C-7.107 183.051 -7.108 181.654 -7.108 180.256 C-7.111 167.14 -7.107 154.023 -7.102 140.907 C-7.098 129.64 -7.098 118.374 -7.103 107.107 C-7.108 94.039 -7.11 80.971 -7.107 67.903 C-7.107 66.511 -7.107 65.119 -7.106 63.726 C-7.106 63.041 -7.106 62.356 -7.106 61.651 C-7.105 56.811 -7.107 51.972 -7.109 47.133 C-7.112 40.626 -7.11 34.119 -7.104 27.612 C-7.103 25.216 -7.103 22.82 -7.105 20.424 C-7.108 17.169 -7.105 13.913 -7.1 10.658 C-7.102 9.697 -7.104 8.735 -7.106 7.745 C-7.083 0.005 -7.083 0.005 0 0 Z M-5.973 2.129 C-5.973 83.639 -5.973 165.149 -5.973 249.129 C14.817 249.129 35.607 249.129 57.027 249.129 C57.027 167.619 57.027 86.109 57.027 2.129 C36.237 2.129 15.447 2.129 -5.973 2.129 Z " fill="#B1F0E3" transform="translate(837.97265625,254.87060546875)"/>
<path d="M0 0 C0.426 0 0.426 0 2.583 0.001 C3.565 -0.004 4.547 -0.009 5.559 -0.013 C6.103 -0.011 6.103 -0.011 8.853 0.002 C10.001 -0 11.15 -0.003 12.333 -0.005 C15.53 -0.01 18.728 -0.005 21.925 0.003 C25.369 0.009 28.814 0.004 32.258 0.001 C39.01 -0.004 45.761 0.001 52.512 0.011 C60.366 0.021 68.221 0.021 76.075 0.021 C90.085 0.02 104.094 0.029 118.103 0.044 C131.712 0.058 145.321 0.065 158.929 0.064 C159.767 0.064 160.606 0.064 161.469 0.064 C162.306 0.064 163.143 0.064 164.005 0.064 C179.477 0.063 194.95 0.069 210.422 0.078 C215.904 0.081 221.385 0.082 226.866 0.083 C233.541 0.083 240.216 0.088 246.89 0.097 C250.299 0.102 253.708 0.105 257.116 0.103 C260.803 0.103 264.49 0.109 268.176 0.116 C269.265 0.114 270.354 0.113 271.477 0.111 C272.456 0.114 273.436 0.118 274.445 0.121 C274.871 0.121 274.871 0.121 277.027 0.123 C278.951 0.25 278.951 0.25 279.951 1.25 C280.045 3.366 280.068 5.486 280.064 7.605 C280.065 8.269 280.065 8.932 280.065 9.616 C280.064 11.818 280.056 14.02 280.049 16.222 C280.047 17.745 280.045 19.268 280.044 20.792 C280.041 24.808 280.031 28.824 280.02 32.84 C280.009 36.936 280.005 41.031 280 45.127 C279.989 53.168 279.972 61.209 279.951 69.25 C279.621 69.25 279.291 69.25 278.951 69.25 C278.951 47.14 278.951 25.03 278.951 2.25 C186.221 2.25 93.491 2.25 -2.049 2.25 C-2.049 41.19 -2.049 80.13 -2.049 120.25 C-7.329 122.23 -12.609 124.21 -18.049 126.25 C-19.204 126.91 -19.204 126.91 -25.049 130.25 C-24.719 128.93 -24.389 127.61 -24.049 126.25 C-23.059 126.25 -22.069 126.25 -21.049 126.25 C-21.049 125.59 -21.049 124.93 -21.049 124.25 C-20.059 124.25 -19.069 124.25 -18.049 124.25 C-18.049 123.59 -18.049 122.93 -18.049 122.25 C-17.457 122.128 -16.866 122.007 -16.256 121.882 C-15.466 121.715 -14.676 121.547 -13.862 121.375 C-13.084 121.212 -12.307 121.05 -11.506 120.882 C-8.908 120.213 -6.529 119.265 -4.049 118.25 C-4.051 117.654 -4.053 117.058 -4.055 116.444 C-4.099 101.956 -4.132 87.468 -4.153 72.98 C-4.163 65.973 -4.177 58.967 -4.2 51.961 C-4.222 45.205 -4.234 38.449 -4.239 31.692 C-4.242 29.11 -4.25 26.527 -4.26 23.944 C-4.275 20.337 -4.277 16.731 -4.276 13.125 C-4.28 12.586 -4.28 12.586 -4.298 9.86 C-4.295 8.881 -4.292 7.902 -4.29 6.894 C-4.291 6.04 -4.293 5.187 -4.295 4.307 C-3.944 1.369 -2.939 0.358 0 0 Z " fill="#DBFEFB" transform="translate(245.04902654886246,166.7504523396492)"/>
<path d="M0 0 C3.698 4.663 4.125 7.944 4.127 13.846 C4.128 14.196 4.128 14.196 4.132 15.968 C4.136 18.319 4.133 20.67 4.129 23.022 C4.131 24.706 4.133 26.389 4.135 28.073 C4.139 32.649 4.137 37.225 4.134 41.801 C4.132 46.583 4.134 51.364 4.136 56.146 C4.138 64.174 4.135 72.202 4.13 80.23 C4.125 89.525 4.127 98.82 4.132 108.115 C4.137 116.084 4.137 124.054 4.135 132.023 C4.133 136.788 4.133 141.553 4.136 146.317 C4.139 150.794 4.137 155.271 4.131 159.747 C4.13 161.395 4.13 163.042 4.133 164.69 C4.135 166.929 4.132 169.169 4.127 171.408 C4.127 172.036 4.127 172.036 4.126 175.215 C4 178 4 178 3 179 C-18.78 179 -40.56 179 -63 179 C-63 128.51 -63 78.02 -63 26 C-62.67 26 -62.34 26 -62 26 C-62 75.83 -62 125.66 -62 177 C-40.88 177 -19.76 177 2 177 C1.892 155.694 1.78 134.388 1.661 113.082 C1.605 103.188 1.552 93.295 1.503 83.401 C1.46 74.774 1.413 66.147 1.363 57.519 C1.337 52.955 1.312 48.391 1.291 43.826 C1.271 39.522 1.247 35.218 1.22 30.914 C1.21 29.341 1.203 27.769 1.197 26.197 C1.162 17.423 0.904 8.735 0 0 Z " fill="#B6F5E7" transform="translate(1443,327)"/>
<path d="M0 0 C19.8 0 39.6 0 60 0 C60 9.57 60 19.14 60 29 C59.67 29 59.34 29 59 29 C59 19.76 59 10.52 59 1 C39.86 1 20.72 1 1 1 C1 81.85 1 162.7 1 246 C21.46 246 41.92 246 63 246 C62.995 241.552 62.99 237.104 62.984 232.522 C62.968 217.865 62.956 203.209 62.948 188.553 C62.943 179.662 62.936 170.771 62.925 161.881 C62.915 154.134 62.908 146.388 62.906 138.642 C62.905 134.538 62.902 130.434 62.894 126.33 C62.888 122.471 62.885 118.613 62.887 114.754 C62.887 113.334 62.885 111.914 62.881 110.493 C62.876 108.563 62.878 106.632 62.88 104.701 C62.879 103.618 62.878 102.535 62.877 101.419 C63 99 63 99 64 98 C64.231 96.653 64.412 95.296 64.562 93.938 C64.707 92.638 64.851 91.339 65 90 C65.66 90 66.32 90 67 90 C66 102 66 102 65.758 104.519 C65.048 112.214 64.832 119.846 64.795 127.571 C64.785 128.87 64.775 130.169 64.765 131.508 C64.738 135.029 64.717 138.551 64.697 142.073 C64.675 145.769 64.647 149.464 64.621 153.16 C64.571 160.14 64.526 167.12 64.483 174.1 C64.424 183.545 64.358 192.99 64.292 202.435 C64.189 217.29 64.095 232.145 64 247 C42.88 247 21.76 247 0 247 C0 165.49 0 83.98 0 0 Z " fill="#34B292" transform="translate(1222,257)"/>
<path d="M0 0 C0.363 0.002 0.363 0.002 2.199 0.011 C2.58 0.011 2.58 0.011 4.505 0.01 C7.032 0.011 9.559 0.019 12.086 0.027 C13.833 0.029 15.58 0.03 17.328 0.031 C21.936 0.035 26.544 0.045 31.152 0.056 C35.851 0.066 40.549 0.071 45.248 0.076 C54.474 0.086 63.7 0.103 72.926 0.124 C73.256 0.784 73.586 1.444 73.926 2.124 C48.186 2.124 22.446 2.124 -4.074 2.124 C-4.074 11.364 -4.074 20.604 -4.074 30.124 C-41.694 30.124 -79.314 30.124 -118.074 30.124 C-118.074 45.964 -118.074 61.804 -118.074 78.124 C-118.404 78.124 -118.734 78.124 -119.074 78.124 C-119.074 61.954 -119.074 45.784 -119.074 29.124 C-81.784 28.794 -44.494 28.464 -6.074 28.124 C-6.074 19.214 -6.074 10.304 -6.074 1.124 C-4.378 -0.572 -2.263 0.005 0 0 Z " fill="#65C7B0" transform="translate(429.07440185546875,358.8755798339844)"/>
<path d="M0 0 C0 28.38 0 56.76 0 86 C-0.66 86 -1.32 86 -2 86 C-2.33 59.6 -2.66 33.2 -3 6 C-7.95 10.95 -12.9 15.9 -18 21 C-19.65 21.99 -21.3 22.98 -23 24 C-24.648 25.517 -26.252 27.081 -27.812 28.688 C-28.208 29.092 -28.208 29.092 -30.207 31.137 C-30.503 31.444 -30.503 31.444 -32 33 C-32.66 32.67 -33.32 32.34 -34 32 C-27 25 -20 18 -13 11 C-12.111 10.107 -11.222 9.215 -10.306 8.295 C-8.342 6.341 -6.353 4.488 -4.25 2.688 C-3.657 2.176 -3.064 1.664 -2.453 1.137 C-1 0 -1 0 0 0 Z " fill="#E2FEFC" transform="translate(243,418)"/>
<path d="M0 0 C13.805 13.805 15.39 43.244 15.502 61.562 C15.492 74.164 15.347 86.774 12 99 C11.901 99.364 11.901 99.364 11.398 101.208 C8.206 112.452 3.517 122.722 -2 133 C-2.33 133 -2.66 133 -3 133 C-3 131.35 -3 129.7 -3 128 C-2.67 127.835 -2.67 127.835 -1 127 C-0.375 124.938 -0.375 124.938 0 123 C0.66 123 1.32 123 2 123 C2.126 122.281 2.252 121.562 2.382 120.821 C2.995 118.024 3.859 115.528 4.891 112.859 C11.106 96.012 12.473 79.229 12.438 61.438 C12.438 61.01 12.438 61.01 12.438 58.846 C12.431 56.374 12.406 53.904 12.371 51.434 C12.368 51.067 12.368 51.067 12.354 49.214 C12.241 44.201 11.327 39.835 10 35 C9.707 33.045 9.435 31.086 9.188 29.125 C8.363 23.893 6.706 19.886 4.172 15.266 C2.611 12.248 1.838 9.282 1 6 C0.67 5.67 0.34 5.34 0 5 C-0.041 3.334 -0.043 1.666 0 0 Z " fill="#38B797" transform="translate(1170,316)"/>
<path d="M0 0 C3.264 4.896 3.125 9.884 3.12 15.644 C3.121 15.965 3.121 15.965 3.123 17.59 C3.124 19.727 3.119 21.864 3.114 24.001 C3.113 25.539 3.113 27.077 3.114 28.615 C3.114 32.78 3.108 36.944 3.101 41.109 C3.095 45.465 3.095 49.822 3.093 54.178 C3.09 62.423 3.082 70.667 3.072 78.912 C3.061 88.3 3.055 97.688 3.05 107.076 C3.04 126.384 3.022 145.692 3 165 C2.67 165 2.34 165 2 165 C1.996 164.225 1.992 163.449 1.987 162.65 C1.884 143.797 1.775 124.944 1.661 106.092 C1.605 96.975 1.552 87.858 1.503 78.74 C1.46 70.796 1.414 62.851 1.363 54.906 C1.337 50.698 1.312 46.49 1.291 42.282 C1.271 38.323 1.247 34.365 1.22 30.406 C1.21 28.951 1.202 27.496 1.197 26.041 C1.188 24.059 1.173 22.076 1.158 20.093 C1.152 18.983 1.145 17.872 1.139 16.727 C1 14 1 14 0 11 C-0.069 9.105 -0.085 7.208 -0.062 5.312 C-0.053 4.319 -0.044 3.325 -0.035 2.301 C-0.024 1.542 -0.012 0.782 0 0 Z " fill="#DDFFFC" transform="translate(1377,339)"/>
<path d="M0 0 C0.669 -0.013 1.337 -0.026 2.026 -0.039 C6.713 -0.048 10.473 0.741 14.875 2.188 C11.837 3.083 9.218 3.272 6.059 3.18 C-14.026 2.763 -14.026 2.763 -22.125 6.188 C-23.092 6.578 -24.059 6.969 -25.055 7.371 C-41.601 14.802 -50.712 28.122 -57.117 44.629 C-58.009 46.893 -58.999 49.032 -60.125 51.188 C-60.125 48.548 -60.125 45.908 -60.125 43.188 C-59.465 43.188 -58.805 43.188 -58.125 43.188 C-58.043 42.383 -57.96 41.579 -57.875 40.75 C-56.932 36.273 -55.357 32.188 -53.125 28.188 C-52.465 27.858 -51.805 27.527 -51.125 27.188 C-50.816 26.363 -50.506 25.538 -50.188 24.688 C-49.837 23.863 -49.486 23.038 -49.125 22.188 C-48.135 21.858 -47.145 21.527 -46.125 21.188 C-46.125 20.527 -46.125 19.868 -46.125 19.188 C-45.465 19.188 -44.805 19.188 -44.125 19.188 C-44.125 18.527 -44.125 17.868 -44.125 17.188 C-43.465 17.188 -42.805 17.188 -42.125 17.188 C-41.878 16.548 -41.63 15.909 -41.375 15.25 C-40.125 13.188 -40.125 13.188 -38 12.438 C-37.691 12.396 -37.691 12.396 -36.125 12.188 C-36.125 11.527 -36.125 10.868 -36.125 10.188 C-33.486 8.774 -31.054 7.815 -28.125 7.188 C-28.125 6.527 -28.125 5.868 -28.125 5.188 C-27.499 4.983 -26.872 4.778 -26.227 4.566 C-25.409 4.297 -24.592 4.028 -23.75 3.75 C-22.938 3.483 -22.126 3.216 -21.289 2.941 C-19.125 2.188 -19.125 2.188 -17.125 1.188 C-11.421 0.302 -5.768 0.059 0 0 Z " fill="#33B594" transform="translate(1059.125,307.8125)"/>
<path d="M0 0 C0.768 0.214 1.537 0.429 2.329 0.649 C10.84 3.099 18.927 6.215 26.875 10.125 C27.205 10.287 27.205 10.287 28.876 11.108 C32.5 12.976 35.296 14.943 38 18 C35.75 18.25 35.75 18.25 33 18 C31.667 16.667 30.333 15.333 29 14 C24.543 11.432 20.06 9.066 15 8 C15 7.34 15 6.68 15 6 C14.567 5.938 14.567 5.938 12.375 5.625 C9 5 9 5 6.125 4 C2.385 2.803 -1.097 2.404 -5 2 C-5 1.34 -5 0.68 -5 0 C-5.526 0.01 -5.526 0.01 -8.188 0.062 C-12 0 -12 0 -14.25 -0.498 C-17.782 -1.143 -21.244 -1.124 -24.82 -1.098 C-25.561 -1.096 -26.301 -1.095 -27.064 -1.093 C-29.418 -1.088 -31.771 -1.075 -34.125 -1.062 C-35.715 -1.057 -37.305 -1.053 -38.895 -1.049 C-41.802 -1.041 -44.71 -1.03 -47.618 -1.016 C-49.745 -1.006 -51.873 -1 -54 -1 C-54.33 -1.66 -54.66 -2.32 -55 -3 C-37.09 -6.328 -17.48 -4.924 0 0 Z " fill="#3CB798" transform="translate(1093,255)"/>
<path d="M0 0 C1.875 2.812 2.835 5.059 3.936 8.224 C4.31 9.294 4.685 10.364 5.071 11.466 C5.473 12.628 5.875 13.791 6.289 14.988 C6.935 16.837 7.58 18.686 8.226 20.535 C9.134 23.138 10.038 25.742 10.942 28.347 C12.493 32.81 14.048 37.272 15.605 41.734 C16.475 44.229 17.344 46.724 18.211 49.22 C20.248 55.063 22.314 60.891 24.468 66.693 C24.848 67.718 25.227 68.743 25.618 69.798 C26.329 71.706 27.046 73.611 27.771 75.513 C28.082 76.345 28.392 77.178 28.712 78.036 C28.987 78.758 29.261 79.48 29.544 80.225 C30 82 30 82 29 84 C25.992 79.095 24.008 74.52 22.438 69 C21.264 64.958 20.071 61.035 18.359 57.184 C17.048 54.113 16.702 52.281 17 49 C16.34 49 15.68 49 15 49 C15 47.35 15 45.7 15 44 C14.34 44 13.68 44 13 44 C12.326 41.919 11.661 39.835 11 37.75 C10.629 36.59 10.258 35.43 9.875 34.234 C9 31 9 31 9 27 C8.34 27 7.68 27 7 27 C5.807 23.123 5 20.084 5 16 C4.34 16 3.68 16 3 16 C2.302 13.899 1.617 11.794 0.938 9.688 C0.555 8.516 0.172 7.344 -0.223 6.137 C-1 3 -1 3 0 0 Z " fill="#41BA9C" transform="translate(630,281)"/>
<path d="M0 0 C21.78 0 43.56 0 66 0 C73 18 73 18 74 23 C73.505 22.835 73.505 22.835 71 22 C70.156 19.707 70.156 19.707 69.5 16.812 C68.446 12.507 67.024 8.952 65 5 C65 3.68 65 2.36 65 1 C44.54 1 24.08 1 3 1 C4.32 5.29 5.64 9.58 7 14 C7.704 16.991 8.387 19.988 9 23 C6.861 20.861 6.299 19.521 5.273 16.719 C4.964 15.877 4.655 15.035 4.336 14.168 C4.019 13.288 3.702 12.407 3.375 11.5 C3.05 10.62 2.725 9.739 2.391 8.832 C0 2.273 0 2.273 0 0 Z " fill="#35B093" transform="translate(556,257)"/>
<path d="M0 0 C21.12 0 42.24 0 64 0 C63 6 63 6 61 8 C61 6.02 61 4.04 61 2 C40.87 2 20.74 2 0 2 C0 1.34 0 0.68 0 0 Z " fill="#2BB694" transform="translate(740,257)"/>
<path d="M0 0 C0.165 0.33 0.165 0.33 1 2 C-1.27 5.122 -3.704 7.692 -6.625 10.188 C-13.165 15.79 -19.252 21.861 -24.812 28.438 C-27.294 31.358 -29.659 33.091 -33 35 C-33.668 36.333 -34.334 37.666 -35 39 C-38.406 42.99 -42.184 46.798 -47 49 C-47.66 48.67 -48.32 48.34 -49 48 C-46.017 44.992 -43.03 41.987 -40.04 38.985 C-39.027 37.967 -38.014 36.948 -37.003 35.927 C-31.817 30.697 -26.607 25.572 -21.006 20.781 C-16.822 17.066 -12.935 13.037 -9 9.062 C-8.13 8.188 -7.26 7.313 -6.363 6.412 C-4.24 4.277 -2.119 2.14 0 0 Z " fill="#32BA97" transform="translate(180,336)"/>
<path d="M0 0 C8.067 -0.023 16.133 -0.041 24.2 -0.052 C27.945 -0.057 31.69 -0.064 35.435 -0.075 C39.047 -0.086 42.658 -0.092 46.27 -0.095 C47.651 -0.097 49.031 -0.1 50.412 -0.106 C52.34 -0.113 54.267 -0.113 56.195 -0.114 C57.294 -0.116 58.393 -0.118 59.526 -0.12 C62 0 62 0 63 1 C63.087 2.781 63.107 4.565 63.098 6.348 C63.094 7.427 63.091 8.507 63.088 9.619 C63.084 10.187 63.084 10.187 63.062 13.062 C63.058 14.203 63.053 15.343 63.049 16.518 C63.037 19.345 63.021 22.173 63 25 C63.66 25 64.32 25 65 25 C65 24.01 65 23.02 65 22 C65.66 22 66.32 22 67 22 C67 21.34 67 20.68 67 20 C67.495 20.165 67.495 20.165 70 21 C68.691 22.503 67.378 24.002 66.062 25.5 C65.697 25.918 65.697 25.918 63.848 28.031 C63.238 28.681 62.628 29.331 62 30 C61.67 30 61.34 30 61 30 C61 20.43 61 10.86 61 1 C40.87 1 20.74 1 0 1 C0 0.67 0 0.34 0 0 Z " fill="#E3FFFD" transform="translate(1222,255)"/>
<path d="M0 0 C0.33 0 0.66 0 1 0 C1.311 4.245 0.671 7.038 -1.078 10.883 C-6.237 22.731 -7.349 35.045 -8.675 47.776 C-9 50 -9 50 -10 52 C-10.15 53.373 -10.248 54.753 -10.316 56.133 C-10.337 56.536 -10.337 56.536 -10.443 58.574 C-10.483 59.416 -10.522 60.258 -10.562 61.125 C-10.584 61.55 -10.584 61.55 -10.693 63.699 C-10.8 65.799 -10.9 67.9 -11 70 C-11.33 70 -11.66 70 -12 70 C-12.753 47.112 -10.58 26.328 -2 5 C-1.611 4.023 -1.221 3.046 -0.82 2.039 C-0.55 1.366 -0.279 0.693 0 0 Z " fill="#47C0A2" transform="translate(944,321)"/>
<path d="M0 0 C0.33 0.66 0.66 1.32 1 2 C1.66 2 2.32 2 3 2 C3.33 4.64 3.66 7.28 4 10 C4.66 10 5.32 10 6 10 C6.33 12.64 6.66 15.28 7 18 C7.66 18 8.32 18 9 18 C10.423 21.823 11.24 24.913 11 29 C11.66 29 12.32 29 13 29 C13.402 30.216 13.804 31.431 14.219 32.684 C16.267 38.826 18.382 44.944 20.5 51.062 C20.891 52.195 21.281 53.327 21.684 54.494 C22.066 55.601 22.449 56.707 22.844 57.848 C23.21 58.907 23.576 59.967 23.953 61.059 C24.86 63.608 25.835 66.112 26.844 68.621 C28 72 28 72 27 75 C23.396 65.391 19.793 55.781 16.189 46.172 C15.798 45.129 15.407 44.086 15.004 43.011 C14.211 40.896 13.419 38.781 12.627 36.665 C10.564 31.156 8.49 25.653 6.394 20.156 C5.976 19.055 5.558 17.954 5.127 16.819 C4.327 14.711 3.522 12.605 2.714 10.5 C2.357 9.559 2 8.617 1.633 7.646 C1.316 6.819 1 5.992 0.674 5.139 C0 3 0 3 0 0 Z " fill="#37B596" transform="translate(573,302)"/>
<path d="M0 0 C1.487 0.01 2.974 0.019 4.461 0.027 C8.057 0.049 11.654 0.083 15.25 0.125 C15.25 0.785 15.25 1.445 15.25 2.125 C16.081 2.09 16.913 2.055 17.77 2.02 C18.313 2.006 18.313 2.006 21.062 1.938 C22.141 1.903 23.22 1.868 24.332 1.832 C27.25 2.125 27.25 2.125 29.137 3.637 C29.504 4.128 29.871 4.619 30.25 5.125 C29.841 5.053 29.841 5.053 27.77 4.688 C7.8 1.657 -13.014 1.686 -32.75 6.125 C-32.75 5.465 -32.75 4.805 -32.75 4.125 C-23.041 -1.267 -10.776 -0.128 0 0 Z " fill="#E8FFFE" transform="translate(1058.75,248.875)"/>
<path d="M0 0 C0.94 -0.004 1.881 -0.008 2.849 -0.012 C3.841 -0.003 4.833 0.006 5.855 0.016 C6.367 0.018 6.367 0.018 8.953 0.032 C17.45 0.137 25.667 0.828 34.043 2.266 C34.486 2.338 34.486 2.338 36.727 2.703 C38.918 3.141 38.918 3.141 42.043 4.266 C43.238 6.336 43.238 6.336 44.043 8.266 C43.316 8.072 42.589 7.879 41.84 7.68 C23.059 2.816 5.292 2.481 -13.957 4.266 C-9.298 1.85 -5.319 0.014 0 0 Z " fill="#DCFDF9" transform="translate(1345.95703125,248.734375)"/>
<path d="M0 0 C2.022 5.055 -0.499 9.726 -2.375 14.5 C-4.069 18.148 -5.953 21.541 -8 25 C-8.66 25 -9.32 25 -10 25 C-10.244 25.557 -10.487 26.114 -10.738 26.688 C-14.585 33.738 -20.691 39.719 -28 43 C-28.66 43 -29.32 43 -30 43 C-30 43.66 -30 44.32 -30 45 C-34.177 46.591 -37.532 47.213 -42 47 C-38.903 44.936 -35.812 43.504 -32.438 41.938 C-17.306 34.58 -8.175 22.368 -2 7 C-1.201 4.663 -0.56 2.407 0 0 Z " fill="#3FB99B" transform="translate(1117,402)"/>
<path d="M0 0 C2.083 -0.027 4.167 -0.046 6.25 -0.062 C7.41 -0.074 8.57 -0.086 9.766 -0.098 C13 0 13 0 14.95 0.493 C17.042 1.01 18.883 1.156 21.034 1.205 C21.424 1.215 21.424 1.215 23.399 1.266 C24.232 1.282 25.064 1.299 25.922 1.316 C26.352 1.327 26.352 1.327 28.528 1.379 C31.269 1.445 34.009 1.504 36.75 1.562 C38.611 1.606 40.471 1.649 42.332 1.693 C46.888 1.8 51.444 1.902 56 2 C52.275 4.407 48.584 4.306 44.297 4.301 C43.541 4.305 42.786 4.309 42.008 4.314 C40.404 4.32 38.8 4.32 37.196 4.316 C34.8 4.313 32.404 4.336 30.008 4.361 C19.681 4.402 10.067 3.287 0 1 C0 0.67 0 0.34 0 0 Z " fill="#33B897" transform="translate(1025,505)"/>
<path d="M0 0 C0.66 0.33 1.32 0.66 2 1 C1.776 1.231 1.776 1.231 0.645 2.398 C-5.866 9.423 -11.152 17.504 -11.098 27.324 C-11.094 28.352 -11.091 29.38 -11.088 30.439 C-11.08 31.511 -11.071 32.583 -11.062 33.688 C-11.058 34.771 -11.053 35.854 -11.049 36.971 C-11.037 39.647 -11.021 42.324 -11 45 C-13 44 -13 44 -14.125 41.125 C-15.43 36.191 -15.377 31.065 -15 26 C-14.67 25.67 -14.34 25.34 -14 25 C-13.632 22.672 -13.298 20.338 -13 18 C-12.34 18 -11.68 18 -11 18 C-10.879 17.385 -10.758 16.77 -10.633 16.137 C-10.549 15.733 -10.549 15.733 -10.125 13.688 C-9.963 12.887 -9.8 12.086 -9.633 11.262 C-9 9 -9 9 -7 6 C-6.34 6 -5.68 6 -5 6 C-5 5.34 -5 4.68 -5 4 C-4.34 4 -3.68 4 -3 4 C-3 3.01 -3 2.02 -3 1 C-2.01 0.67 -1.02 0.34 0 0 Z " fill="#D0F7F1" transform="translate(112,443)"/>
<path d="M0 0 C2 0 2 0 3.625 1.375 C5 3 5 3 5 5 C5.66 5 6.32 5 7 5 C7 5.66 7 6.32 7 7 C10.163 8.672 13.382 9.922 16.75 11.125 C17.242 11.302 17.242 11.302 19.734 12.195 C20.482 12.461 21.23 12.726 22 13 C22 13.66 22 14.32 22 15 C41.315 14.778 41.315 14.778 50.652 10.156 C52.788 9.104 54.677 8.474 57 8 C54.081 11.284 51.651 12.79 47.5 14.188 C46.562 14.511 45.623 14.835 44.656 15.168 C33.882 18.543 23.5 17.672 13.367 12.711 C7.722 9.56 3.86 6.181 0 1 C0 0.67 0 0.34 0 0 Z " fill="#45B99B" transform="translate(831,212)"/>
<path d="M0 0 C0.165 0.495 0.165 0.495 1 3 C2.072 3.083 3.145 3.165 4.25 3.25 C8.274 4.055 9.482 4.877 12 8 C6 6 6 6 4.16 5.199 C-5.563 1.261 -16.483 1.666 -26.188 5.312 C-29.989 6.938 -33.492 8.813 -37 11 C-37 10.01 -37 9.02 -37 8 C-36.01 8 -35.02 8 -34 8 C-34 7.34 -34 6.68 -34 6 C-33.01 6 -32.02 6 -31 6 C-31 5.34 -31 4.68 -31 4 C-21.009 -1.133 -10.905 -0.385 0 0 Z " fill="#D5FCF6" transform="translate(874,149)"/>
<path d="M0 0 C0 4.16 -1.818 5.641 -4.375 8.875 C-9.697 15.616 -11.393 20.612 -12 29 C-12.077 29.701 -12.155 30.403 -12.234 31.125 C-12.656 37.493 -10.497 42.483 -7.996 48.277 C-7.667 49.176 -7.339 50.074 -7 51 C-7.33 51.66 -7.66 52.32 -8 53 C-8.815 51.397 -9.627 49.793 -10.438 48.188 C-10.89 47.294 -11.342 46.401 -11.809 45.48 C-15.751 37.273 -15.285 25.931 -13.023 17.254 C-10.065 9.985 -6.313 4.735 0 0 Z " fill="#32B694" transform="translate(838,159)"/>
<path d="M0 0 C0.66 0.33 1.32 0.66 2 1 C-4.238 8.229 -12.333 14.377 -22 16 C-33.03 16.633 -43.581 16.593 -53 10 C-51 9 -51 9 -48.574 9.742 C-47.622 10.116 -46.669 10.49 -45.688 10.875 C-35.36 14.905 -26.248 15.315 -16 11 C-14.68 11 -13.36 11 -12 11 C-12 10.34 -12 9.68 -12 9 C-10.948 8.443 -9.896 7.886 -8.812 7.312 C-5.26 5.298 -2.751 3.001 0 0 Z " fill="#39B697" transform="translate(171,500)"/>
<path d="M0 0 C0 0.66 0 1.32 0 2 C1.98 2 3.96 2 6 2 C6 2.66 6 3.32 6 4 C7.32 4.33 8.64 4.66 10 5 C6.315 6.359 4.474 5.574 0.938 4.062 C-11.152 -0.159 -24.194 0.672 -35.953 5.488 C-40.255 7.623 -44.196 10.071 -48 13 C-48 12.01 -48 11.02 -48 10 C-47.34 10 -46.68 10 -46 10 C-46 9.34 -46 8.68 -46 8 C-43 6 -43 6 -40 6 C-40 5.34 -40 4.68 -40 4 C-27.005 -1.292 -13.778 -0.404 0 0 Z " fill="#38B595" transform="translate(1351,309)"/>
<path d="M0 0 C0.866 0.804 1.732 1.609 2.625 2.438 C6.139 5.426 9.85 8.073 13.688 10.625 C14.226 10.997 14.765 11.369 15.321 11.752 C25.694 18.499 36.113 19.567 48.25 19.25 C49.592 19.23 50.935 19.212 52.277 19.195 C55.519 19.149 58.759 19.083 62 19 C57.155 22.23 51.824 21.383 46.125 21.375 C45.512 21.374 45.512 21.374 42.407 21.37 C33.908 21.255 26.782 20.633 19 17 C18.162 16.618 17.324 16.237 16.461 15.844 C14.612 14.954 12.799 13.988 11 13 C11 12.34 11 11.68 11 11 C10.709 10.871 10.709 10.871 9.234 10.219 C6.82 8.902 5.183 7.449 3.25 5.5 C2.636 4.892 2.023 4.283 1.391 3.656 C0 2 0 2 0 0 Z " fill="#43BB9E" transform="translate(1013,430)"/>
<path d="M0 0 C2.316 8.104 -2.016 16.484 -5.805 23.562 C-7.398 26.812 -8.345 30.126 -9.32 33.602 C-12.096 43.398 -12.096 43.398 -16 46 C-13.259 36.283 -9.766 26.855 -6.312 17.375 C-5.7 15.686 -5.087 13.997 -4.475 12.309 C-2.986 8.205 -1.494 4.102 0 0 Z " fill="#3AB999" transform="translate(739,259)"/>
<path d="M0 0 C1.875 2.813 2.698 4.844 3.699 8.027 C5.437 13.381 7.317 18.664 9.27 23.941 C9.854 25.529 10.438 27.117 11.021 28.705 C11.924 31.156 12.828 33.605 13.741 36.052 C14.634 38.45 15.515 40.851 16.395 43.254 C16.672 43.988 16.948 44.723 17.234 45.479 C19.114 50.659 19.114 50.659 18 54 C14.915 48.068 12.646 42.148 10.844 35.723 C9.954 32.851 8.914 30.052 7.847 27.241 C6.288 23.116 4.796 18.966 3.312 14.812 C2.992 13.937 2.672 13.061 2.342 12.158 C2.04 11.308 1.737 10.458 1.426 9.582 C1.152 8.821 0.877 8.06 0.595 7.277 C-0.06 4.77 -0.104 2.58 0 0 Z " fill="#41B89A" transform="translate(660,366)"/>
<path d="M0 0 C0.669 -0.013 1.337 -0.026 2.026 -0.039 C6.713 -0.048 10.473 0.741 14.875 2.188 C11.837 3.083 9.218 3.272 6.059 3.18 C-8.909 2.87 -19.585 4.561 -33.125 11.188 C-32.795 9.868 -32.465 8.548 -32.125 7.188 C-30.805 7.188 -29.485 7.188 -28.125 7.188 C-28.125 6.527 -28.125 5.868 -28.125 5.188 C-27.499 4.983 -26.872 4.778 -26.227 4.566 C-25.409 4.297 -24.592 4.028 -23.75 3.75 C-22.938 3.483 -22.126 3.216 -21.289 2.941 C-19.125 2.188 -19.125 2.188 -17.125 1.188 C-11.421 0.302 -5.768 0.059 0 0 Z " fill="#40BA9C" transform="translate(1059.125,307.8125)"/>
<path d="M0 0 C6.96 5.161 10.799 10.911 12.684 19.469 C13.812 28.493 14.137 37.727 10 46 C9.67 46 9.34 46 9 46 C8.957 44 8.959 42 9 40 C9.165 39.835 9.165 39.835 10 39 C10.128 36.114 10.185 33.262 10.188 30.375 C10.2 29.58 10.212 28.784 10.225 27.965 C10.242 20.75 8.918 14.973 5 8.812 C3.181 5.925 1.473 3.08 0 0 Z " fill="#3AB697" transform="translate(890,161)"/>
<path d="M0 0 C7.33 10.994 5.752 31.773 3.402 44.147 C2.003 49.593 0.149 54.808 -2 60 C-3.325 55.713 -2.238 53.506 -0.625 49.312 C3.288 38.257 2.929 26.599 3 15 C2.34 15 1.68 15 1 15 C0.67 10.05 0.34 5.1 0 0 Z " fill="#BEF5EB" transform="translate(1116,354)"/>
<path d="M0 0 C2.29 3.435 2.178 4.985 2 9 C2.66 9 3.32 9 4 9 C4.049 13.218 4.086 17.435 4.11 21.653 C4.12 23.087 4.134 24.522 4.151 25.956 C4.175 28.019 4.186 30.082 4.195 32.145 C4.206 33.386 4.216 34.627 4.227 35.906 C4 39 4 39 2 42 C1.975 41.119 1.95 40.237 1.924 39.329 C1.828 36.006 1.729 32.683 1.628 29.36 C1.585 27.931 1.543 26.503 1.503 25.074 C1.264 16.687 0.904 8.348 0 0 Z " fill="#C7F9F0" transform="translate(1183,351)"/>
<path d="M0 0 C3.724 1.213 7.378 2.509 11 4 C11 4.66 11 5.32 11 6 C11.516 6.082 12.031 6.165 12.562 6.25 C15.398 7.122 17.712 8.568 20.25 10.078 C22.447 11.235 24.545 11.702 27 12 C27 12.66 27 13.32 27 14 C28.98 14 30.96 14 33 14 C33 14.66 33 15.32 33 16 C34.98 16 36.96 16 39 16 C39 16.66 39 17.32 39 18 C33.219 17.494 28.634 16.352 23.375 13.938 C22.695 13.632 22.015 13.327 21.314 13.013 C2.103 4.205 2.103 4.205 0 0 Z " fill="#3CB799" transform="translate(986,487)"/>
<path d="M0 0 C6.193 -0.396 11.213 0.968 17.062 2.938 C17.983 3.246 18.904 3.554 19.853 3.872 C29.022 7.105 39.493 11.588 45 20 C43.062 19.625 43.062 19.625 41 19 C40.835 18.67 40.835 18.67 40 17 C39.01 16.67 38.02 16.34 37 16 C37 15.34 37 14.68 37 14 C36.092 13.711 35.185 13.423 34.25 13.125 C31.678 12.235 29.387 11.285 27 10 C27 9.34 27 8.68 27 8 C26.13 7.875 25.26 7.75 24.363 7.621 C21.14 7.026 18.272 6.157 15.188 5.062 C10.156 3.335 5.214 2.043 0 1 C0 0.67 0 0.34 0 0 Z " fill="#39B495" transform="translate(1371,253)"/>
<path d="M0 0 C0.33 0 0.66 0 1 0 C1.286 8.571 1.286 8.571 -1 12 C-1.66 12 -2.32 12 -3 12 C-2.938 12.681 -2.876 13.361 -2.812 14.062 C-3.007 17.114 -3.86 19.223 -5.148 21.969 C-6.14 24.333 -6.775 26.712 -7.438 29.188 C-8.554 33.089 -9.671 35.474 -13 38 C-10.638 29.659 -7.755 21.525 -4.812 13.375 C-4.344 12.072 -3.876 10.768 -3.408 9.465 C-2.274 6.309 -1.138 3.154 0 0 Z " fill="#3FB99A" transform="translate(722,306)"/>
<path d="M0 0 C0.296 0.102 0.296 0.102 1.793 0.621 C2.583 0.891 3.373 1.16 4.188 1.438 C4.576 1.571 4.576 1.571 6.543 2.246 C17.172 5.508 28.77 5.309 38.961 0.875 C41 0 41 0 43 0 C43 0.99 43 1.98 43 3 C36.403 5.958 30.873 6.46 23.688 6.375 C23.203 6.381 23.203 6.381 20.752 6.41 C14.012 6.383 7.223 5.783 1 3 C0.67 2.01 0.34 1.02 0 0 Z " fill="#C6F6ED" transform="translate(119,511)"/>
<path d="M0 0 C0.66 0.33 1.32 0.66 2 1 C-5.92 8.92 -13.84 16.84 -22 25 C-22.33 23.68 -22.66 22.36 -23 21 C-22.34 21 -21.68 21 -21 21 C-21 20.34 -21 19.68 -21 19 C-20.01 19 -19.02 19 -18 19 C-18 18.01 -18 17.02 -18 16 C-17.01 16 -16.02 16 -15 16 C-14.938 15.423 -14.876 14.845 -14.812 14.25 C-13.666 11.076 -11.74 9.872 -9 8 C-8.34 8 -7.68 8 -7 8 C-7 7.34 -7 6.68 -7 6 C-6.34 6 -5.68 6 -5 6 C-5 5.34 -5 4.68 -5 4 C-3.374 2.618 -1.707 1.281 0 0 Z " fill="#31B491" transform="translate(228,429)"/>
<path d="M0 0 C0.33 0 0.66 0 1 0 C1.024 0.59 1.024 0.59 1.148 3.578 C1.223 5.135 1.299 6.693 1.375 8.25 C1.406 9.027 1.437 9.805 1.469 10.605 C1.673 14.595 1.945 17.491 4 21 C4 21.99 4 22.98 4 24 C4.99 24.33 5.98 24.66 7 25 C8.358 26.646 9.693 28.313 11 30 C11.66 30.33 12.32 30.66 13 31 C12.835 31.495 12.835 31.495 12 34 C4.908 27.59 -0.541 22.238 -1.266 12.391 C-1.383 2.767 -1.383 2.767 0 0 Z " fill="#39B697" transform="translate(116,401)"/>
<path d="M0 0 C0.66 0 1.32 0 2 0 C1.97 0.336 1.97 0.336 1.819 2.036 C1.049 10.933 0.481 19.838 -0.062 28.75 C-0.154 30.237 -0.246 31.724 -0.338 33.211 C-0.56 36.807 -0.78 40.404 -1 44 C-1.33 44 -1.66 44 -2 44 C-2.025 39.034 -2.043 34.068 -2.055 29.101 C-2.06 27.411 -2.067 25.72 -2.075 24.029 C-2.088 21.604 -2.093 19.179 -2.098 16.754 C-2.103 15.993 -2.108 15.233 -2.113 14.45 C-2.113 12.633 -2.062 10.816 -2 9 C-1.67 8.67 -1.34 8.34 -1 8 C-0.769 6.653 -0.588 5.296 -0.438 3.938 C-0.293 2.638 -0.149 1.339 0 0 Z " fill="#3CB799" transform="translate(1287,347)"/>
<path d="M0 0 C0.66 0 1.32 0 2 0 C2.161 0.534 2.322 1.067 2.487 1.617 C3.234 4.08 3.992 6.54 4.75 9 C5.003 9.839 5.255 10.678 5.516 11.543 C6.781 15.624 8.131 19.433 10.125 23.219 C11.904 26.61 12.729 29.679 13.25 33.5 C13.4 34.542 13.549 35.583 13.703 36.656 C13.752 37.043 13.752 37.043 14 39 C11.265 36.265 10.426 33.052 9.18 29.473 C8.916 28.728 8.653 27.983 8.381 27.216 C7.825 25.641 7.272 24.065 6.722 22.488 C5.879 20.073 5.024 17.662 4.168 15.252 C3.63 13.722 3.092 12.191 2.555 10.66 C2.298 9.938 2.042 9.216 1.778 8.472 C0.754 5.518 0 3.151 0 0 Z " fill="#D4FDF7" transform="translate(627,270)"/>
<path d="M0 0 C0.33 0 0.66 0 1 0 C0.928 0.574 0.856 1.147 0.781 1.738 C-0.767 15.905 -0.562 29.976 2 44 C1.34 44 0.68 44 0 44 C-1.585 39.091 -2.256 34.955 -2.266 29.746 C-2.268 29.082 -2.269 28.418 -2.271 27.734 C-2.273 26.342 -2.269 24.949 -2.261 23.557 C-2.25 21.439 -2.261 19.323 -2.273 17.205 C-2.272 15.844 -2.27 14.482 -2.266 13.121 C-2.263 11.898 -2.261 10.676 -2.259 9.416 C-1.997 5.967 -1.238 3.217 0 0 Z " fill="#36B394" transform="translate(998,359)"/>
<path d="M0 0 C10.716 4.607 23.548 17.246 28.27 27.852 C28.511 28.561 28.752 29.27 29 30 C25.684 26.791 22.577 23.441 19.5 20 C13.55 13.363 7.447 6.965 0 2 C0 1.34 0 0.68 0 0 Z " fill="#3EB697" transform="translate(1134,275)"/>
<path d="M0 0 C0.415 -0.006 0.415 -0.006 2.514 -0.037 C7.634 -0.049 11.838 0.532 16.688 2.188 C16.688 2.517 16.688 2.848 16.688 3.188 C5.797 3.188 -5.092 3.188 -16.312 3.188 C-11.051 -0.32 -6.142 0.005 0 0 Z " fill="#CEF9F2" transform="translate(1335.3125,309.8125)"/>
<path d="M0 0 C0.33 0.66 0.66 1.32 1 2 C-1.87 4.942 -4.954 7.597 -8.062 10.281 C-12.84 14.519 -12.84 14.519 -14 18 C-14.804 18.639 -15.609 19.279 -16.438 19.938 C-18.961 21.969 -19.642 23.187 -21 26 C-21.99 26.33 -22.98 26.66 -24 27 C-22.487 21.736 -19.07 18.477 -15.375 14.625 C-14.747 13.961 -14.119 13.297 -13.472 12.613 C-9.205 8.143 -4.836 3.86 0 0 Z " fill="#39B596" transform="translate(979,277)"/>
<path d="M0 0 C1.357 4.07 -0.073 6.675 -1.527 10.512 C-1.795 11.24 -2.063 11.968 -2.339 12.718 C-3.196 15.045 -4.067 17.366 -4.938 19.688 C-5.521 21.263 -6.104 22.84 -6.686 24.416 C-8.114 28.281 -9.554 32.142 -11 36 C-11.907 32.784 -12.019 31.285 -10.688 28.188 C-9.638 25.624 -8.796 23.252 -8.062 20.562 C-7.195 17.654 -6.209 15.172 -4.938 12.438 C-3.337 8.963 -2.394 5.838 -2 2 C-1.34 2 -0.68 2 0 2 C0 1.34 0 0.68 0 0 Z " fill="#3DB798" transform="translate(731,450)"/>
<path d="M0 0 C0.33 0 0.66 0 1 0 C1.318 4.344 0.587 7.131 -1.178 11.072 C-2.805 14.887 -3.959 18.878 -5.193 22.834 C-6.788 27.788 -6.788 27.788 -9 30 C-8.453 24.027 -7.152 18.92 -5.062 13.312 C-4.798 12.58 -4.533 11.847 -4.26 11.092 C-2.906 7.367 -1.498 3.67 0 0 Z " fill="#40BA9B" transform="translate(944,321)"/>
<path d="M0 0 C0 0.66 0 1.32 0 2 C-0.33 2.165 -0.33 2.165 -2 3 C-2.371 3.722 -2.743 4.444 -3.125 5.188 C-5.299 8.448 -7.634 10.064 -10.793 12.309 C-14.54 15.18 -17.747 18.591 -21 22 C-21.66 21.67 -22.32 21.34 -23 21 C-20.052 18.003 -17.098 15.012 -14.138 12.028 C-13.131 11.011 -12.126 9.993 -11.123 8.972 C-9.683 7.508 -8.237 6.05 -6.789 4.594 C-5.92 3.714 -5.05 2.834 -4.155 1.928 C-2 0 -2 0 0 0 Z " fill="#C9F9EF" transform="translate(232,429)"/>
<path d="M0 0 C0.694 -0.001 1.388 -0.003 2.104 -0.004 C5.757 0.075 7.387 0.3 10.5 2.375 C9.21 2.424 7.919 2.473 6.59 2.523 C4.872 2.599 3.155 2.674 1.438 2.75 C0.59 2.781 -0.258 2.812 -1.131 2.844 C-5.049 3.025 -8.621 3.285 -12.371 4.477 C-15.387 5.343 -16.645 5.517 -19.5 4.375 C-13 1.29 -7.135 -0.013 0 0 Z " fill="#42B89B" transform="translate(863.5,150.625)"/>
<path d="M0 0 C0.33 0 0.66 0 1 0 C1.182 1.293 1.364 2.586 1.551 3.918 C2.96 13.738 4.526 23.383 7 33 C4 32 4 32 3.086 30.234 C0.26 20.361 0.257 10.201 0 0 Z " fill="#C5F7EE" transform="translate(932,391)"/>
<path d="M0 0 C2.146 0.14 4.292 0.287 6.438 0.438 C7.632 0.519 8.827 0.6 10.059 0.684 C13 1 13 1 14 2 C15.854 2.087 17.711 2.107 19.566 2.098 C20.691 2.094 21.816 2.091 22.975 2.088 C24.159 2.08 25.343 2.071 26.562 2.062 C27.75 2.058 28.938 2.053 30.162 2.049 C33.108 2.037 36.054 2.021 39 2 C33.939 4.999 28.595 4.329 22.875 4.312 C22.33 4.321 22.33 4.321 19.57 4.361 C12.545 4.366 6.591 3.451 0 1 C0 0.67 0 0.34 0 0 Z " fill="#CDFAF4" transform="translate(1036,446)"/>
<path d="M0 0 C0.33 0 0.66 0 1 0 C1.554 16.893 1.554 16.893 -2 24 C-2.196 24.413 -2.196 24.413 -3.188 26.5 C-3.456 26.995 -3.724 27.49 -4 28 C-5.188 24.546 -4.781 22.507 -3.688 19.062 C-1.838 12.785 -0.875 6.476 0 0 Z " fill="#CEF9F1" transform="translate(1184,397)"/>
<path d="M0 0 C0.33 0.66 0.66 1.32 1 2 C-1.253 5.098 -3.661 7.653 -6.562 10.125 C-12.014 14.773 -16.98 19.897 -22 25 C-22.66 24.67 -23.32 24.34 -24 24 C-16.08 16.08 -8.16 8.16 0 0 Z " fill="#35B493" transform="translate(180,336)"/>
<path d="M0 0 C0.99 0.33 1.98 0.66 3 1 C-13.468 15 -13.468 15 -21 15 C-21 14.34 -21 13.68 -21 13 C-20.01 13 -19.02 13 -18 13 C-18 12.34 -18 11.68 -18 11 C-16.378 10.162 -14.752 9.33 -13.125 8.5 C-12.22 8.036 -11.315 7.572 -10.383 7.094 C-8 6 -8 6 -6 6 C-6 5.34 -6 4.68 -6 4 C-4.35 3.67 -2.7 3.34 -1 3 C-0.67 2.01 -0.34 1.02 0 0 Z " fill="#35B796" transform="translate(1135,482)"/>
<path d="M0 0 C0.66 0 1.32 0 2 0 C-0.563 9.15 -3.795 18.06 -7 27 C-7.33 27 -7.66 27 -8 27 C-8 24.69 -8 22.38 -8 20 C-7.34 20 -6.68 20 -6 20 C-6 17.69 -6 15.38 -6 13 C-5.01 12.67 -4.02 12.34 -3 12 C-2.951 11.385 -2.902 10.77 -2.852 10.137 C-2.777 9.328 -2.702 8.52 -2.625 7.688 C-2.555 6.887 -2.486 6.086 -2.414 5.262 C-2 3 -2 3 0 0 Z " fill="#D5FCF6" transform="translate(719,310)"/>
<path d="M0 0 C0.99 0.33 1.98 0.66 3 1 C-3.557 7.676 -10.368 11.478 -19 15 C-19 14.01 -19 13.02 -19 12 C-16.094 10.743 -14.204 10 -11 10 C-11 9.34 -11 8.68 -11 8 C-10.01 8 -9.02 8 -8 8 C-8 7.34 -8 6.68 -8 6 C-7.01 6 -6.02 6 -5 6 C-5 5.34 -5 4.68 -5 4 C-4.01 4 -3.02 4 -2 4 C-2 3.01 -2 2.02 -2 1 C-1.34 0.67 -0.68 0.34 0 0 Z " fill="#D6FDF8" transform="translate(1097,433)"/>
<path d="M0 0 C0.33 0 0.66 0 1 0 C1 7.59 1 15.18 1 23 C1.99 23 2.98 23 4 23 C4 22.01 4 21.02 4 20 C4.66 20 5.32 20 6 20 C6 19.34 6 18.68 6 18 C6.99 18.33 7.98 18.66 9 19 C7.691 20.503 6.378 22.002 5.062 23.5 C4.332 24.335 3.601 25.171 2.848 26.031 C2.238 26.681 1.628 27.331 1 28 C0.67 28 0.34 28 0 28 C0 18.76 0 9.52 0 0 Z " fill="#D7FFFB" transform="translate(1283,257)"/>
<path d="M0 0 C0.33 0 0.66 0 1 0 C1.339 5.537 0.357 9.015 -2 14 C-2.33 15.114 -2.66 16.228 -3 17.375 C-3.33 18.241 -3.66 19.108 -4 20 C-4.99 20.33 -5.98 20.66 -7 21 C-4.962 13.882 -2.597 6.933 0 0 Z " fill="#D6FBF5" transform="translate(750,402)"/>
<path d="M0 0 C0.33 0 0.66 0 1 0 C1.454 6.055 -0.332 10.849 -3.125 16.125 C-4.317 18.679 -4.621 21.222 -5 24 C-5.66 24 -6.32 24 -7 24 C-7.33 24.99 -7.66 25.98 -8 27 C-9 25 -9 25 -8.287 22.478 C-7.905 21.441 -7.523 20.404 -7.129 19.336 C-6.72 18.214 -6.31 17.093 -5.889 15.938 C-5.451 14.762 -5.013 13.586 -4.562 12.375 C-4.129 11.192 -3.695 10.008 -3.248 8.789 C-2.172 5.857 -1.089 2.927 0 0 Z " fill="#43B99C" transform="translate(692,389)"/>
<path d="M0 0 C3.286 4.143 4.127 7.069 4.098 12.324 C4.096 12.838 4.096 12.838 4.088 15.439 C4.08 16.511 4.071 17.583 4.062 18.688 C4.058 19.771 4.053 20.854 4.049 21.971 C4.037 24.647 4.021 27.324 4 30 C3.67 30 3.34 30 3 30 C2.976 29.587 2.976 29.587 2.852 27.5 C2.254 18.274 1.225 9.16 0 0 Z " fill="#D3F9F3" transform="translate(1443,327)"/>
<path d="M0 0 C0.66 0.33 1.32 0.66 2 1 C1.553 1.461 1.105 1.923 0.645 2.398 C-3.511 6.882 -6.403 11.248 -8.957 16.801 C-10 19 -10 19 -12 22 C-11.492 16.034 -9.614 11.362 -7 6 C-6.34 6 -5.68 6 -5 6 C-5 5.34 -5 4.68 -5 4 C-4.34 4 -3.68 4 -3 4 C-3 3.01 -3 2.02 -3 1 C-2.01 0.67 -1.02 0.34 0 0 Z " fill="#D5FDF7" transform="translate(112,443)"/>
<path d="M0 0 C1.916 2.874 3.007 5.419 4.25 8.625 C6.549 14.267 9.4 19.101 13 24 C12.67 24.66 12.34 25.32 12 26 C-0.646 10.544 -0.646 10.544 0 0 Z " fill="#42BA9D" transform="translate(1000,404)"/>
<path d="M0 0 C0.33 0 0.66 0 1 0 C1.339 5.537 0.357 9.015 -2 14 C-2.33 15.114 -2.66 16.228 -3 17.375 C-3.33 18.241 -3.66 19.108 -4 20 C-4.99 20.33 -5.98 20.66 -7 21 C-4.962 13.882 -2.597 6.933 0 0 Z " fill="#D0F9F3" transform="translate(766,359)"/>
<path d="M0 0 C0.66 0.33 1.32 0.66 2 1 C0.26 2.989 -1.491 4.966 -3.25 6.938 C-3.741 7.501 -4.232 8.065 -4.738 8.646 C-7.39 11.599 -9.09 13.293 -13 14 C-10.818 9.918 -8.295 7.218 -4.812 4.188 C-3.911 3.397 -3.01 2.607 -2.082 1.793 C-1.395 1.201 -0.708 0.61 0 0 Z " fill="#D7FCF6" transform="translate(1025,319)"/>
<path d="M0 0 C6.567 0.318 11.067 1.694 16.836 4.844 C19 6 19 6 22 7 C23.188 9.062 23.188 9.062 24 11 C19.58 9.267 15.227 7.395 10.875 5.5 C10.16 5.192 9.444 4.884 8.707 4.566 C5.615 3.22 2.813 1.876 0 0 Z " fill="#D3FCF6" transform="translate(1103,258)"/>
<path d="M0 0 C31.494 -0.288 31.494 -0.288 34.805 2.543 C35.002 2.783 35.002 2.783 36 4 C35.077 3.867 34.154 3.734 33.203 3.598 C22.147 2.101 11.145 1.434 0 1 C0 0.67 0 0.34 0 0 Z " fill="#C9FCF4" transform="translate(1053,250)"/>
<path d="M0 0 C0.33 0.66 0.66 1.32 1 2 C-1.305 8.479 -4.385 13.082 -10 17 C-10.66 16.67 -11.32 16.34 -12 16 C-11.469 15.348 -10.938 14.695 -10.391 14.023 C-6.708 9.467 -3.129 4.955 0 0 Z " fill="#D5FAF4" transform="translate(1164,454)"/>
<path d="M0 0 C0.99 0.33 1.98 0.66 3 1 C2.361 1.866 1.721 2.733 1.062 3.625 C-2.201 9.194 -1.826 15.713 -2 22 C-2.66 22 -3.32 22 -4 22 C-4 17.05 -4 12.1 -4 7 C-3.34 7 -2.68 7 -2 7 C-1.856 6.216 -1.711 5.433 -1.562 4.625 C-1 2 -1 2 0 0 Z " fill="#CFFBF4" transform="translate(117,395)"/>
<path d="M0 0 C0.66 0 1.32 0 2 0 C2 1.32 2 2.64 2 4 C2.66 4 3.32 4 4 4 C8.592 15.337 8.592 15.337 8 22 C5.846 18.768 4.733 15.783 3.438 12.125 C3.003 10.911 2.569 9.696 2.121 8.445 C1.201 5.617 0.495 2.926 0 0 Z " fill="#C9F8F0" transform="translate(661,367)"/>
<path d="M0 0 C0.66 0.33 1.32 0.66 2 1 C1.723 1.537 1.723 1.537 0.32 4.254 C-0.412 5.69 -1.144 7.126 -1.875 8.562 C-2.24 9.267 -2.605 9.971 -2.98 10.697 C-5.199 15.075 -6.811 19.236 -8 24 C-8.33 24 -8.66 24 -9 24 C-9 21.36 -9 18.72 -9 16 C-8.34 16 -7.68 16 -7 16 C-6.918 15.196 -6.835 14.391 -6.75 13.562 C-5.807 9.085 -4.232 5.001 -2 1 C-1.34 0.67 -0.68 0.34 0 0 Z " fill="#3CB899" transform="translate(1008,335)"/>
<path d="M0 0 C2.64 0 5.28 0 8 0 C8 0.66 8 1.32 8 2 C8.763 2.144 9.526 2.289 10.312 2.438 C13 3 13 3 16 4 C16 4.66 16 5.32 16 6 C16.639 6.103 17.279 6.206 17.938 6.312 C18.618 6.539 19.299 6.766 20 7 C20.33 7.99 20.66 8.98 21 10 C17.192 8.541 13.576 6.84 9.938 5 C8.915 4.484 7.893 3.969 6.84 3.438 C5.903 2.963 4.966 2.489 4 2 C2.667 1.332 1.334 0.665 0 0 Z " fill="#3EB99A" transform="translate(1074,311)"/>
<path d="M0 0 C2.062 -0.054 4.125 -0.093 6.188 -0.125 C7.336 -0.148 8.485 -0.171 9.668 -0.195 C12.954 -0.003 15.033 0.659 18 2 C19.992 2.376 21.992 2.72 24 3 C24 3.33 24 3.66 24 4 C18.269 4.155 13.107 3.652 7.5 2.5 C6.773 2.357 6.046 2.214 5.297 2.066 C3.53 1.718 1.765 1.36 0 1 C0 0.67 0 0.34 0 0 Z " fill="#40BC9D" transform="translate(1025,505)"/>
<path d="M0 0 C1.32 0.33 2.64 0.66 4 1 C3.381 1.248 2.763 1.495 2.125 1.75 C-0.458 3.269 -0.766 4.308 -2 7 C-3.667 10.333 -5.333 13.667 -7 17 C-7.33 17 -7.66 17 -8 17 C-8 15.02 -8 13.04 -8 11 C-7.34 11 -6.68 11 -6 11 C-6.041 10.216 -6.082 9.433 -6.125 8.625 C-6 6 -6 6 -4 4 C-3.01 4 -2.02 4 -1 4 C-0.67 2.68 -0.34 1.36 0 0 Z " fill="#D2FAF4" transform="translate(833,160)"/>
<path d="M0 0 C0.762 0.447 1.524 0.895 2.309 1.355 C8.499 4.98 14.709 8.553 21 12 C17.686 13.088 17.164 13.073 13.75 11.562 C12.842 11.047 11.935 10.531 11 10 C11 9.34 11 8.68 11 8 C10.464 7.897 9.928 7.794 9.375 7.688 C6.303 6.798 3.744 5.647 1 4 C0.324 1.895 0.324 1.895 0 0 Z " fill="#CEFAF4" transform="translate(982,485)"/>
<path d="M0 0 C0.33 0 0.66 0 1 0 C1.62 10.089 1.217 18.007 -4 27 C-5.668 28.828 -5.668 28.828 -7 30 C-6.474 25.796 -4.892 22.56 -2.938 18.867 C-0.931 14.871 -0.721 11.227 -0.438 6.812 C-0.354 5.54 -0.27 4.268 -0.184 2.957 C-0.123 1.981 -0.062 1.005 0 0 Z " fill="#3AB495" transform="translate(180,470)"/>
<path d="M0 0 C0.66 0 1.32 0 2 0 C3.2 3.12 4.383 6.247 5.562 9.375 C5.905 10.264 6.247 11.154 6.6 12.07 C6.759 12.496 6.759 12.496 7.566 14.648 C7.865 15.434 8.163 16.219 8.471 17.029 C9 19 9 19 8 21 C7.34 20.67 6.68 20.34 6 20 C5.254 17.707 5.254 17.707 4.562 14.812 C3.474 10.532 2.058 6.92 0 3 C0 2.01 0 1.02 0 0 Z " fill="#43BB9E" transform="translate(621,259)"/>
<path d="M0 0 C0.33 0 0.66 0 1 0 C1.671 7.246 -0.419 11.758 -4 18 C-4.66 18 -5.32 18 -6 18 C-4.235 11.893 -2.304 5.926 0 0 Z " fill="#CDF8F0" transform="translate(738,434)"/>
<path d="M0 0 C0.33 0.99 0.66 1.98 1 3 C-0.413 4.441 -1.831 5.877 -3.25 7.312 C-4.039 8.113 -4.828 8.914 -5.641 9.738 C-7.674 11.687 -9.706 13.374 -12 15 C-12.66 14.67 -13.32 14.34 -14 14 C-9.38 9.38 -4.76 4.76 0 0 Z " fill="#DBFFFA" transform="translate(208,451)"/>
<path d="M0 0 C4.945 5.887 8.455 14.26 8 22 C5.947 19.947 5.435 18.862 4.492 16.191 C4.228 15.444 3.964 14.697 3.691 13.928 C3.422 13.147 3.153 12.367 2.875 11.562 C2.598 10.786 2.321 10.009 2.035 9.209 C0 3.389 0 3.389 0 0 Z " fill="#D3FCF6" transform="translate(645,321)"/>
<path d="M0 0 C1.147 3.44 0.871 4.003 -0.434 7.23 C-0.753 8.033 -1.072 8.835 -1.4 9.662 C-1.743 10.495 -2.085 11.329 -2.438 12.188 C-2.776 13.032 -3.114 13.877 -3.463 14.748 C-4.3 16.836 -5.146 18.919 -6 21 C-7.39 16.829 -5.902 13.818 -4.562 9.812 C-4.32 9.063 -4.077 8.313 -3.826 7.541 C-3.225 5.691 -2.614 3.845 -2 2 C-1.34 2 -0.68 2 0 2 C0 1.34 0 0.68 0 0 Z " fill="#37B796" transform="translate(790,292)"/>
<path d="M0 0 C-0.857 0.315 -1.714 0.629 -2.598 0.953 C-8.712 3.242 -14.466 5.525 -20 9 C-19.67 7.68 -19.34 6.36 -19 5 C-18.01 5 -17.02 5 -16 5 C-16 4.34 -16 3.68 -16 3 C-15.01 3 -14.02 3 -13 3 C-13 2.34 -13 1.68 -13 1 C-11.586 0.634 -10.169 0.283 -8.75 -0.062 C-7.961 -0.26 -7.172 -0.457 -6.359 -0.66 C-3.896 -1.015 -2.344 -0.769 0 0 Z " fill="#D2FCF7" transform="translate(240,288)"/>
<path d="M0 0 C0.66 0.33 1.32 0.66 2 1 C-1.588 4.936 -5.413 7.728 -9.914 10.57 C-11.856 11.901 -13.402 13.28 -15 15 C-15.66 14.67 -16.32 14.34 -17 14 C-15.296 12.412 -13.587 10.829 -11.875 9.25 C-11.399 8.809 -11.399 8.809 -8.992 6.578 C-6.09 4.077 -3.225 2.048 0 0 Z " fill="#3CB697" transform="translate(1307,263)"/>
<path d="M0 0 C0 3.524 -0.551 4.015 -2.812 6.562 C-3.335 7.162 -3.857 7.761 -4.395 8.379 C-6 10 -6 10 -9 12 C-9.99 11.67 -10.98 11.34 -12 11 C-8.174 7.075 -4.38 3.318 0 0 Z " fill="#39BB9A" transform="translate(198,319)"/>
<path d="M0 0 C0.66 0 1.32 0 2 0 C0.557 4.738 -1.372 8.989 -3.625 13.375 C-3.95 14.016 -4.275 14.656 -4.609 15.316 C-5.403 16.879 -6.201 18.44 -7 20 C-7.33 20 -7.66 20 -8 20 C-8 18.35 -8 16.7 -8 15 C-7.34 15 -6.68 15 -6 15 C-6.041 14.237 -6.082 13.474 -6.125 12.688 C-6 10 -6 10 -4 7 C-3.34 7 -2.68 7 -2 7 C-2 5.68 -2 4.36 -2 3 C-1.34 3 -0.68 3 0 3 C0 2.01 0 1.02 0 0 Z " fill="#D2FBF4" transform="translate(949,308)"/>
<path d="M0 0 C0.66 0 1.32 0 2 0 C2 0.66 2 1.32 2 2 C2.66 2 3.32 2 4 2 C4 2.66 4 3.32 4 4 C4.66 4 5.32 4 6 4 C7.473 5.609 7.473 5.609 9.062 7.75 C9.326 8.098 9.326 8.098 10.66 9.859 C11.969 11.951 12.56 13.59 13 16 C9.965 13.057 7.069 10.026 4.25 6.875 C3.657 6.212 3.064 5.55 2.453 4.867 C1 3 1 3 0 0 Z " fill="#3AB497" transform="translate(955,456)"/>
<path d="M0 0 C1.32 0.33 2.64 0.66 4 1 C0.37 4.63 -3.26 8.26 -7 12 C-7.33 10.68 -7.66 9.36 -8 8 C-7.01 7.67 -6.02 7.34 -5 7 C-5 6.34 -5 5.68 -5 5 C-4.01 5 -3.02 5 -2 5 C-2 4.01 -2 3.02 -2 2 C-1.34 1.34 -0.68 0.68 0 0 Z " fill="#C5F5ED" transform="translate(205,308)"/>
<path d="M0 0 C-1.32 0.33 -2.64 0.66 -4 1 C-4 1.66 -4 2.32 -4 3 C-7.664 4.648 -10.812 5.336 -14.812 5.625 C-15.788 5.7 -16.764 5.775 -17.77 5.852 C-18.138 5.876 -18.138 5.876 -20 6 C-16.637 3.758 -13.237 2.574 -9.438 1.312 C-9.095 1.194 -9.095 1.194 -7.361 0.592 C-2.242 -1.121 -2.242 -1.121 0 0 Z " fill="#C6F7EE" transform="translate(1112,500)"/>
<path d="M0 0 C0.99 0.33 1.98 0.66 3 1 C-3.515 7.818 -3.515 7.818 -8 10 C-8.99 10 -9.98 10 -11 10 C-9.545 8.518 -8.086 7.039 -6.625 5.562 C-5.813 4.739 -5.001 3.915 -4.164 3.066 C-2 1 -2 1 0 0 Z " fill="#40BE9E" transform="translate(155,361)"/>
<path d="M0 0 C0.66 0.33 1.32 0.66 2 1 C1.095 2.155 0.176 3.299 -0.75 4.438 C-1.26 5.076 -1.771 5.714 -2.297 6.371 C-4.197 8.188 -5.436 8.604 -8 9 C-8 9.66 -8 10.32 -8 11 C-8.66 11 -9.32 11 -10 11 C-8.552 7.556 -6.723 5.639 -3.875 3.25 C-3.151 2.636 -2.426 2.023 -1.68 1.391 C-1.403 1.161 -1.403 1.161 0 0 Z " fill="#D4FBF5" transform="translate(1309,317)"/>
<path d="M0 0 C-2.821 2.133 -5.661 4.227 -8.562 6.25 C-8.945 6.521 -8.945 6.521 -10.879 7.891 C-11.579 8.257 -12.279 8.623 -13 9 C-13.99 8.67 -14.98 8.34 -16 8 C-15.01 7.67 -14.02 7.34 -13 7 C-13 6.34 -13 5.68 -13 5 C-11.68 4.67 -10.36 4.34 -9 4 C-9 3.34 -9 2.68 -9 2 C-5.865 0.142 -3.625 -0.201 0 0 Z " fill="#D8FDF8" transform="translate(998,265)"/>
<path d="M0 0 C1.98 0 3.96 0 6 0 C1.576 3.711 -3.174 6.846 -8 10 C-8 8.68 -8 7.36 -8 6 C-7.01 6 -6.02 6 -5 6 C-5 5.34 -5 4.68 -5 4 C-4.34 3.34 -3.68 2.68 -3 2 C-2.01 2 -1.02 2 0 2 C0 1.34 0 0.68 0 0 Z " fill="#D1FBF4" transform="translate(1305,261)"/>
<path d="M0 0 C0.33 0 0.66 0 1 0 C1.037 0.895 1.075 1.789 1.113 2.711 C1.522 10.226 2.407 16.922 5 24 C2 23 2 23 0.82 21.02 C-0.308 16.867 -0.213 12.967 -0.125 8.688 C-0.116 7.852 -0.107 7.016 -0.098 6.154 C-0.074 4.103 -0.038 2.051 0 0 Z " fill="#B7F0E5" transform="translate(823,185)"/>
<path d="M0 0 C0.66 0 1.32 0 2 0 C1.34 6.27 0.68 12.54 0 19 C-2 17 -2 17 -2.266 14.609 C-2.237 9.357 -2.122 4.908 0 0 Z " fill="#E0FDFA" transform="translate(823,178)"/>
<path d="M0 0 C0.99 0 1.98 0 3 0 C1.481 4.102 -1.434 6.631 -5 9 C-8.375 10.312 -8.375 10.312 -11 11 C-10.67 10.01 -10.34 9.02 -10 8 C-8.02 7.67 -6.04 7.34 -4 7 C-4 6.34 -4 5.68 -4 5 C-3.34 5 -2.68 5 -2 5 C-2 4.01 -2 3.02 -2 2 C-1.34 2 -0.68 2 0 2 C0 1.34 0 0.68 0 0 Z " fill="#3FBA9A" transform="translate(197,458)"/>
<path d="M0 0 C0.33 0 0.66 0 1 0 C1.288 5.576 1.178 9.174 -2 14 C-2.99 14.33 -3.98 14.66 -5 15 C-1.925 4.442 -1.925 4.442 0 0 Z " fill="#D2FAF3" transform="translate(756,386)"/>
<path d="M0 0 C0.625 1.812 0.625 1.812 1 4 C0.67 4.495 0.67 4.495 -1 7 C-1.783 9.263 -2.451 11.545 -3.121 13.844 C-4.067 16.165 -5.124 17.37 -7 19 C-5.178 12.388 -2.948 6.195 0 0 Z " fill="#43B99C" transform="translate(708,347)"/>
<path d="M0 0 C3.568 0.556 4.922 1.686 7.125 4.5 C9.824 7.912 9.824 7.912 12 9 C12.625 12.062 12.625 12.062 13 15 C12.526 14.361 12.051 13.721 11.562 13.062 C8.528 9.436 5.213 6.188 1.828 2.891 C0 1 0 1 0 0 Z " fill="#39B597" transform="translate(1095,321)"/>
<path d="M0 0 C1.32 0.33 2.64 0.66 4 1 C3.01 1 2.02 1 1 1 C1.119 2.109 1.237 3.217 1.359 4.359 C1.491 5.823 1.621 7.286 1.75 8.75 C1.791 9.115 1.791 9.115 1.996 10.961 C2.302 14.704 2.387 16.509 0.016 19.516 C-0.65 20.005 -1.315 20.495 -2 21 C-1.847 20.346 -1.693 19.693 -1.535 19.02 C-0.866 15.245 -0.646 11.511 -0.438 7.688 C-0.394 6.947 -0.351 6.206 -0.307 5.443 C-0.201 3.629 -0.1 1.815 0 0 Z " fill="#ACEFE0" transform="translate(181,469)"/>
<path d="M0 0 C0.66 0.33 1.32 0.66 2 1 C0.515 2.98 0.515 2.98 -7 13 C-7.33 11.68 -7.66 10.36 -8 9 C-7.34 9 -6.68 9 -6 9 C-5.928 8.691 -5.928 8.691 -5.562 7.125 C-5 5 -5 5 -4 3 C-3.34 3 -2.68 3 -2 3 C-2 2.34 -2 1.68 -2 1 C-1.34 0.67 -0.68 0.34 0 0 Z " fill="#D1FBF5" transform="translate(961,292)"/>
<path d="M0 0 C0.66 0 1.32 0 2 0 C0.7 6.715 -1.299 12.72 -4 19 C-5.246 15.261 -4.201 13.666 -2.766 10.137 C-1.696 7.153 -1.384 4.135 -1 1 C-0.67 0.67 -0.34 0.34 0 0 Z " fill="#39B697" transform="translate(759,372)"/>
<path d="M0 0 C0.33 0 0.66 0 1 0 C0.742 6.524 0.178 10.878 -4 16 C-5 14 -5 14 -4.004 10.742 C-3.531 9.45 -3.05 8.161 -2.562 6.875 C-2.32 6.216 -2.077 5.558 -1.826 4.879 C-1.224 3.25 -0.613 1.625 0 0 Z " fill="#CDF9F2" transform="translate(782,316)"/>
<path d="M0 0 C1.263 0.018 2.527 0.036 3.828 0.055 C4.792 0.078 5.757 0.101 6.75 0.125 C6.75 0.455 6.75 0.785 6.75 1.125 C3.78 1.62 3.78 1.62 -11.25 4.125 C-11.25 3.465 -11.25 2.805 -11.25 2.125 C-7.546 -0.251 -4.32 -0.08 0 0 Z " fill="#CEFBF4" transform="translate(1037.25,250.875)"/>
<path d="M0 0 C1.461 5.058 0.924 9.263 -1.562 13.938 C-2.037 14.618 -2.511 15.299 -3 16 C-4.498 12.118 -3.431 9.566 -2.062 5.75 C-1.682 4.672 -1.302 3.595 -0.91 2.484 C-0.76 2.074 -0.76 2.074 0 0 Z " fill="#C9F8F0" transform="translate(1003,347)"/>
<path d="M0 0 C5.61 0.33 11.22 0.66 17 1 C17.66 2.32 18.32 3.64 19 5 C18.215 4.795 17.43 4.59 16.621 4.379 C11.09 2.96 5.676 1.645 0 1 C0 0.67 0 0.34 0 0 Z " fill="#BEF6EC" transform="translate(1371,252)"/>
<path d="M0 0 C1.607 4.018 0.279 7.02 -1 11 C-1.341 12.331 -1.679 13.664 -2 15 C-2.99 15 -3.98 15 -5 15 C-1.925 4.442 -1.925 4.442 0 0 Z " fill="#CBF9F2" transform="translate(727,464)"/>
<path d="M0 0 C3.518 5.277 3.106 10.864 3 17 C0.253 12.879 -0.119 10.157 -0.062 5.312 C-0.053 4.319 -0.044 3.325 -0.035 2.301 C-0.024 1.542 -0.012 0.782 0 0 Z " fill="#CAF8F1" transform="translate(1377,339)"/>
<path d="M0 0 C0.66 0 1.32 0 2 0 C2.33 0.99 2.66 1.98 3 3 C4.32 3 5.64 3 7 3 C6.25 8.75 6.25 8.75 4 11 C3.331 9.355 2.665 7.709 2 6.062 C1.814 5.604 1.814 5.604 0.875 3.285 C0 1 0 1 0 0 Z " fill="#C6FCF3" transform="translate(676,411)"/>
<path d="M0 0 C-5.939 2.592 -10.541 3.404 -17 3 C-14.081 1.054 -12.424 0.485 -9.062 -0.188 C-8.208 -0.367 -7.353 -0.546 -6.473 -0.73 C-3.989 -1.001 -2.356 -0.771 0 0 Z " fill="#3EB99A" transform="translate(1037,254)"/>
<path d="M0 0 C2 0 2 0 3.516 1.219 C5.212 3.255 5.929 4.987 6.75 7.5 C7.013 8.273 7.276 9.047 7.547 9.844 C8 12 8 12 7 15 C4.69 10.05 2.38 5.1 0 0 Z " fill="#3BB798" transform="translate(1108,336)"/>
<path d="M0 0 C-1.188 1.5 -1.188 1.5 -3 3 C-5.688 3.188 -5.688 3.188 -8 3 C-8 3.66 -8 4.32 -8 5 C-9.98 5.66 -11.96 6.32 -14 7 C-9.432 2.178 -6.769 -0.376 0 0 Z " fill="#3EBD9C" transform="translate(130,436)"/>
<path d="M0 0 C1.149 0.954 2.294 1.914 3.438 2.875 C4.076 3.409 4.714 3.942 5.371 4.492 C7 6 7 6 8 8 C6.02 8.33 4.04 8.66 2 9 C1.856 8.257 1.711 7.515 1.562 6.75 C1.098 4.479 0.571 2.245 0 0 Z " fill="#D0FEF8" transform="translate(121,428)"/>
<path d="M0 0 C0.33 0 0.66 0 1 0 C1.66 4.62 2.32 9.24 3 14 C2.34 14 1.68 14 1 14 C-0.442 9.493 -1.342 5.791 -1 1 C-0.67 0.67 -0.34 0.34 0 0 Z " fill="#3BBC9B" transform="translate(997,389)"/>
<path d="M0 0 C4 2 4 2 5.812 5.375 C7 9 7 9 6 13 C4.02 8.71 2.04 4.42 0 0 Z " fill="#D3FBF5" transform="translate(1430,289)"/>
<path d="M0 0 C0.99 0 1.98 0 3 0 C1.417 4.274 -1.506 6.265 -5 9 C-5 7.68 -5 6.36 -5 5 C-4.34 5 -3.68 5 -3 5 C-3 4.34 -3 3.68 -3 3 C-2.01 3 -1.02 3 0 3 C0 2.01 0 1.02 0 0 Z " fill="#39BD9A" transform="translate(210,445)"/>
<path d="M0 0 C0.66 0 1.32 0 2 0 C2 0.99 2 1.98 2 3 C2.66 3 3.32 3 4 3 C6.125 10.5 6.125 10.5 5 15 C3.35 10.05 1.7 5.1 0 0 Z " fill="#41B99B" transform="translate(582,328)"/>
<path d="M0 0 C-4.97 2.434 -8.346 3.346 -14 3 C-9.737 0.158 -5.036 -2.014 0 0 Z " fill="#D4FAF5" transform="translate(1048,312)"/>
<path d="M0 0 C0.33 0.99 0.66 1.98 1 3 C-1.31 5.31 -3.62 7.62 -6 10 C-6.33 9.01 -6.66 8.02 -7 7 C-4.69 4.69 -2.38 2.38 0 0 Z " fill="#26B590" transform="translate(206,311)"/>
<path d="M0 0 C3.788 0.526 6.172 1.381 9 4 C9 4.66 9 5.32 9 6 C9.66 6 10.32 6 11 6 C10.67 6.99 10.34 7.98 10 9 C8.708 7.876 7.416 6.751 6.125 5.625 C5.406 4.999 4.686 4.372 3.945 3.727 C2.592 2.526 1.279 1.279 0 0 Z " fill="#37B496" transform="translate(1359,315)"/>
<path d="M0 0 C0.99 0.33 1.98 0.66 3 1 C0.36 3.97 -2.28 6.94 -5 10 C-5.33 9.01 -5.66 8.02 -6 7 C-5.67 6.34 -5.34 5.68 -5 5 C-4.01 5 -3.02 5 -2 5 C-2 4.01 -2 3.02 -2 2 C-1.34 2 -0.68 2 0 2 C0 1.34 0 0.68 0 0 Z " fill="#CBFDF6" transform="translate(1289,275)"/>
<path d="M0 0 C3.3 1.1 3.611 1.456 5.25 4.312 C5.606 4.907 5.962 5.501 6.328 6.113 C7 8 7 8 6 12 C4.02 8.04 2.04 4.08 0 0 Z " fill="#3DB799" transform="translate(1370,324)"/>
<path d="M0 0 C0.825 0.165 0.825 0.165 5 1 C5.33 1.99 5.66 2.98 6 4 C6.66 4.33 7.32 4.66 8 5 C7.67 6.32 7.34 7.64 7 9 C5.83 7.69 4.664 6.377 3.5 5.062 C2.85 4.332 2.201 3.601 1.531 2.848 C0 1 0 1 0 0 Z " fill="#D2FBF5" transform="translate(1149,286)"/>
<path d="M0 0 C2.375 -0.188 2.375 -0.188 5 0 C5.66 0.99 6.32 1.98 7 3 C9.125 3.688 9.125 3.688 11 4 C11 4.99 11 5.98 11 7 C6.892 5.55 3.531 3.546 0 1 C0 0.67 0 0.34 0 0 Z " fill="#CDF9F2" transform="translate(1401,261)"/>
<path d="M0 0 C1.184 3.552 0.695 4.698 -0.438 8.188 C-0.725 9.089 -1.012 9.99 -1.309 10.918 C-1.537 11.605 -1.765 12.292 -2 13 C-2.33 13 -2.66 13 -3 13 C-3.473 4.807 -3.473 4.807 -1.5 1.438 C-1.253 1.2 -1.253 1.2 0 0 Z " fill="#D8FDF8" transform="translate(938,334)"/>
<path d="M0 0 C0.33 0 0.66 0 1 0 C0.812 3.312 0.812 3.312 0 7 C-2.562 8.938 -2.562 8.938 -5 10 C-3.667 6.41 -2.106 3.204 0 0 Z " fill="#D6FCF6" transform="translate(1170,444)"/>
<path d="M0 0 C2 1 2 1 2.625 2.625 C3.121 5.766 3.061 8.826 3 12 C0.976 8.965 0.679 7.806 0.375 4.312 C0.3 3.504 0.225 2.696 0.148 1.863 C0.099 1.248 0.05 0.634 0 0 Z " fill="#DDFDF8" transform="translate(666,377)"/>
<path d="M0 0 C2.64 0 5.28 0 8 0 C8 0.66 8 1.32 8 2 C9.32 2.33 10.64 2.66 12 3 C8.696 4.124 6.949 3.896 3.75 2.562 C3.044 2.275 2.337 1.988 1.609 1.691 C1.078 1.463 0.547 1.235 0 1 C0 0.67 0 0.34 0 0 Z " fill="#46BFA2" transform="translate(1349,311)"/>
<path d="M0 0 C1.602 4.004 0.409 7.07 -1 11 C-1.33 11.165 -1.33 11.165 -3 12 C-2.492 7.682 -1.803 3.967 0 0 Z " fill="#41BD9D" transform="translate(739,259)"/>
<path d="M0 0 C1.438 0.115 2.876 0.242 4.312 0.375 C4.713 0.41 4.713 0.41 6.738 0.586 C9 1 9 1 12 3 C12 3.66 12 4.32 12 5 C10.561 4.547 9.124 4.088 7.688 3.625 C6.887 3.37 6.086 3.115 5.262 2.852 C3 2 3 2 0 0 Z " fill="#C5F7EF" transform="translate(1103,258)"/>
<path d="M0 0 C-1.963 2.048 -3.428 2.95 -6.27 3.199 C-8.52 3.189 -10.754 3.13 -13 3 C-3.705 -1.852 -3.705 -1.852 0 0 Z " fill="#C5F8EF" transform="translate(882,226)"/>
<path d="M0 0 C1.124 3.304 0.896 5.051 -0.438 8.25 C-0.725 8.956 -1.012 9.663 -1.309 10.391 C-1.537 10.922 -1.765 11.453 -2 12 C-2.66 12 -3.32 12 -4 12 C-3.523 10.374 -3.043 8.749 -2.562 7.125 C-2.296 6.22 -2.029 5.315 -1.754 4.383 C-1 2 -1 2 0 0 Z " fill="#CCFAF2" transform="translate(902,199)"/>
<path d="M0 0 C1.439 0.453 2.876 0.912 4.312 1.375 C5.113 1.63 5.914 1.885 6.738 2.148 C9 3 9 3 12 5 C7.682 4.492 3.967 3.803 0 2 C0 1.34 0 0.68 0 0 Z " fill="#D2FCF6" transform="translate(119,511)"/>
<path d="M0 0 C0.33 0 0.66 0 1 0 C1.125 6.625 1.125 6.625 0 10 C-0.99 10.33 -1.98 10.66 -3 11 C-2.01 7.37 -1.02 3.74 0 0 Z " fill="#CCF8F2" transform="translate(716,493)"/>
<path d="M0 0 C1.472 3.827 0.57 6.31 -1 10 C-1.967 11.032 -2.962 12.039 -4 13 C-3.521 11.396 -3.042 9.792 -2.562 8.188 C-2.296 7.294 -2.029 6.401 -1.754 5.48 C-1.196 3.645 -0.607 1.82 0 0 Z " fill="#CAF9F2" transform="translate(721,480)"/>
<path d="M0 0 C0.66 0 1.32 0 2 0 C0.688 3.937 -0.919 6.227 -4 9 C-3.125 4.25 -3.125 4.25 -2 2 C-1.34 2 -0.68 2 0 2 C0 1.34 0 0.68 0 0 Z " fill="#37B797" transform="translate(1165,449)"/>
<path d="M0 0 C0.33 0 0.66 0 1 0 C1.391 5.957 1.391 5.957 1 8 C-0.32 8.99 -1.64 9.98 -3 11 C-2.01 7.37 -1.02 3.74 0 0 Z " fill="#CAF8F0" transform="translate(742,423)"/>
<path d="M0 0 C2.956 2.752 5.116 5.42 7 9 C7 9.66 7 10.32 7 11 C6.34 11 5.68 11 5 11 C4.162 9.545 3.329 8.086 2.5 6.625 C2.268 6.219 2.268 6.219 1.094 4.164 C0 2 0 2 0 0 Z " fill="#43B899" transform="translate(1163,305)"/>
<path d="M0 0 C2.458 3.687 3.012 6.697 4 11 C3.01 10.67 2.02 10.34 1 10 C-0.158 6.527 -0.069 3.639 0 0 Z " fill="#CFFAF3" transform="translate(571,299)"/>
<path d="M0 0 C0.66 0.99 1.32 1.98 2 3 C0.68 5.64 -0.64 8.28 -2 11 C-2.66 11 -3.32 11 -4 11 C-3.523 9.541 -3.043 8.083 -2.562 6.625 C-2.296 5.813 -2.029 5.001 -1.754 4.164 C-1 2 -1 2 0 0 Z " fill="#3FB899" transform="translate(829,168)"/>
<path d="M0 0 C0.33 0.99 0.66 1.98 1 3 C0.67 3.495 0.67 3.495 -1 6 C-1.66 6 -2.32 6 -3 6 C-3.66 7.32 -4.32 8.64 -5 10 C-5 6.604 -4.478 5.934 -2.5 3.312 C-2.036 2.69 -1.572 2.067 -1.094 1.426 C-0.733 0.955 -0.372 0.485 0 0 Z " fill="#3CB798" transform="translate(110,447)"/>
<path d="M0 0 C0.99 0.33 1.98 0.66 3 1 C-2.143 5.429 -2.143 5.429 -6 6 C-4 4 -2 2 0 0 Z " fill="#30B593" transform="translate(1096,437)"/>
<path d="M0 0 C0.33 0 0.66 0 1 0 C1.369 6.523 1.369 6.523 -0.5 8.938 C-0.995 9.288 -1.49 9.639 -2 10 C-3 8 -3 8 -2.441 6.055 C-2.151 5.335 -1.861 4.616 -1.562 3.875 C-1.275 3.151 -0.988 2.426 -0.691 1.68 C-0.463 1.125 -0.235 0.571 0 0 Z " fill="#CAF8F0" transform="translate(750,402)"/>
<path d="M0 0 C3 2 3 2 3.512 4.383 C3.57 5.288 3.628 6.193 3.688 7.125 C3.753 8.035 3.819 8.945 3.887 9.883 C3.924 10.581 3.961 11.28 4 12 C2.097 9.145 1.538 7.581 0.875 4.312 C0.707 3.504 0.54 2.696 0.367 1.863 C0.246 1.248 0.125 0.634 0 0 Z " fill="#39B597" transform="translate(610,401)"/>
<path d="M0 0 C2.458 3.687 3.012 6.697 4 11 C3.34 10.67 2.68 10.34 2 10 C2 9.34 2 8.68 2 8 C1.34 8 0.68 8 0 8 C0 5.36 0 2.72 0 0 Z " fill="#CFF9F3" transform="translate(581,326)"/>
<path d="M0 0 C3.81 2.771 4.068 6.629 5 11 C2.658 8.871 1.164 6.956 0 4 C0 2.68 0 1.36 0 0 Z " fill="#44BA9D" transform="translate(1175,329)"/>
<path d="M0 0 C0.33 0 0.66 0 1 0 C1.25 3.25 1.25 3.25 1 7 C-0.32 8.32 -1.64 9.64 -3 11 C-2.01 7.37 -1.02 3.74 0 0 Z " fill="#C8F8EF" transform="translate(796,278)"/>
<path d="M0 0 C3.439 1.242 6.252 2.557 9 5 C9 5.66 9 6.32 9 7 C5.183 5.445 2.808 2.964 0 0 Z " fill="#3DB597" transform="translate(977,480)"/>
<path d="M0 0 C0.66 0.33 1.32 0.66 2 1 C0.813 5.108 0.106 6.894 -3 10 C-2.01 6.7 -1.02 3.4 0 0 Z " fill="#47BC9E" transform="translate(700,367)"/>
<path d="M0 0 C0.33 0 0.66 0 1 0 C1.369 5.538 1.369 5.538 -0.5 7.875 C-0.747 8.061 -0.747 8.061 -2 9 C-2.33 8.34 -2.66 7.68 -3 7 C-2.064 4.64 -1.067 2.304 0 0 Z " fill="#D0FAF3" transform="translate(1294,334)"/>
<path d="M0 0 C2.19 3.285 2.998 6.207 4 10 C2 8.938 2 8.938 0 7 C-0.25 3.312 -0.25 3.312 0 0 Z " fill="#C1F5EC" transform="translate(575,310)"/>
<path d="M0 0 C0.66 0.33 1.32 0.66 2 1 C1.01 3.97 0.02 6.94 -1 10 C-1.33 10 -1.66 10 -2 10 C-2 7.36 -2 4.72 -2 2 C-1.34 2 -0.68 2 0 2 C0 1.34 0 0.68 0 0 Z " fill="#D7FDF8" transform="translate(723,299)"/>
<path d="M0 0 C0.33 0 0.66 0 1 0 C1.25 6.625 1.25 6.625 -1 10 C-1.66 10 -2.32 10 -3 10 C-2.01 6.7 -1.02 3.4 0 0 Z " fill="#CAF8EF" transform="translate(792,289)"/>
<path d="M0 0 C2.55 2.464 4.402 4.803 6 8 C5.67 8.99 5.34 9.98 5 11 C2.772 8.772 2.308 7.342 1.375 4.375 C1.115 3.558 0.854 2.74 0.586 1.898 C0.393 1.272 0.199 0.645 0 0 Z " fill="#42B89A" transform="translate(1429,289)"/>
<path d="M0 0 C1.32 0.33 2.64 0.66 4 1 C5.312 3.375 5.312 3.375 6 6 C5.67 6.99 5.34 7.98 5 9 C3.35 6.03 1.7 3.06 0 0 Z " fill="#CCF9F2" transform="translate(1424,280)"/>
<path d="M0 0 C1.138 4.55 0.428 6.631 -1 11 C-1.66 11 -2.32 11 -3 11 C-2.01 7.37 -1.02 3.74 0 0 Z " fill="#48BD9F" transform="translate(1117,402)"/>
<path d="M0 0 C2.64 1.65 5.28 3.3 8 5 C6.68 5.33 5.36 5.66 4 6 C1.75 4.188 1.75 4.188 0 2 C0 1.34 0 0.68 0 0 Z " fill="#CAFAF2" transform="translate(1088,317)"/>
<path d="M0 0 C-2.812 2.062 -2.812 2.062 -6 4 C-6.99 3.67 -7.98 3.34 -9 3 C-8.01 2.67 -7.02 2.34 -6 2 C-6 1.34 -6 0.68 -6 0 C-3.509 -1.245 -2.589 -0.777 0 0 Z " fill="#CAF9F2" transform="translate(991,270)"/>
</svg>
